<?xml version="1.0" encoding="UTF-8" standalone="no"?>
<!DOCTYPE svg PUBLIC "-//W3C//DTD SVG 1.1//EN"
 "http://www.w3.org/Graphics/SVG/1.1/DTD/svg11.dtd">
<!-- Generated by graphviz version 15.1.0 (20260618.0150)
 -->
<!-- Title: C:/DGB/Project/computer&#45;vision&#45;app/src/core/logger/app_logger.h Pages: 1 -->
<svg width="430pt" height="108pt"
 viewBox="0.00 0.00 430.00 108.00" xmlns="http://www.w3.org/2000/svg" xmlns:xlink="http://www.w3.org/1999/xlink">
<g id="graph0" class="graph" transform="scale(1 1) rotate(0) translate(4 104)">
<title>C:/DGB/Project/computer&#45;vision&#45;app/src/core/logger/app_logger.h</title>
<!-- Node1 -->
<g id="Node000001" class="node">
<title>Node1</title>
<g id="a_Node000001"><a xlink:title=" ">
<polygon fill="#999999" stroke="#666666" points="274.38,-100 143.62,-100 143.62,-56 274.38,-56 274.38,-100"/>
<text xml:space="preserve" text-anchor="start" x="151.62" y="-86.5" font-family="Helvetica,sans-Serif" font-size="10.00">C:/DGB/Project/computer</text>
<text xml:space="preserve" text-anchor="start" x="151.62" y="-74.5" font-family="Helvetica,sans-Serif" font-size="10.00">&#45;vision&#45;app/src/core/logger</text>
<text xml:space="preserve" text-anchor="middle" x="209" y="-62.5" font-family="Helvetica,sans-Serif" font-size="10.00">/app_logger.h</text>
</a>
</g>
</g>
<!-- Node2 -->
<g id="Node000002" class="node">
<title>Node2</title>
<g id="a_Node000002"><a xlink:title=" ">
<polygon fill="#e0e0e0" stroke="#999999" points="52,-20 0,-20 0,0 52,0 52,-20"/>
<text xml:space="preserve" text-anchor="middle" x="26" y="-6.5" font-family="Helvetica,sans-Serif" font-size="10.00">QObject</text>
</a>
</g>
</g>
<!-- Node1&#45;&gt;Node2 -->
<g id="edge1_Node000001_Node000002" class="edge">
<title>Node1&#45;&gt;Node2</title>
<g id="a_edge1_Node000001_Node000002"><a xlink:title=" ">
<path fill="none" stroke="#63b8ff" d="M149.59,-55.57C120.99,-45.26 87.6,-33.22 62.74,-24.25"/>
<polygon fill="#63b8ff" stroke="#63b8ff" points="63.99,-20.98 53.39,-20.88 61.61,-27.56 63.99,-20.98"/>
</a>
</g>
</g>
<!-- Node3 -->
<g id="Node000003" class="node">
<title>Node3</title>
<g id="a_Node000003"><a xlink:title=" ">
<polygon fill="#e0e0e0" stroke="#999999" points="119.5,-20 70.5,-20 70.5,0 119.5,0 119.5,-20"/>
<text xml:space="preserve" text-anchor="middle" x="95" y="-6.5" font-family="Helvetica,sans-Serif" font-size="10.00">QString</text>
</a>
</g>
</g>
<!-- Node1&#45;&gt;Node3 -->
<g id="edge2_Node000001_Node000003" class="edge">
<title>Node1&#45;&gt;Node3</title>
<g id="a_edge2_Node000001_Node000003"><a xlink:title=" ">
<path fill="none" stroke="#63b8ff" d="M171.99,-55.57C155.3,-45.91 135.98,-34.73 120.88,-25.98"/>
<polygon fill="#63b8ff" stroke="#63b8ff" points="122.89,-23.11 112.49,-21.12 119.39,-29.16 122.89,-23.11"/>
</a>
</g>
</g>
<!-- Node4 -->
<g id="Node000004" class="node">
<title>Node4</title>
<g id="a_Node000004"><a xlink:title=" ">
<polygon fill="#e0e0e0" stroke="#999999" points="204.12,-20 137.88,-20 137.88,0 204.12,0 204.12,-20"/>
<text xml:space="preserve" text-anchor="middle" x="171" y="-6.5" font-family="Helvetica,sans-Serif" font-size="10.00">QDateTime</text>
</a>
</g>
</g>
<!-- Node1&#45;&gt;Node4 -->
<g id="edge3_Node000001_Node000004" class="edge">
<title>Node1&#45;&gt;Node4</title>
<g id="a_edge3_Node000001_Node000004"><a xlink:title=" ">
<path fill="none" stroke="#63b8ff" d="M196.77,-55.75C192.05,-47.57 186.7,-38.27 182.1,-30.28"/>
<polygon fill="#63b8ff" stroke="#63b8ff" points="185.2,-28.65 177.18,-21.73 179.13,-32.14 185.2,-28.65"/>
</a>
</g>
</g>
<!-- Node5 -->
<g id="Node000005" class="node">
<title>Node5</title>
<g id="a_Node000005"><a xlink:title=" ">
<polygon fill="#e0e0e0" stroke="#999999" points="272.25,-20 221.75,-20 221.75,0 272.25,0 272.25,-20"/>
<text xml:space="preserve" text-anchor="middle" x="247" y="-6.5" font-family="Helvetica,sans-Serif" font-size="10.00">QMutex</text>
</a>
</g>
</g>
<!-- Node1&#45;&gt;Node5 -->
<g id="edge4_Node000001_Node000005" class="edge">
<title>Node1&#45;&gt;Node5</title>
<g id="a_edge4_Node000001_Node000005"><a xlink:title=" ">
<path fill="none" stroke="#63b8ff" d="M221.23,-55.75C225.95,-47.57 231.3,-38.27 235.9,-30.28"/>
<polygon fill="#63b8ff" stroke="#63b8ff" points="238.87,-32.14 240.82,-21.73 232.8,-28.65 238.87,-32.14"/>
</a>
</g>
</g>
<!-- Node6 -->
<g id="Node000006" class="node">
<title>Node6</title>
<g id="a_Node000006"><a xlink:title=" ">
<polygon fill="#e0e0e0" stroke="#999999" points="329.62,-20 290.38,-20 290.38,0 329.62,0 329.62,-20"/>
<text xml:space="preserve" text-anchor="middle" x="310" y="-6.5" font-family="Helvetica,sans-Serif" font-size="10.00">QFile</text>
</a>
</g>
</g>
<!-- Node1&#45;&gt;Node6 -->
<g id="edge5_Node000001_Node000006" class="edge">
<title>Node1&#45;&gt;Node6</title>
<g id="a_edge5_Node000001_Node000006"><a xlink:title=" ">
<path fill="none" stroke="#63b8ff" d="M241.79,-55.57C256.3,-46.09 273.03,-35.16 286.3,-26.49"/>
<polygon fill="#63b8ff" stroke="#63b8ff" points="287.94,-29.59 294.4,-21.19 284.12,-23.73 287.94,-29.59"/>
</a>
</g>
</g>
<!-- Node7 -->
<g id="Node000007" class="node">
<title>Node7</title>
<g id="a_Node000007"><a xlink:title=" ">
<polygon fill="#e0e0e0" stroke="#999999" points="421.88,-20 348.12,-20 348.12,0 421.88,0 421.88,-20"/>
<text xml:space="preserve" text-anchor="middle" x="385" y="-6.5" font-family="Helvetica,sans-Serif" font-size="10.00">QTextStream</text>
</a>
</g>
</g>
<!-- Node1&#45;&gt;Node7 -->
<g id="edge6_Node000001_Node000007" class="edge">
<title>Node1&#45;&gt;Node7</title>
<g id="a_edge6_Node000001_Node000007"><a xlink:title=" ">
<path fill="none" stroke="#63b8ff" d="M266.14,-55.57C293.52,-45.3 325.47,-33.32 349.34,-24.37"/>
<polygon fill="#63b8ff" stroke="#63b8ff" points="350.47,-27.69 358.61,-20.9 348.02,-21.13 350.47,-27.69"/>
</a>
</g>
</g>
</g>
</svg>
