<?xml version="1.0" encoding="UTF-8" standalone="no"?>
<!DOCTYPE svg PUBLIC "-//W3C//DTD SVG 1.1//EN"
 "http://www.w3.org/Graphics/SVG/1.1/DTD/svg11.dtd">
<!-- Generated by graphviz version 15.1.0 (20260618.0150)
 -->
<!-- Title: C:/DGB/Project/computer&#45;vision&#45;app/src/ui/widgets/calibration/calibration_board_dialog.cpp Pages: 1 -->
<svg width="805pt" height="300pt"
 viewBox="0.00 0.00 805.00 300.00" xmlns="http://www.w3.org/2000/svg" xmlns:xlink="http://www.w3.org/1999/xlink">
<g id="graph0" class="graph" transform="scale(1 1) rotate(0) translate(4 296)">
<title>C:/DGB/Project/computer&#45;vision&#45;app/src/ui/widgets/calibration/calibration_board_dialog.cpp</title>
<!-- Node1 -->
<g id="Node000001" class="node">
<title>Node1</title>
<g id="a_Node000001"><a xlink:title=" ">
<polygon fill="#999999" stroke="#666666" points="507.75,-292 379.25,-292 379.25,-236 507.75,-236 507.75,-292"/>
<text xml:space="preserve" text-anchor="start" x="387.25" y="-278.5" font-family="Helvetica,sans-Serif" font-size="10.00">C:/DGB/Project/computer</text>
<text xml:space="preserve" text-anchor="start" x="387.25" y="-266.5" font-family="Helvetica,sans-Serif" font-size="10.00">&#45;vision&#45;app/src/ui/widgets</text>
<text xml:space="preserve" text-anchor="start" x="387.25" y="-254.5" font-family="Helvetica,sans-Serif" font-size="10.00">/calibration/calibration</text>
<text xml:space="preserve" text-anchor="middle" x="443.5" y="-242.5" font-family="Helvetica,sans-Serif" font-size="10.00">_board_dialog.cpp</text>
</a>
</g>
</g>
<!-- Node2 -->
<g id="Node000002" class="node">
<title>Node2</title>
<g id="a_Node000002"><a xlink:href="calibration__board__dialog_8h.html" target="_top" xlink:title=" ">
<polygon fill="white" stroke="#666666" points="156.75,-194 28.25,-194 28.25,-174 156.75,-174 156.75,-194"/>
<text xml:space="preserve" text-anchor="middle" x="92.5" y="-180.5" font-family="Helvetica,sans-Serif" font-size="10.00">calibration_board_dialog.h</text>
</a>
</g>
</g>
<!-- Node1&#45;&gt;Node2 -->
<g id="edge1_Node000001_Node000002" class="edge">
<title>Node1&#45;&gt;Node2</title>
<g id="a_edge1_Node000001_Node000002"><a xlink:title=" ">
<path fill="none" stroke="#63b8ff" d="M379.12,-248.69C312.33,-233.85 209.05,-210.9 146.41,-196.98"/>
<polygon fill="#63b8ff" stroke="#63b8ff" points="147.21,-193.57 136.69,-194.82 145.69,-200.4 147.21,-193.57"/>
</a>
</g>
</g>
<!-- Node5 -->
<g id="Node000005" class="node">
<title>Node5</title>
<g id="a_Node000005"><a xlink:href="calibration__board__factory_8h.html" target="_top" xlink:title=" ">
<polygon fill="white" stroke="#666666" points="300.25,-200 192.75,-200 192.75,-168 300.25,-168 300.25,-200"/>
<text xml:space="preserve" text-anchor="start" x="200.75" y="-186.5" font-family="Helvetica,sans-Serif" font-size="10.00">calibration/calibration</text>
<text xml:space="preserve" text-anchor="middle" x="246.5" y="-174.5" font-family="Helvetica,sans-Serif" font-size="10.00">_board_factory.h</text>
</a>
</g>
</g>
<!-- Node1&#45;&gt;Node5 -->
<g id="edge4_Node000001_Node000005" class="edge">
<title>Node1&#45;&gt;Node5</title>
<g id="a_edge4_Node000001_Node000005"><a xlink:title=" ">
<path fill="none" stroke="#63b8ff" d="M378.99,-237.46C351.99,-226.77 321.11,-214.54 295.95,-204.58"/>
<polygon fill="#63b8ff" stroke="#63b8ff" points="297.54,-201.45 286.96,-201.02 294.97,-207.95 297.54,-201.45"/>
</a>
</g>
</g>
<!-- Node10 -->
<g id="Node000010" class="node">
<title>Node10</title>
<g id="a_Node000010"><a xlink:href="fanuc__irvision__board_8h.html" target="_top" xlink:title=" ">
<polygon fill="white" stroke="#666666" points="442.25,-132 328.75,-132 328.75,-112 442.25,-112 442.25,-132"/>
<text xml:space="preserve" text-anchor="middle" x="385.5" y="-118.5" font-family="Helvetica,sans-Serif" font-size="10.00">fanuc_irvision_board.h</text>
</a>
</g>
</g>
<!-- Node1&#45;&gt;Node10 -->
<g id="edge14_Node000001_Node000010" class="edge">
<title>Node1&#45;&gt;Node10</title>
<g id="a_edge14_Node000001_Node000010"><a xlink:title=" ">
<path fill="none" stroke="#63b8ff" d="M382,-235.52C368.21,-226.3 355.36,-214.56 347.5,-200 340.74,-187.49 342.61,-181.36 347.5,-168 351.29,-157.65 358.62,-148.03 365.85,-140.37"/>
<polygon fill="#63b8ff" stroke="#63b8ff" points="368.27,-142.9 372.98,-133.41 363.38,-137.89 368.27,-142.9"/>
</a>
</g>
</g>
<!-- Node12 -->
<g id="Node000012" class="node">
<title>Node12</title>
<g id="a_Node000012"><a xlink:title=" ">
<polygon fill="#e0e0e0" stroke="#999999" points="428.62,-194 356.38,-194 356.38,-174 428.62,-174 428.62,-194"/>
<text xml:space="preserve" text-anchor="middle" x="392.5" y="-180.5" font-family="Helvetica,sans-Serif" font-size="10.00">QComboBox</text>
</a>
</g>
</g>
<!-- Node1&#45;&gt;Node12 -->
<g id="edge15_Node000001_Node000012" class="edge">
<title>Node1&#45;&gt;Node12</title>
<g id="a_edge15_Node000001_Node000012"><a xlink:title=" ">
<path fill="none" stroke="#63b8ff" d="M425.66,-235.72C418.74,-225.14 410.99,-213.29 404.73,-203.7"/>
<polygon fill="#63b8ff" stroke="#63b8ff" points="407.85,-202.08 399.45,-195.63 401.99,-205.91 407.85,-202.08"/>
</a>
</g>
</g>
<!-- Node13 -->
<g id="Node000013" class="node">
<title>Node13</title>
<g id="a_Node000013"><a xlink:title=" ">
<polygon fill="#e0e0e0" stroke="#999999" points="544,-194 447,-194 447,-174 544,-174 544,-194"/>
<text xml:space="preserve" text-anchor="middle" x="495.5" y="-180.5" font-family="Helvetica,sans-Serif" font-size="10.00">QDialogButtonBox</text>
</a>
</g>
</g>
<!-- Node1&#45;&gt;Node13 -->
<g id="edge16_Node000001_Node000013" class="edge">
<title>Node1&#45;&gt;Node13</title>
<g id="a_edge16_Node000001_Node000013"><a xlink:title=" ">
<path fill="none" stroke="#63b8ff" d="M461.69,-235.72C468.74,-225.14 476.64,-213.29 483.03,-203.7"/>
<polygon fill="#63b8ff" stroke="#63b8ff" points="485.79,-205.88 488.42,-195.62 479.96,-202 485.79,-205.88"/>
</a>
</g>
</g>
<!-- Node14 -->
<g id="Node000014" class="node">
<title>Node14</title>
<g id="a_Node000014"><a xlink:title=" ">
<polygon fill="#e0e0e0" stroke="#999999" points="637.12,-194 561.88,-194 561.88,-174 637.12,-174 637.12,-194"/>
<text xml:space="preserve" text-anchor="middle" x="599.5" y="-180.5" font-family="Helvetica,sans-Serif" font-size="10.00">QFormLayout</text>
</a>
</g>
</g>
<!-- Node1&#45;&gt;Node14 -->
<g id="edge17_Node000001_Node000014" class="edge">
<title>Node1&#45;&gt;Node14</title>
<g id="a_edge17_Node000001_Node000014"><a xlink:title=" ">
<path fill="none" stroke="#63b8ff" d="M498.5,-235.5C522.74,-223.38 550.24,-209.63 570.41,-199.54"/>
<polygon fill="#63b8ff" stroke="#63b8ff" points="571.79,-202.77 579.17,-195.17 568.66,-196.51 571.79,-202.77"/>
</a>
</g>
</g>
<!-- Node15 -->
<g id="Node000015" class="node">
<title>Node15</title>
<g id="a_Node000015"><a xlink:title=" ">
<polygon fill="#e0e0e0" stroke="#999999" points="701.88,-194 655.12,-194 655.12,-174 701.88,-174 701.88,-194"/>
<text xml:space="preserve" text-anchor="middle" x="678.5" y="-180.5" font-family="Helvetica,sans-Serif" font-size="10.00">QLabel</text>
</a>
</g>
</g>
<!-- Node1&#45;&gt;Node15 -->
<g id="edge18_Node000001_Node000015" class="edge">
<title>Node1&#45;&gt;Node15</title>
<g id="a_edge18_Node000001_Node000015"><a xlink:title=" ">
<path fill="none" stroke="#63b8ff" d="M507.82,-245.49C548.13,-233.92 600.91,-217.66 646.5,-200 647.29,-199.69 648.1,-199.37 648.9,-199.05"/>
<polygon fill="#63b8ff" stroke="#63b8ff" points="650.24,-202.28 658.01,-195.08 647.44,-195.87 650.24,-202.28"/>
</a>
</g>
</g>
<!-- Node16 -->
<g id="Node000016" class="node">
<title>Node16</title>
<g id="a_Node000016"><a xlink:title=" ">
<polygon fill="#e0e0e0" stroke="#999999" points="796.88,-194 720.12,-194 720.12,-174 796.88,-174 796.88,-194"/>
<text xml:space="preserve" text-anchor="middle" x="758.5" y="-180.5" font-family="Helvetica,sans-Serif" font-size="10.00">QVBoxLayout</text>
</a>
</g>
</g>
<!-- Node1&#45;&gt;Node16 -->
<g id="edge19_Node000001_Node000016" class="edge">
<title>Node1&#45;&gt;Node16</title>
<g id="a_edge19_Node000001_Node000016"><a xlink:title=" ">
<path fill="none" stroke="#63b8ff" d="M508.02,-249.13C562.3,-237.13 641.83,-218.81 710.5,-200 713.09,-199.29 715.76,-198.53 718.44,-197.75"/>
<polygon fill="#63b8ff" stroke="#63b8ff" points="719.39,-201.12 727.96,-194.89 717.37,-194.42 719.39,-201.12"/>
</a>
</g>
</g>
<!-- Node3 -->
<g id="Node000003" class="node">
<title>Node3</title>
<g id="a_Node000003"><a xlink:title=" ">
<polygon fill="#e0e0e0" stroke="#999999" points="118.12,-132 66.88,-132 66.88,-112 118.12,-112 118.12,-132"/>
<text xml:space="preserve" text-anchor="middle" x="92.5" y="-118.5" font-family="Helvetica,sans-Serif" font-size="10.00">QDialog</text>
</a>
</g>
</g>
<!-- Node2&#45;&gt;Node3 -->
<g id="edge2_Node000002_Node000003" class="edge">
<title>Node2&#45;&gt;Node3</title>
<g id="a_edge2_Node000002_Node000003"><a xlink:title=" ">
<path fill="none" stroke="#63b8ff" d="M92.5,-173.62C92.5,-165.56 92.5,-153.65 92.5,-143.41"/>
<polygon fill="#63b8ff" stroke="#63b8ff" points="96,-143.63 92.5,-133.63 89,-143.63 96,-143.63"/>
</a>
</g>
</g>
<!-- Node4 -->
<g id="Node000004" class="node">
<title>Node4</title>
<g id="a_Node000004"><a xlink:title=" ">
<polygon fill="#e0e0e0" stroke="#999999" points="49,-132 0,-132 0,-112 49,-112 49,-132"/>
<text xml:space="preserve" text-anchor="middle" x="24.5" y="-118.5" font-family="Helvetica,sans-Serif" font-size="10.00">QString</text>
</a>
</g>
</g>
<!-- Node2&#45;&gt;Node4 -->
<g id="edge3_Node000002_Node000004" class="edge">
<title>Node2&#45;&gt;Node4</title>
<g id="a_edge3_Node000002_Node000004"><a xlink:title=" ">
<path fill="none" stroke="#63b8ff" d="M81.88,-173.62C71.54,-164.5 55.6,-150.45 43.15,-139.46"/>
<polygon fill="#63b8ff" stroke="#63b8ff" points="45.78,-137.11 35.96,-133.11 41.15,-142.35 45.78,-137.11"/>
</a>
</g>
</g>
<!-- Node6 -->
<g id="Node000006" class="node">
<title>Node6</title>
<g id="a_Node000006"><a xlink:href="calibration__board_8h.html" target="_top" xlink:title=" ">
<polygon fill="white" stroke="#666666" points="272.38,-76 174.62,-76 174.62,-56 272.38,-56 272.38,-76"/>
<text xml:space="preserve" text-anchor="middle" x="223.5" y="-62.5" font-family="Helvetica,sans-Serif" font-size="10.00">calibration_board.h</text>
</a>
</g>
</g>
<!-- Node5&#45;&gt;Node6 -->
<g id="edge5_Node000005_Node000006" class="edge">
<title>Node5&#45;&gt;Node6</title>
<g id="a_edge5_Node000005_Node000006"><a xlink:title=" ">
<path fill="none" stroke="#63b8ff" d="M232.42,-167.79C224.6,-158.28 215.64,-145.33 211.5,-132 206.92,-117.23 210.49,-100 214.89,-86.99"/>
<polygon fill="#63b8ff" stroke="#63b8ff" points="218.09,-88.43 218.42,-77.84 211.56,-85.91 218.09,-88.43"/>
</a>
</g>
</g>
<!-- Node8 -->
<g id="Node000008" class="node">
<title>Node8</title>
<g id="a_Node000008"><a xlink:title=" ">
<polygon fill="#e0e0e0" stroke="#999999" points="158.5,-20 118.5,-20 118.5,0 158.5,0 158.5,-20"/>
<text xml:space="preserve" text-anchor="middle" x="138.5" y="-6.5" font-family="Helvetica,sans-Serif" font-size="10.00">string</text>
</a>
</g>
</g>
<!-- Node5&#45;&gt;Node8 -->
<g id="edge12_Node000005_Node000008" class="edge">
<title>Node5&#45;&gt;Node8</title>
<g id="a_edge12_Node000005_Node000008"><a xlink:title=" ">
<path fill="none" stroke="#63b8ff" d="M232.65,-167.66C215.18,-147.71 185.07,-111.24 165.5,-76 157.41,-61.44 150.29,-43.96 145.39,-30.8"/>
<polygon fill="#63b8ff" stroke="#63b8ff" points="148.74,-29.78 142.06,-21.55 142.15,-32.15 148.74,-29.78"/>
</a>
</g>
</g>
<!-- Node9 -->
<g id="Node000009" class="node">
<title>Node9</title>
<g id="a_Node000009"><a xlink:title=" ">
<polygon fill="#e0e0e0" stroke="#999999" points="331,-20 288,-20 288,0 331,0 331,-20"/>
<text xml:space="preserve" text-anchor="middle" x="309.5" y="-6.5" font-family="Helvetica,sans-Serif" font-size="10.00">vector</text>
</a>
</g>
</g>
<!-- Node5&#45;&gt;Node9 -->
<g id="edge13_Node000005_Node000009" class="edge">
<title>Node5&#45;&gt;Node9</title>
<g id="a_edge13_Node000005_Node000009"><a xlink:title=" ">
<path fill="none" stroke="#63b8ff" d="M259.16,-167.83C266.67,-158.13 275.79,-144.98 281.5,-132 296.21,-98.55 303.72,-56.37 307.11,-31.67"/>
<polygon fill="#63b8ff" stroke="#63b8ff" points="310.55,-32.35 308.33,-21.98 303.61,-31.47 310.55,-32.35"/>
</a>
</g>
</g>
<!-- Node5&#45;&gt;Node10 -->
<g id="edge9_Node000005_Node000010" class="edge">
<title>Node5&#45;&gt;Node10</title>
<g id="a_edge9_Node000005_Node000010"><a xlink:title=" ">
<path fill="none" stroke="#63b8ff" d="M282.3,-167.55C304.22,-158.09 332.04,-146.08 353.27,-136.91"/>
<polygon fill="#63b8ff" stroke="#63b8ff" points="354.52,-140.18 362.32,-133.01 351.75,-133.76 354.52,-140.18"/>
</a>
</g>
</g>
<!-- Node11 -->
<g id="Node000011" class="node">
<title>Node11</title>
<g id="a_Node000011"><a xlink:title=" ">
<polygon fill="#e0e0e0" stroke="#999999" points="272.12,-132 220.88,-132 220.88,-112 272.12,-112 272.12,-132"/>
<text xml:space="preserve" text-anchor="middle" x="246.5" y="-118.5" font-family="Helvetica,sans-Serif" font-size="10.00">memory</text>
</a>
</g>
</g>
<!-- Node5&#45;&gt;Node11 -->
<g id="edge11_Node000005_Node000011" class="edge">
<title>Node5&#45;&gt;Node11</title>
<g id="a_edge11_Node000005_Node000011"><a xlink:title=" ">
<path fill="none" stroke="#63b8ff" d="M246.5,-167.55C246.5,-160.34 246.5,-151.66 246.5,-143.88"/>
<polygon fill="#63b8ff" stroke="#63b8ff" points="250,-143.92 246.5,-133.92 243,-143.92 250,-143.92"/>
</a>
</g>
</g>
<!-- Node7 -->
<g id="Node000007" class="node">
<title>Node7</title>
<g id="a_Node000007"><a xlink:title=" ">
<polygon fill="#e0e0e0" stroke="#999999" points="270.12,-20 176.88,-20 176.88,0 270.12,0 270.12,-20"/>
<text xml:space="preserve" text-anchor="middle" x="223.5" y="-6.5" font-family="Helvetica,sans-Serif" font-size="10.00">opencv2/core.hpp</text>
</a>
</g>
</g>
<!-- Node6&#45;&gt;Node7 -->
<g id="edge6_Node000006_Node000007" class="edge">
<title>Node6&#45;&gt;Node7</title>
<g id="a_edge6_Node000006_Node000007"><a xlink:title=" ">
<path fill="none" stroke="#63b8ff" d="M223.5,-55.59C223.5,-49.01 223.5,-39.96 223.5,-31.73"/>
<polygon fill="#63b8ff" stroke="#63b8ff" points="227,-31.81 223.5,-21.81 220,-31.81 227,-31.81"/>
</a>
</g>
</g>
<!-- Node6&#45;&gt;Node8 -->
<g id="edge7_Node000006_Node000008" class="edge">
<title>Node6&#45;&gt;Node8</title>
<g id="a_edge7_Node000006_Node000008"><a xlink:title=" ">
<path fill="none" stroke="#63b8ff" d="M208.69,-55.59C196.1,-47.59 177.75,-35.93 162.97,-26.54"/>
<polygon fill="#63b8ff" stroke="#63b8ff" points="165.02,-23.7 154.7,-21.29 161.26,-29.61 165.02,-23.7"/>
</a>
</g>
</g>
<!-- Node6&#45;&gt;Node9 -->
<g id="edge8_Node000006_Node000009" class="edge">
<title>Node6&#45;&gt;Node9</title>
<g id="a_edge8_Node000006_Node000009"><a xlink:title=" ">
<path fill="none" stroke="#63b8ff" d="M238.48,-55.59C251.23,-47.59 269.79,-35.93 284.74,-26.54"/>
<polygon fill="#63b8ff" stroke="#63b8ff" points="286.51,-29.57 293.12,-21.28 282.79,-23.64 286.51,-29.57"/>
</a>
</g>
</g>
<!-- Node10&#45;&gt;Node6 -->
<g id="edge10_Node000010_Node000006" class="edge">
<title>Node10&#45;&gt;Node6</title>
<g id="a_edge10_Node000010_Node000006"><a xlink:title=" ">
<path fill="none" stroke="#63b8ff" d="M357.28,-111.59C331.08,-102.86 291.82,-89.77 262.6,-80.03"/>
<polygon fill="#63b8ff" stroke="#63b8ff" points="263.97,-76.8 253.37,-76.96 261.75,-83.44 263.97,-76.8"/>
</a>
</g>
</g>
</g>
</svg>
