<?xml version="1.0" encoding="UTF-8" standalone="no"?>
<!DOCTYPE svg PUBLIC "-//W3C//DTD SVG 1.1//EN"
 "http://www.w3.org/Graphics/SVG/1.1/DTD/svg11.dtd">
<!-- Generated by graphviz version 15.1.0 (20260618.0150)
 -->
<!-- Title: RobotKinematics::PresetJsonLoader Pages: 1 -->
<svg width="147pt" height="88pt"
 viewBox="0.00 0.00 147.00 88.00" xmlns="http://www.w3.org/2000/svg" xmlns:xlink="http://www.w3.org/1999/xlink">
<g id="graph0" class="graph" transform="scale(1 1) rotate(0) translate(4 84)">
<title>RobotKinematics::PresetJsonLoader</title>
<!-- Node1 -->
<g id="Node000001" class="node">
<title>Node1</title>
<g id="a_Node000001"><a xlink:title=" ">
<polygon fill="#999999" stroke="none" points="138.5,-80 0,-80 0,0 138.5,0 138.5,-80"/>
<text xml:space="preserve" text-anchor="start" x="4" y="-66.25" font-family="Helvetica,sans-Serif" font-size="10.00">RobotKinematics::PresetJson</text>
<text xml:space="preserve" text-anchor="start" x="54.62" y="-54.25" font-family="Helvetica,sans-Serif" font-size="10.00">Loader</text>
<text xml:space="preserve" text-anchor="start" x="67.75" y="-38.25" font-family="Helvetica,sans-Serif" font-size="10.00"> </text>
<text xml:space="preserve" text-anchor="start" x="22.88" y="-22.25" font-family="Helvetica,sans-Serif" font-size="10.00">+</text>
<text xml:space="preserve" text-anchor="start" x="51.75" y="-22.25" font-family="Helvetica,sans-Serif" font-size="10.00">loadFile()</text>
<text xml:space="preserve" text-anchor="start" x="22.88" y="-6.25" font-family="Helvetica,sans-Serif" font-size="10.00">+</text>
<text xml:space="preserve" text-anchor="start" x="51.75" y="-6.25" font-family="Helvetica,sans-Serif" font-size="10.00">loadJson()</text>
<polygon fill="#666666" stroke="#666666" points="0,-50 0,-50 138.5,-50 138.5,-50 0,-50"/>
<polygon fill="#666666" stroke="#666666" points="0,-34 0,-34 138.5,-34 138.5,-34 0,-34"/>
<polygon fill="none" stroke="#666666" points="0,0 0,-80 138.5,-80 138.5,0 0,0"/>
</a>
</g>
</g>
</g>
</svg>
