<?xml version="1.0" encoding="UTF-8" standalone="no"?>
<!DOCTYPE svg PUBLIC "-//W3C//DTD SVG 1.1//EN"
 "http://www.w3.org/Graphics/SVG/1.1/DTD/svg11.dtd">
<!-- Generated by graphviz version 15.1.0 (20260618.0150)
 -->
<!-- Title: vc::device::VirtualCameraCfg Pages: 1 -->
<!--zoomable 1161 -->

<svg id="main" version="1.1" xmlns="http://www.w3.org/2000/svg" xmlns:xlink="http://www.w3.org/1999/xlink" xml:space="preserve" onload="init(evt)">

<style type="text/css"><![CDATA[
.node, .edge {opacity: 0.7;}
.node.selected, .edge.selected {opacity: 1;}
.edge:hover path { stroke: red; }
.edge:hover polygon { stroke: red; fill: red; }
]]></style>

<defs>
  <circle id="rim" cx="0" cy="0" r="7"/>
  <circle id="rim2" cx="0" cy="0" r="3.5"/>
  <g id="zoomPlus">
    <use xlink:href="#rim" fill="#404040"><set attributeName="fill" to="#808080" begin="zoomplus.mouseover" end="zoomplus.mouseout"/></use>
    <path d="M-4,0h8M0,-4v8" fill="none" stroke="white" stroke-width="1.5" pointer-events="none"/>
  </g>
  <g id="zoomMin">
    <use xlink:href="#rim" fill="#404040"><set attributeName="fill" to="#808080" begin="zoomminus.mouseover" end="zoomminus.mouseout"/></use>
    <path d="M-4,0h8" fill="none" stroke="white" stroke-width="1.5" pointer-events="none"/>
  </g>
  <g id="arrowUp" transform="translate(30 24)">
    <use xlink:href="#rim"/>
    <path pointer-events="none" fill="none" stroke="white" stroke-width="1.5" d="M0,-3.0v7 M-2.5,-0.5L0,-3.0L2.5,-0.5"/>
  </g>
  <g id="arrowRight" transform="rotate(90) translate(36 -43)">
    <use xlink:href="#rim"/>
    <path pointer-events="none" fill="none" stroke="white" stroke-width="1.5" d="M0,-3.0v7 M-2.5,-0.5L0,-3.0L2.5,-0.5"/>
  </g>
  <g id="arrowDown" transform="rotate(180) translate(-30 -48)">
    <use xlink:href="#rim"/>
    <path pointer-events="none" fill="none" stroke="white" stroke-width="1.5" d="M0,-3.0v7 M-2.5,-0.5L0,-3.0L2.5,-0.5"/>
  </g>
  <g id="arrowLeft" transform="rotate(270) translate(-36 17)">
    <use xlink:href="#rim"/>
    <path pointer-events="none" fill="none" stroke="white" stroke-width="1.5" d="M0,-3.0v7 M-2.5,-0.5L0,-3.0L2.5,-0.5"/>
  </g>
  <g id="resetDef">
    <use xlink:href="#rim2" fill="#404040"><set attributeName="fill" to="#808080" begin="reset.mouseover" end="reset.mouseout"/></use>
  </g>
</defs>
<script type="application/ecmascript">
var viewWidth = 331;
var viewHeight = 1161;
var sectionId = 'dynsection-1';
</script>
<script type="application/ecmascript" xlink:href="svg.min.js"/>
<svg id="graph" class="graph">
<g id="viewport">
<title>vc::device::VirtualCameraCfg</title>
<!-- Node1 -->
<g id="Node000001" class="node">
<title>Node1</title>
<g id="a_Node000001"><a xlink:title="Configuration for a camera with no hardware behind it.">
<polygon fill="#999999" stroke="none" points="160.5,-372 0,-372 0,0 160.5,0 160.5,-372"/>
<text xml:space="preserve" text-anchor="start" x="15.75" y="-358.25" font-family="Helvetica,sans-Serif" font-size="10.00">vc::device::VirtualCameraCfg</text>
<text xml:space="preserve" text-anchor="start" x="5.5" y="-342.25" font-family="Helvetica,sans-Serif" font-size="10.00">&#45;</text>
<text xml:space="preserve" text-anchor="start" x="14" y="-342.25" font-family="Helvetica,sans-Serif" font-size="10.00">m_autoBacklightControl</text>
<text xml:space="preserve" text-anchor="start" x="5.5" y="-326.25" font-family="Helvetica,sans-Serif" font-size="10.00">&#45;</text>
<text xml:space="preserve" text-anchor="start" x="14" y="-326.25" font-family="Helvetica,sans-Serif" font-size="10.00">m_enableAcquisitionFrameRate</text>
<text xml:space="preserve" text-anchor="start" x="5.5" y="-310.25" font-family="Helvetica,sans-Serif" font-size="10.00">&#45;</text>
<text xml:space="preserve" text-anchor="start" x="14" y="-310.25" font-family="Helvetica,sans-Serif" font-size="10.00">m_frameGreyLevel</text>
<text xml:space="preserve" text-anchor="start" x="5.5" y="-294.25" font-family="Helvetica,sans-Serif" font-size="10.00">&#45;</text>
<text xml:space="preserve" text-anchor="start" x="14" y="-294.25" font-family="Helvetica,sans-Serif" font-size="10.00">m_frameHeight</text>
<text xml:space="preserve" text-anchor="start" x="5.5" y="-278.25" font-family="Helvetica,sans-Serif" font-size="10.00">&#45;</text>
<text xml:space="preserve" text-anchor="start" x="14" y="-278.25" font-family="Helvetica,sans-Serif" font-size="10.00">m_frameWidth</text>
<text xml:space="preserve" text-anchor="start" x="5.5" y="-262.25" font-family="Helvetica,sans-Serif" font-size="10.00">&#45;</text>
<text xml:space="preserve" text-anchor="start" x="14" y="-262.25" font-family="Helvetica,sans-Serif" font-size="10.00">m_imagePath</text>
<text xml:space="preserve" text-anchor="start" x="5.5" y="-246.25" font-family="Helvetica,sans-Serif" font-size="10.00">&#45;</text>
<text xml:space="preserve" text-anchor="start" x="14" y="-246.25" font-family="Helvetica,sans-Serif" font-size="10.00">m_millimetresPerPixel</text>
<text xml:space="preserve" text-anchor="start" x="5.5" y="-230.25" font-family="Helvetica,sans-Serif" font-size="10.00">&#45;</text>
<text xml:space="preserve" text-anchor="start" x="14" y="-230.25" font-family="Helvetica,sans-Serif" font-size="10.00">m_originXMm</text>
<text xml:space="preserve" text-anchor="start" x="5.5" y="-214.25" font-family="Helvetica,sans-Serif" font-size="10.00">&#45;</text>
<text xml:space="preserve" text-anchor="start" x="14" y="-214.25" font-family="Helvetica,sans-Serif" font-size="10.00">m_originYMm</text>
<text xml:space="preserve" text-anchor="start" x="5.5" y="-198.25" font-family="Helvetica,sans-Serif" font-size="10.00">&#45;</text>
<text xml:space="preserve" text-anchor="start" x="14" y="-198.25" font-family="Helvetica,sans-Serif" font-size="10.00">m_paramsAcquisitionFrameRate</text>
<text xml:space="preserve" text-anchor="start" x="14" y="-182.25" font-family="Helvetica,sans-Serif" font-size="10.00">and 7 more...</text>
<text xml:space="preserve" text-anchor="start" x="4" y="-166.25" font-family="Helvetica,sans-Serif" font-size="10.00">+</text>
<text xml:space="preserve" text-anchor="start" x="14" y="-166.25" font-family="Helvetica,sans-Serif" font-size="10.00">acquisitionFrameRate()</text>
<text xml:space="preserve" text-anchor="start" x="4" y="-150.25" font-family="Helvetica,sans-Serif" font-size="10.00">+</text>
<text xml:space="preserve" text-anchor="start" x="14" y="-150.25" font-family="Helvetica,sans-Serif" font-size="10.00">cameraType()</text>
<text xml:space="preserve" text-anchor="start" x="4" y="-134.25" font-family="Helvetica,sans-Serif" font-size="10.00">+</text>
<text xml:space="preserve" text-anchor="start" x="14" y="-134.25" font-family="Helvetica,sans-Serif" font-size="10.00">clone()</text>
<text xml:space="preserve" text-anchor="start" x="4" y="-118.25" font-family="Helvetica,sans-Serif" font-size="10.00">+</text>
<text xml:space="preserve" text-anchor="start" x="14" y="-118.25" font-family="Helvetica,sans-Serif" font-size="10.00">deviceType()</text>
<text xml:space="preserve" text-anchor="start" x="4" y="-102.25" font-family="Helvetica,sans-Serif" font-size="10.00">+</text>
<text xml:space="preserve" text-anchor="start" x="14" y="-102.25" font-family="Helvetica,sans-Serif" font-size="10.00">enableBlackLightControl()</text>
<text xml:space="preserve" text-anchor="start" x="4" y="-86.25" font-family="Helvetica,sans-Serif" font-size="10.00">+</text>
<text xml:space="preserve" text-anchor="start" x="14" y="-86.25" font-family="Helvetica,sans-Serif" font-size="10.00">exposureTime()</text>
<text xml:space="preserve" text-anchor="start" x="4" y="-70.25" font-family="Helvetica,sans-Serif" font-size="10.00">+</text>
<text xml:space="preserve" text-anchor="start" x="14" y="-70.25" font-family="Helvetica,sans-Serif" font-size="10.00">exposureTimeLimit()</text>
<text xml:space="preserve" text-anchor="start" x="4" y="-54.25" font-family="Helvetica,sans-Serif" font-size="10.00">+</text>
<text xml:space="preserve" text-anchor="start" x="14" y="-54.25" font-family="Helvetica,sans-Serif" font-size="10.00">fromJson()</text>
<text xml:space="preserve" text-anchor="start" x="4" y="-38.25" font-family="Helvetica,sans-Serif" font-size="10.00">+</text>
<text xml:space="preserve" text-anchor="start" x="14" y="-38.25" font-family="Helvetica,sans-Serif" font-size="10.00">gain()</text>
<text xml:space="preserve" text-anchor="start" x="4" y="-22.25" font-family="Helvetica,sans-Serif" font-size="10.00">+</text>
<text xml:space="preserve" text-anchor="start" x="14" y="-22.25" font-family="Helvetica,sans-Serif" font-size="10.00">gainLimit()</text>
<text xml:space="preserve" text-anchor="start" x="14" y="-6.25" font-family="Helvetica,sans-Serif" font-size="10.00">and 8 more...</text>
<polygon fill="#666666" stroke="#666666" points="0,-354 0,-354 160.5,-354 160.5,-354 0,-354"/>
<polygon fill="#666666" stroke="#666666" points="0,-178 0,-178 12,-178 12,-178 0,-178"/>
<polygon fill="#666666" stroke="#666666" points="12,-178 12,-178 160.5,-178 160.5,-178 12,-178"/>
<polygon fill="none" stroke="#666666" points="0,0 0,-372 160.5,-372 160.5,0 0,0"/>
</a>
</g>
</g>
<!-- Node2 -->
<g id="Node000002" class="node">
<title>Node2</title>
<g id="a_Node000002"><a xlink:href="classvc_1_1device_1_1_camera_cfg.html" target="_top" xlink:title="Base configuration contract for a camera device: exposure/gain/frame&#45;rate parameters,...">
<polygon fill="white" stroke="none" points="145.12,-637 15.38,-637 15.38,-409 145.12,-409 145.12,-637"/>
<text xml:space="preserve" text-anchor="start" x="29.62" y="-623.25" font-family="Helvetica,sans-Serif" font-size="10.00">vc::device::CameraCfg</text>
<text xml:space="preserve" text-anchor="start" x="19.75" y="-607.25" font-family="Helvetica,sans-Serif" font-size="10.00">#</text>
<text xml:space="preserve" text-anchor="start" x="29.38" y="-607.25" font-family="Helvetica,sans-Serif" font-size="10.00">m_calibBoardPreset</text>
<text xml:space="preserve" text-anchor="start" x="19.75" y="-591.25" font-family="Helvetica,sans-Serif" font-size="10.00">#</text>
<text xml:space="preserve" text-anchor="start" x="29.38" y="-591.25" font-family="Helvetica,sans-Serif" font-size="10.00">m_calibThreshold</text>
<text xml:space="preserve" text-anchor="start" x="19.38" y="-575.25" font-family="Helvetica,sans-Serif" font-size="10.00">+</text>
<text xml:space="preserve" text-anchor="start" x="29.38" y="-575.25" font-family="Helvetica,sans-Serif" font-size="10.00">acquisitionFrameRate()</text>
<text xml:space="preserve" text-anchor="start" x="19.38" y="-559.25" font-family="Helvetica,sans-Serif" font-size="10.00">+</text>
<text xml:space="preserve" text-anchor="start" x="29.38" y="-559.25" font-family="Helvetica,sans-Serif" font-size="10.00">calibBoardPreset()</text>
<text xml:space="preserve" text-anchor="start" x="19.38" y="-543.25" font-family="Helvetica,sans-Serif" font-size="10.00">+</text>
<text xml:space="preserve" text-anchor="start" x="29.38" y="-543.25" font-family="Helvetica,sans-Serif" font-size="10.00">calibrator()</text>
<text xml:space="preserve" text-anchor="start" x="19.38" y="-527.25" font-family="Helvetica,sans-Serif" font-size="10.00">+</text>
<text xml:space="preserve" text-anchor="start" x="29.38" y="-527.25" font-family="Helvetica,sans-Serif" font-size="10.00">calibThreshold()</text>
<text xml:space="preserve" text-anchor="start" x="19.38" y="-511.25" font-family="Helvetica,sans-Serif" font-size="10.00">+</text>
<text xml:space="preserve" text-anchor="start" x="29.38" y="-511.25" font-family="Helvetica,sans-Serif" font-size="10.00">cameraType()</text>
<text xml:space="preserve" text-anchor="start" x="19.38" y="-495.25" font-family="Helvetica,sans-Serif" font-size="10.00">+</text>
<text xml:space="preserve" text-anchor="start" x="29.38" y="-495.25" font-family="Helvetica,sans-Serif" font-size="10.00">enableBlackLightControl()</text>
<text xml:space="preserve" text-anchor="start" x="19.38" y="-479.25" font-family="Helvetica,sans-Serif" font-size="10.00">+</text>
<text xml:space="preserve" text-anchor="start" x="29.38" y="-479.25" font-family="Helvetica,sans-Serif" font-size="10.00">exposureTime()</text>
<text xml:space="preserve" text-anchor="start" x="19.38" y="-463.25" font-family="Helvetica,sans-Serif" font-size="10.00">+</text>
<text xml:space="preserve" text-anchor="start" x="29.38" y="-463.25" font-family="Helvetica,sans-Serif" font-size="10.00">exposureTimeLimit()</text>
<text xml:space="preserve" text-anchor="start" x="19.38" y="-447.25" font-family="Helvetica,sans-Serif" font-size="10.00">+</text>
<text xml:space="preserve" text-anchor="start" x="29.38" y="-447.25" font-family="Helvetica,sans-Serif" font-size="10.00">fromJson()</text>
<text xml:space="preserve" text-anchor="start" x="19.38" y="-431.25" font-family="Helvetica,sans-Serif" font-size="10.00">+</text>
<text xml:space="preserve" text-anchor="start" x="29.38" y="-431.25" font-family="Helvetica,sans-Serif" font-size="10.00">gain()</text>
<text xml:space="preserve" text-anchor="start" x="29.38" y="-415.25" font-family="Helvetica,sans-Serif" font-size="10.00">and 10 more...</text>
<polygon fill="#666666" stroke="#666666" points="15.38,-619 15.38,-619 145.12,-619 145.12,-619 15.38,-619"/>
<polygon fill="#666666" stroke="#666666" points="15.38,-587 15.38,-587 27.38,-587 27.38,-587 15.38,-587"/>
<polygon fill="#666666" stroke="#666666" points="27.38,-587 27.38,-587 145.12,-587 145.12,-587 27.38,-587"/>
<polygon fill="none" stroke="#666666" points="15.38,-409 15.38,-637 145.12,-637 145.12,-409 15.38,-409"/>
</a>
</g>
</g>
<!-- Node2&#45;&gt;Node1 -->
<g id="edge1_Node000001_Node000002" class="edge">
<title>Node2&#45;&gt;Node1</title>
<g id="a_edge1_Node000001_Node000002"><a xlink:title=" ">
<path fill="none" stroke="#63b8ff" d="M80.25,-397.63C80.25,-389.17 80.25,-380.56 80.25,-371.89"/>
<polygon fill="none" stroke="#63b8ff" points="76.75,-397.54 80.25,-407.54 83.75,-397.54 76.75,-397.54"/>
</a>
</g>
</g>
<!-- Node3 -->
<g id="Node000003" class="node">
<title>Node3</title>
<g id="a_Node000003"><a xlink:href="classvc_1_1device_1_1_i_device_cfg.html" target="_top" xlink:title="Abstract configuration contract shared by every device family: JSON (de)serialization,...">
<polygon fill="white" stroke="none" points="118.5,-935 10,-935 10,-803 118.5,-803 118.5,-935"/>
<text xml:space="preserve" text-anchor="start" x="14" y="-921.25" font-family="Helvetica,sans-Serif" font-size="10.00">vc::device::IDeviceCfg</text>
<text xml:space="preserve" text-anchor="start" x="62.75" y="-905.25" font-family="Helvetica,sans-Serif" font-size="10.00"> </text>
<text xml:space="preserve" text-anchor="start" x="19.19" y="-889.25" font-family="Helvetica,sans-Serif" font-size="10.00">+</text>
<text xml:space="preserve" text-anchor="start" x="34.38" y="-889.25" font-family="Helvetica,sans-Serif" font-size="10.00">clone()</text>
<text xml:space="preserve" text-anchor="start" x="19.19" y="-873.25" font-family="Helvetica,sans-Serif" font-size="10.00">+</text>
<text xml:space="preserve" text-anchor="start" x="34.38" y="-873.25" font-family="Helvetica,sans-Serif" font-size="10.00">deviceType()</text>
<text xml:space="preserve" text-anchor="start" x="19.19" y="-857.25" font-family="Helvetica,sans-Serif" font-size="10.00">+</text>
<text xml:space="preserve" text-anchor="start" x="34.38" y="-857.25" font-family="Helvetica,sans-Serif" font-size="10.00">fromJson()</text>
<text xml:space="preserve" text-anchor="start" x="19.19" y="-841.25" font-family="Helvetica,sans-Serif" font-size="10.00">+</text>
<text xml:space="preserve" text-anchor="start" x="34.38" y="-841.25" font-family="Helvetica,sans-Serif" font-size="10.00">getMetaObject()</text>
<text xml:space="preserve" text-anchor="start" x="19.19" y="-825.25" font-family="Helvetica,sans-Serif" font-size="10.00">+</text>
<text xml:space="preserve" text-anchor="start" x="34.38" y="-825.25" font-family="Helvetica,sans-Serif" font-size="10.00">toJson()</text>
<text xml:space="preserve" text-anchor="start" x="19.19" y="-809.25" font-family="Helvetica,sans-Serif" font-size="10.00">+</text>
<text xml:space="preserve" text-anchor="start" x="34.38" y="-809.25" font-family="Helvetica,sans-Serif" font-size="10.00">~IDeviceCfg()</text>
<polygon fill="#666666" stroke="#666666" points="10,-917 10,-917 118.5,-917 118.5,-917 10,-917"/>
<polygon fill="#666666" stroke="#666666" points="10,-901 10,-901 118.5,-901 118.5,-901 10,-901"/>
<polygon fill="none" stroke="#666666" points="10,-803 10,-935 118.5,-935 118.5,-803 10,-803"/>
</a>
</g>
</g>
<!-- Node3&#45;&gt;Node2 -->
<g id="edge2_Node000002_Node000003" class="edge">
<title>Node3&#45;&gt;Node2</title>
<g id="a_edge2_Node000002_Node000003"><a xlink:title=" ">
<path fill="none" stroke="#63b8ff" d="M67.78,-792.02C69.9,-746.47 72.64,-687.72 75,-636.83"/>
<polygon fill="none" stroke="#63b8ff" points="64.3,-791.63 67.33,-801.78 71.29,-791.96 64.3,-791.63"/>
</a>
</g>
</g>
<!-- Node4 -->
<g id="Node000004" class="node">
<title>Node4</title>
<g id="a_Node000004"><a xlink:href="classcalib_1_1_calibrator.html" target="_top" xlink:title="Holds a planar 2D ↔ 3D calibration between the camera image and the robot world.">
<polygon fill="white" stroke="none" points="252.38,-1047 136.12,-1047 136.12,-691 252.38,-691 252.38,-1047"/>
<text xml:space="preserve" text-anchor="start" x="160.12" y="-1033.25" font-family="Helvetica,sans-Serif" font-size="10.00">calib::Calibrator</text>
<text xml:space="preserve" text-anchor="start" x="141.62" y="-1017.25" font-family="Helvetica,sans-Serif" font-size="10.00">&#45;</text>
<text xml:space="preserve" text-anchor="start" x="150.12" y="-1017.25" font-family="Helvetica,sans-Serif" font-size="10.00">m_calibrated</text>
<text xml:space="preserve" text-anchor="start" x="141.62" y="-1001.25" font-family="Helvetica,sans-Serif" font-size="10.00">&#45;</text>
<text xml:space="preserve" text-anchor="start" x="150.12" y="-1001.25" font-family="Helvetica,sans-Serif" font-size="10.00">m_H</text>
<text xml:space="preserve" text-anchor="start" x="141.62" y="-985.25" font-family="Helvetica,sans-Serif" font-size="10.00">&#45;</text>
<text xml:space="preserve" text-anchor="start" x="150.12" y="-985.25" font-family="Helvetica,sans-Serif" font-size="10.00">m_Hinv</text>
<text xml:space="preserve" text-anchor="start" x="141.62" y="-969.25" font-family="Helvetica,sans-Serif" font-size="10.00">&#45;</text>
<text xml:space="preserve" text-anchor="start" x="150.12" y="-969.25" font-family="Helvetica,sans-Serif" font-size="10.00">m_imgCentroid</text>
<text xml:space="preserve" text-anchor="start" x="141.62" y="-953.25" font-family="Helvetica,sans-Serif" font-size="10.00">&#45;</text>
<text xml:space="preserve" text-anchor="start" x="150.12" y="-953.25" font-family="Helvetica,sans-Serif" font-size="10.00">m_plane</text>
<text xml:space="preserve" text-anchor="start" x="141.62" y="-937.25" font-family="Helvetica,sans-Serif" font-size="10.00">&#45;</text>
<text xml:space="preserve" text-anchor="start" x="150.12" y="-937.25" font-family="Helvetica,sans-Serif" font-size="10.00">m_planeFitMaxErr</text>
<text xml:space="preserve" text-anchor="start" x="141.62" y="-921.25" font-family="Helvetica,sans-Serif" font-size="10.00">&#45;</text>
<text xml:space="preserve" text-anchor="start" x="150.12" y="-921.25" font-family="Helvetica,sans-Serif" font-size="10.00">m_reprojErrorMm</text>
<text xml:space="preserve" text-anchor="start" x="141.62" y="-905.25" font-family="Helvetica,sans-Serif" font-size="10.00">&#45;</text>
<text xml:space="preserve" text-anchor="start" x="150.12" y="-905.25" font-family="Helvetica,sans-Serif" font-size="10.00">m_reprojErrorPx</text>
<text xml:space="preserve" text-anchor="start" x="141.62" y="-889.25" font-family="Helvetica,sans-Serif" font-size="10.00">&#45;</text>
<text xml:space="preserve" text-anchor="start" x="150.12" y="-889.25" font-family="Helvetica,sans-Serif" font-size="10.00">m_robCentroid</text>
<text xml:space="preserve" text-anchor="start" x="140.12" y="-873.25" font-family="Helvetica,sans-Serif" font-size="10.00">+</text>
<text xml:space="preserve" text-anchor="start" x="150.12" y="-873.25" font-family="Helvetica,sans-Serif" font-size="10.00">addCorrespondences()</text>
<text xml:space="preserve" text-anchor="start" x="140.12" y="-857.25" font-family="Helvetica,sans-Serif" font-size="10.00">+</text>
<text xml:space="preserve" text-anchor="start" x="150.12" y="-857.25" font-family="Helvetica,sans-Serif" font-size="10.00">calibrate()</text>
<text xml:space="preserve" text-anchor="start" x="140.12" y="-841.25" font-family="Helvetica,sans-Serif" font-size="10.00">+</text>
<text xml:space="preserve" text-anchor="start" x="150.12" y="-841.25" font-family="Helvetica,sans-Serif" font-size="10.00">Calibrator()</text>
<text xml:space="preserve" text-anchor="start" x="140.12" y="-825.25" font-family="Helvetica,sans-Serif" font-size="10.00">+</text>
<text xml:space="preserve" text-anchor="start" x="150.12" y="-825.25" font-family="Helvetica,sans-Serif" font-size="10.00">clear()</text>
<text xml:space="preserve" text-anchor="start" x="140.12" y="-809.25" font-family="Helvetica,sans-Serif" font-size="10.00">+</text>
<text xml:space="preserve" text-anchor="start" x="150.12" y="-809.25" font-family="Helvetica,sans-Serif" font-size="10.00">fromJson()</text>
<text xml:space="preserve" text-anchor="start" x="140.12" y="-793.25" font-family="Helvetica,sans-Serif" font-size="10.00">+</text>
<text xml:space="preserve" text-anchor="start" x="150.12" y="-793.25" font-family="Helvetica,sans-Serif" font-size="10.00">getImagePts()</text>
<text xml:space="preserve" text-anchor="start" x="140.12" y="-777.25" font-family="Helvetica,sans-Serif" font-size="10.00">+</text>
<text xml:space="preserve" text-anchor="start" x="150.12" y="-777.25" font-family="Helvetica,sans-Serif" font-size="10.00">getRobotPts()</text>
<text xml:space="preserve" text-anchor="start" x="140.12" y="-761.25" font-family="Helvetica,sans-Serif" font-size="10.00">+</text>
<text xml:space="preserve" text-anchor="start" x="150.12" y="-761.25" font-family="Helvetica,sans-Serif" font-size="10.00">homography()</text>
<text xml:space="preserve" text-anchor="start" x="140.12" y="-745.25" font-family="Helvetica,sans-Serif" font-size="10.00">+</text>
<text xml:space="preserve" text-anchor="start" x="150.12" y="-745.25" font-family="Helvetica,sans-Serif" font-size="10.00">homographyInverse()</text>
<text xml:space="preserve" text-anchor="start" x="140.12" y="-729.25" font-family="Helvetica,sans-Serif" font-size="10.00">+</text>
<text xml:space="preserve" text-anchor="start" x="150.12" y="-729.25" font-family="Helvetica,sans-Serif" font-size="10.00">imageToRobot()</text>
<text xml:space="preserve" text-anchor="start" x="150.12" y="-713.25" font-family="Helvetica,sans-Serif" font-size="10.00">and 15 more...</text>
<text xml:space="preserve" text-anchor="start" x="141.62" y="-697.25" font-family="Helvetica,sans-Serif" font-size="10.00">&#45;</text>
<text xml:space="preserve" text-anchor="start" x="150.12" y="-697.25" font-family="Helvetica,sans-Serif" font-size="10.00">readFromStorage()</text>
<polygon fill="#666666" stroke="#666666" points="136.12,-1029 136.12,-1029 252.38,-1029 252.38,-1029 136.12,-1029"/>
<polygon fill="#666666" stroke="#666666" points="136.12,-885 136.12,-885 148.12,-885 148.12,-885 136.12,-885"/>
<polygon fill="#666666" stroke="#666666" points="148.12,-885 148.12,-885 252.38,-885 252.38,-885 148.12,-885"/>
<polygon fill="none" stroke="#666666" points="136.12,-691 136.12,-1047 252.38,-1047 252.38,-691 136.12,-691"/>
</a>
</g>
</g>
<!-- Node4&#45;&gt;Node2 -->
<g id="edge3_Node000002_Node000004" class="edge">
<title>Node4&#45;&gt;Node2</title>
<g id="a_edge3_Node000002_Node000004"><a xlink:title=" ">
<path fill="none" stroke="#63b8ff" d="M136.16,-692.72C131.23,-677.83 126.3,-662.96 121.54,-648.58"/>
<polygon fill="none" stroke="#63b8ff" points="121.63,-648.87 115.95,-644.43 117.86,-637.48 123.54,-641.91 121.63,-648.87"/>
</a>
</g>
<text xml:space="preserve" text-anchor="start" x="130.04" y="-660.25" font-family="Helvetica,sans-Serif" font-size="10.00" fill="grey">#m_calibrator</text>
</g>
<!-- Node5 -->
<g id="Node000005" class="node">
<title>Node5</title>
<g id="a_Node000005"><a xlink:title=" ">
<polygon fill="#fff0f0" stroke="none" points="185.12,-1153 65.38,-1153 65.38,-1101 185.12,-1101 185.12,-1153"/>
<text xml:space="preserve" text-anchor="start" x="69.38" y="-1139.25" font-family="Helvetica,sans-Serif" font-size="10.00">std::vector&lt; cv::Point2f &gt;</text>
<text xml:space="preserve" text-anchor="start" x="84.88" y="-1123.25" font-family="Helvetica,sans-Serif" font-size="10.00">+</text>
<text xml:space="preserve" text-anchor="start" x="110.38" y="-1123.25" font-family="Helvetica,sans-Serif" font-size="10.00">elements</text>
<text xml:space="preserve" text-anchor="start" x="123.75" y="-1107.25" font-family="Helvetica,sans-Serif" font-size="10.00"> </text>
<polygon fill="red" stroke="red" points="65.38,-1135 65.38,-1135 185.12,-1135 185.12,-1135 65.38,-1135"/>
<polygon fill="red" stroke="red" points="65.38,-1119 65.38,-1119 108.38,-1119 108.38,-1119 65.38,-1119"/>
<polygon fill="red" stroke="red" points="108.38,-1119 108.38,-1119 185.12,-1119 185.12,-1119 108.38,-1119"/>
<polygon fill="none" stroke="red" points="65.38,-1101 65.38,-1153 185.12,-1153 185.12,-1101 65.38,-1101"/>
</a>
</g>
</g>
<!-- Node5&#45;&gt;Node4 -->
<g id="edge4_Node000004_Node000005" class="edge">
<title>Node5&#45;&gt;Node4</title>
<g id="a_edge4_Node000004_Node000005"><a xlink:title=" ">
<path fill="none" stroke="#63b8ff" d="M131.87,-1101.45C134.93,-1090.07 138.88,-1075.44 143.29,-1059.06"/>
<polygon fill="none" stroke="#63b8ff" points="143.23,-1059.3 140.93,-1052.47 146.35,-1047.71 148.65,-1054.55 143.23,-1059.3"/>
</a>
</g>
<text xml:space="preserve" text-anchor="start" x="143.15" y="-1070.25" font-family="Helvetica,sans-Serif" font-size="10.00" fill="grey">&#45;m_imagePts</text>
</g>
<!-- Node8 -->
<g id="Node000008" class="node">
<title>Node8</title>
<g id="a_Node000008"><a xlink:title=" ">
<polygon fill="#fff0f0" stroke="none" points="323.12,-1153 203.38,-1153 203.38,-1101 323.12,-1101 323.12,-1153"/>
<text xml:space="preserve" text-anchor="start" x="207.38" y="-1139.25" font-family="Helvetica,sans-Serif" font-size="10.00">std::vector&lt; cv::Point3f &gt;</text>
<text xml:space="preserve" text-anchor="start" x="222.88" y="-1123.25" font-family="Helvetica,sans-Serif" font-size="10.00">+</text>
<text xml:space="preserve" text-anchor="start" x="248.38" y="-1123.25" font-family="Helvetica,sans-Serif" font-size="10.00">elements</text>
<text xml:space="preserve" text-anchor="start" x="261.75" y="-1107.25" font-family="Helvetica,sans-Serif" font-size="10.00"> </text>
<polygon fill="red" stroke="red" points="203.38,-1135 203.38,-1135 323.12,-1135 323.12,-1135 203.38,-1135"/>
<polygon fill="red" stroke="red" points="203.38,-1119 203.38,-1119 246.38,-1119 246.38,-1119 203.38,-1119"/>
<polygon fill="red" stroke="red" points="246.38,-1119 246.38,-1119 323.12,-1119 323.12,-1119 246.38,-1119"/>
<polygon fill="none" stroke="red" points="203.38,-1101 203.38,-1153 323.12,-1153 323.12,-1101 203.38,-1101"/>
</a>
</g>
</g>
<!-- Node8&#45;&gt;Node4 -->
<g id="edge5_Node000004_Node000008" class="edge">
<title>Node8&#45;&gt;Node4</title>
<g id="a_edge5_Node000004_Node000008"><a xlink:title=" ">
<path fill="none" stroke="#63b8ff" d="M256.63,-1101.45C253.57,-1090.07 249.62,-1075.44 245.21,-1059.06"/>
<polygon fill="none" stroke="#63b8ff" points="245.27,-1059.3 239.85,-1054.55 242.15,-1047.71 247.57,-1052.47 245.27,-1059.3"/>
</a>
</g>
<text xml:space="preserve" text-anchor="start" x="253.05" y="-1070.25" font-family="Helvetica,sans-Serif" font-size="10.00" fill="grey">&#45;m_robotPts</text>
</g>
</g>
</svg>

<g id="navigator" transform="translate(0 0)" fill="#404254">
  <rect fill="#f2f5e9" fill-opacity="0.5" stroke="#606060" stroke-width=".5" x="0" y="0" width="60" height="60"/>
  <use id="zoomplus" xlink:href="#zoomPlus" x="17" y="9" onmousedown="handleZoom(evt,'in')"/>
  <use id="zoomminus" xlink:href="#zoomMin" x="42" y="9" onmousedown="handleZoom(evt,'out')"/>
  <use id="reset" xlink:href="#resetDef" x="30" y="36" onmousedown="handleReset()"/>
   <use id="arrowup" xlink:href="#arrowUp" x="0" y="0" onmousedown="handlePan(0,-1)"/>
  <use id="arrowright" xlink:href="#arrowRight" x="0" y="0" onmousedown="handlePan(1,0)"/>
  <use id="arrowdown" xlink:href="#arrowDown" x="0" y="0" onmousedown="handlePan(0,1)"/>
  <use id="arrowleft" xlink:href="#arrowLeft" x="0" y="0" onmousedown="handlePan(-1,0)"/>
</g>
<svg viewBox="0 0 15 15" width="100%" height="30px" preserveAspectRatio="xMaxYMin meet">
 <g id="arrow_out" transform="scale(0.3 0.3)">
  <a xlink:href="classvc_1_1device_1_1_virtual_camera_cfg__coll__graph_org.svg" target="_base">
   <rect id="button" ry="5" rx="5" y="6" x="6" height="38" width="38"
        fill="#f2f5e9" fill-opacity="0.5" stroke="#606060" stroke-width="1.0"/>
   <path id="arrow"
     d="M 11.500037,31.436501 C 11.940474,20.09759 22.043105,11.32322 32.158766,21.979434 L 37.068811,17.246167 C 37.068811,17.246167 37.088388,32 37.088388,32 L 22.160133,31.978069 C 22.160133,31.978069 26.997745,27.140456 26.997745,27.140456 C 18.528582,18.264221 13.291696,25.230495 11.500037,31.436501 z"
     style="fill:#404040;"/>
  </a>
 </g>
</svg>

<style type='text/css'>
<![CDATA[
[data-mouse-over-selected='false'] { opacity: 0.7; }
[data-mouse-over-selected='true']  { opacity: 1.0; }
]]>
</style>
<script type="application/ecmascript"><![CDATA[
document.addEventListener('DOMContentLoaded', (event) => {
  highlightEdges();
  highlightAdjacentNodes();
});
]]></script>
</svg>
