<?xml version="1.0" encoding="UTF-8" standalone="no"?>
<!DOCTYPE svg PUBLIC "-//W3C//DTD SVG 1.1//EN"
 "http://www.w3.org/Graphics/SVG/1.1/DTD/svg11.dtd">
<!-- Generated by graphviz version 15.1.0 (20260618.0150)
 -->
<!-- Title: Graphical Class Hierarchy Pages: 1 -->
<svg width="228pt" height="572pt"
 viewBox="0.00 0.00 228.00 572.00" xmlns="http://www.w3.org/2000/svg" xmlns:xlink="http://www.w3.org/1999/xlink">
<g id="graph0" class="graph" transform="scale(1 1) rotate(0) translate(4 568)">
<title>Graphical Class Hierarchy</title>
<!-- Node0 -->
<g id="Node000000" class="node">
<title>Node0</title>
<g id="a_Node000000"><a xlink:title=" ">
<polygon fill="#e0e0e0" stroke="#999999" points="51.25,-298 0,-298 0,-278 51.25,-278 51.25,-298"/>
<text xml:space="preserve" text-anchor="middle" x="25.62" y="-284.5" font-family="Helvetica,sans-Serif" font-size="10.00">QDialog</text>
</a>
</g>
</g>
<!-- Node1 -->
<g id="Node000001" class="node">
<title>Node1</title>
<g id="a_Node000001"><a xlink:href="class_add_device_wizard.html" target="_top" xlink:title="Modal wizard dialog for adding a new device (Camera, PLC, or VisionOutput) to a DeviceManager.">
<polygon fill="white" stroke="#666666" points="201.12,-564 106.38,-564 106.38,-544 201.12,-544 201.12,-564"/>
<text xml:space="preserve" text-anchor="middle" x="153.75" y="-550.5" font-family="Helvetica,sans-Serif" font-size="10.00">AddDeviceWizard</text>
</a>
</g>
</g>
<!-- Node0&#45;&gt;Node1 -->
<g id="edge6_Node000000_Node000001" class="edge">
<title>Node0&#45;&gt;Node1</title>
<g id="a_edge6_Node000000_Node000001"><a xlink:title=" ">
<path fill="none" stroke="#63b8ff" d="M29.15,-309.57C35.88,-363.52 55.91,-502.33 87.25,-535 92.41,-540.38 99,-544.27 106,-547.06"/>
<polygon fill="#63b8ff" stroke="#63b8ff" points="32.65,-309.34 27.97,-299.83 25.7,-310.18 32.65,-309.34"/>
</a>
</g>
</g>
<!-- Node2 -->
<g id="Node000002" class="node">
<title>Node2</title>
<g id="a_Node000002"><a xlink:href="class_add_group_dialog.html" target="_top" xlink:title="Modal dialog for creating/editing a pattern group&#39;s name and activation index (1&#45;32),...">
<polygon fill="white" stroke="#666666" points="197.38,-526 110.12,-526 110.12,-506 197.38,-506 197.38,-526"/>
<text xml:space="preserve" text-anchor="middle" x="153.75" y="-512.5" font-family="Helvetica,sans-Serif" font-size="10.00">AddGroupDialog</text>
</a>
</g>
</g>
<!-- Node0&#45;&gt;Node2 -->
<g id="edge7_Node000000_Node000002" class="edge">
<title>Node0&#45;&gt;Node2</title>
<g id="a_edge7_Node000000_Node000002"><a xlink:title=" ">
<path fill="none" stroke="#63b8ff" d="M26.45,-309.76C27.34,-351.93 35.44,-445.19 87.25,-497 93.45,-503.2 101.53,-507.4 109.9,-510.24"/>
<polygon fill="#63b8ff" stroke="#63b8ff" points="29.95,-309.9 26.38,-299.93 22.95,-309.95 29.95,-309.9"/>
</a>
</g>
</g>
<!-- Node3 -->
<g id="Node000003" class="node">
<title>Node3</title>
<g id="a_Node000003"><a xlink:href="class_add_pattern_dialog.html" target="_top" xlink:title="Modal dialog for creating/editing a pattern&#39;s name and activation index (1&#45;4), validating both fields...">
<polygon fill="white" stroke="#666666" points="200,-488 107.5,-488 107.5,-468 200,-468 200,-488"/>
<text xml:space="preserve" text-anchor="middle" x="153.75" y="-474.5" font-family="Helvetica,sans-Serif" font-size="10.00">AddPatternDialog</text>
</a>
</g>
</g>
<!-- Node0&#45;&gt;Node3 -->
<g id="edge8_Node000000_Node000003" class="edge">
<title>Node0&#45;&gt;Node3</title>
<g id="a_edge8_Node000000_Node000003"><a xlink:title=" ">
<path fill="none" stroke="#63b8ff" d="M28.08,-309.27C31.69,-345.31 44.21,-418.4 87.25,-459 92.85,-464.28 99.83,-468.1 107.12,-470.87"/>
<polygon fill="#63b8ff" stroke="#63b8ff" points="31.6,-309.36 27.26,-299.69 24.62,-309.95 31.6,-309.36"/>
</a>
</g>
</g>
<!-- Node4 -->
<g id="Node000004" class="node">
<title>Node4</title>
<g id="a_Node000004"><a xlink:href="class_add_pattern_image_dialog.html" target="_top" xlink:title="Modal dialog for building a single pattern image: the user either triggers a camera capture (requestI...">
<polygon fill="white" stroke="#666666" points="213.5,-450 94,-450 94,-430 213.5,-430 213.5,-450"/>
<text xml:space="preserve" text-anchor="middle" x="153.75" y="-436.5" font-family="Helvetica,sans-Serif" font-size="10.00">AddPatternImageDialog</text>
</a>
</g>
</g>
<!-- Node0&#45;&gt;Node4 -->
<g id="edge9_Node000000_Node000004" class="edge">
<title>Node0&#45;&gt;Node4</title>
<g id="a_edge9_Node000000_Node000004"><a xlink:title=" ">
<path fill="none" stroke="#63b8ff" d="M30.6,-309.48C37.18,-338.92 53.15,-391.53 87.25,-421 91.28,-424.48 95.92,-427.33 100.83,-429.66"/>
<polygon fill="#63b8ff" stroke="#63b8ff" points="34.08,-308.99 28.64,-299.89 27.22,-310.39 34.08,-308.99"/>
</a>
</g>
</g>
<!-- Node5 -->
<g id="Node000005" class="node">
<title>Node5</title>
<g id="a_Node000005"><a xlink:href="class_add_pattern_wizard.html" target="_top" xlink:title="6&#45;step modal dialog reimplementation of PatternWizard.jsx: Image (capture from camera or open file + ...">
<polygon fill="white" stroke="#666666" points="201.5,-412 106,-412 106,-392 201.5,-392 201.5,-412"/>
<text xml:space="preserve" text-anchor="middle" x="153.75" y="-398.5" font-family="Helvetica,sans-Serif" font-size="10.00">AddPatternWizard</text>
</a>
</g>
</g>
<!-- Node0&#45;&gt;Node5 -->
<g id="edge10_Node000000_Node000005" class="edge">
<title>Node0&#45;&gt;Node5</title>
<g id="a_edge10_Node000000_Node000005"><a xlink:title=" ">
<path fill="none" stroke="#63b8ff" d="M34.6,-308.7C43.99,-330.36 61.63,-363.82 87.25,-383 92.75,-387.12 99.12,-390.34 105.68,-392.87"/>
<polygon fill="#63b8ff" stroke="#63b8ff" points="37.95,-307.64 30.92,-299.72 31.48,-310.3 37.95,-307.64"/>
</a>
</g>
</g>
<!-- Node6 -->
<g id="Node000006" class="node">
<title>Node6</title>
<g id="a_Node000006"><a xlink:href="class_admin_login_dialog.html" target="_top" xlink:title="Modal password prompt that elevates vc::auth::AccessControl to Admin.">
<polygon fill="white" stroke="#666666" points="201.12,-374 106.38,-374 106.38,-354 201.12,-354 201.12,-374"/>
<text xml:space="preserve" text-anchor="middle" x="153.75" y="-360.5" font-family="Helvetica,sans-Serif" font-size="10.00">AdminLoginDialog</text>
</a>
</g>
</g>
<!-- Node0&#45;&gt;Node6 -->
<g id="edge11_Node000000_Node000006" class="edge">
<title>Node0&#45;&gt;Node6</title>
<g id="a_edge11_Node000000_Node000006"><a xlink:title=" ">
<path fill="none" stroke="#63b8ff" d="M42.26,-306.76C53.57,-319.24 69.88,-335.09 87.25,-345 93.21,-348.4 99.84,-351.24 106.52,-353.59"/>
<polygon fill="#63b8ff" stroke="#63b8ff" points="45.17,-304.77 35.95,-299.55 39.9,-309.38 45.17,-304.77"/>
</a>
</g>
</g>
<!-- Node7 -->
<g id="Node000007" class="node">
<title>Node7</title>
<g id="a_Node000007"><a xlink:href="class_basler_cam_select_dialog.html" target="_top" xlink:title="Modal dialog that lists reachable Basler GigE cameras (queried asynchronously via GetDevicesWorker) i...">
<polygon fill="white" stroke="#666666" points="213.88,-336 93.62,-336 93.62,-316 213.88,-316 213.88,-336"/>
<text xml:space="preserve" text-anchor="middle" x="153.75" y="-322.5" font-family="Helvetica,sans-Serif" font-size="10.00">BaslerCamSelectDialog</text>
</a>
</g>
</g>
<!-- Node0&#45;&gt;Node7 -->
<g id="edge12_Node000000_Node000007" class="edge">
<title>Node0&#45;&gt;Node7</title>
<g id="a_edge12_Node000000_Node000007"><a xlink:title=" ">
<path fill="none" stroke="#63b8ff" d="M62.39,-299.35C70.55,-301.9 79.19,-304.57 87.25,-307 96.66,-309.84 106.85,-312.83 116.33,-315.59"/>
<polygon fill="#63b8ff" stroke="#63b8ff" points="63.69,-296.09 53.1,-296.43 61.6,-302.77 63.69,-296.09"/>
</a>
</g>
</g>
<!-- Node8 -->
<g id="Node000008" class="node">
<title>Node8</title>
<g id="a_Node000008"><a xlink:href="class_calibration_board_dialog.html" target="_top" xlink:title="Small modal dialog that lets the user pick a calibration board from the presets registered in calib::...">
<polygon fill="white" stroke="#666666" points="211.62,-298 95.88,-298 95.88,-278 211.62,-278 211.62,-298"/>
<text xml:space="preserve" text-anchor="middle" x="153.75" y="-284.5" font-family="Helvetica,sans-Serif" font-size="10.00">CalibrationBoardDialog</text>
</a>
</g>
</g>
<!-- Node0&#45;&gt;Node8 -->
<g id="edge13_Node000000_Node000008" class="edge">
<title>Node0&#45;&gt;Node8</title>
<g id="a_edge13_Node000000_Node000008"><a xlink:title=" ">
<path fill="none" stroke="#63b8ff" d="M62.9,-288C73.09,-288 84.43,-288 95.52,-288"/>
<polygon fill="#63b8ff" stroke="#63b8ff" points="63.06,-284.5 53.06,-288 63.06,-291.5 63.06,-284.5"/>
</a>
</g>
</g>
<!-- Node9 -->
<g id="Node000009" class="node">
<title>Node9</title>
<g id="a_Node000009"><a xlink:href="class_calibration_threshold_dialog.html" target="_top" xlink:title="Modal dialog that tunes the calibration&#45;board binarization threshold on a live camera frame....">
<polygon fill="white" stroke="#666666" points="220.25,-260 87.25,-260 87.25,-240 220.25,-240 220.25,-260"/>
<text xml:space="preserve" text-anchor="middle" x="153.75" y="-246.5" font-family="Helvetica,sans-Serif" font-size="10.00">CalibrationThresholdDialog</text>
</a>
</g>
</g>
<!-- Node0&#45;&gt;Node9 -->
<g id="edge14_Node000000_Node000009" class="edge">
<title>Node0&#45;&gt;Node9</title>
<g id="a_edge14_Node000000_Node000009"><a xlink:title=" ">
<path fill="none" stroke="#63b8ff" d="M62.39,-276.65C70.55,-274.1 79.19,-271.43 87.25,-269 96.66,-266.16 106.85,-263.17 116.33,-260.41"/>
<polygon fill="#63b8ff" stroke="#63b8ff" points="61.6,-273.23 53.1,-279.57 63.69,-279.91 61.6,-273.23"/>
</a>
</g>
</g>
<!-- Node10 -->
<g id="Node000010" class="node">
<title>Node10</title>
<g id="a_Node000010"><a xlink:href="class_edit_pattern_wizard.html" target="_top" xlink:title="5&#45;step modal dialog reimplementation of EditPatternWizard.jsx for editing an already&#45;learned pattern.">
<polygon fill="white" stroke="#666666" points="201.5,-222 106,-222 106,-202 201.5,-202 201.5,-222"/>
<text xml:space="preserve" text-anchor="middle" x="153.75" y="-208.5" font-family="Helvetica,sans-Serif" font-size="10.00">EditPatternWizard</text>
</a>
</g>
</g>
<!-- Node0&#45;&gt;Node10 -->
<g id="edge15_Node000000_Node000010" class="edge">
<title>Node0&#45;&gt;Node10</title>
<g id="a_edge15_Node000000_Node000010"><a xlink:title=" ">
<path fill="none" stroke="#63b8ff" d="M42.26,-269.24C53.57,-256.76 69.88,-240.91 87.25,-231 93.21,-227.6 99.84,-224.76 106.52,-222.41"/>
<polygon fill="#63b8ff" stroke="#63b8ff" points="39.9,-266.62 35.95,-276.45 45.17,-271.23 39.9,-266.62"/>
</a>
</g>
</g>
<!-- Node11 -->
<g id="Node000011" class="node">
<title>Node11</title>
<g id="a_Node000011"><a xlink:href="class_gripper_register_dialog.html" target="_top" xlink:title="Modal table editor for vc::model::GripperPresetStore: add, edit and remove named gripper geometries.">
<polygon fill="white" stroke="#666666" points="209.75,-184 97.75,-184 97.75,-164 209.75,-164 209.75,-184"/>
<text xml:space="preserve" text-anchor="middle" x="153.75" y="-170.5" font-family="Helvetica,sans-Serif" font-size="10.00">GripperRegisterDialog</text>
</a>
</g>
</g>
<!-- Node0&#45;&gt;Node11 -->
<g id="edge16_Node000000_Node000011" class="edge">
<title>Node0&#45;&gt;Node11</title>
<g id="a_edge16_Node000000_Node000011"><a xlink:title=" ">
<path fill="none" stroke="#63b8ff" d="M34.6,-267.3C43.99,-245.64 61.63,-212.18 87.25,-193 91.89,-189.52 97.16,-186.68 102.64,-184.36"/>
<polygon fill="#63b8ff" stroke="#63b8ff" points="31.48,-265.7 30.92,-276.28 37.95,-268.36 31.48,-265.7"/>
</a>
</g>
</g>
<!-- Node12 -->
<g id="Node000012" class="node">
<title>Node12</title>
<g id="a_Node000012"><a xlink:href="class_new_project_dialog.html" target="_top" xlink:title="Modal dialog that collects a name and description for a new project; on success the values are read b...">
<polygon fill="white" stroke="#666666" points="201.12,-146 106.38,-146 106.38,-126 201.12,-126 201.12,-146"/>
<text xml:space="preserve" text-anchor="middle" x="153.75" y="-132.5" font-family="Helvetica,sans-Serif" font-size="10.00">NewProjectDialog</text>
</a>
</g>
</g>
<!-- Node0&#45;&gt;Node12 -->
<g id="edge17_Node000000_Node000012" class="edge">
<title>Node0&#45;&gt;Node12</title>
<g id="a_edge17_Node000000_Node000012"><a xlink:title=" ">
<path fill="none" stroke="#63b8ff" d="M30.6,-266.52C37.18,-237.08 53.15,-184.47 87.25,-155 92.71,-150.28 99.29,-146.73 106.15,-144.06"/>
<polygon fill="#63b8ff" stroke="#63b8ff" points="27.22,-265.61 28.64,-276.11 34.08,-267.01 27.22,-265.61"/>
</a>
</g>
</g>
<!-- Node13 -->
<g id="Node000013" class="node">
<title>Node13</title>
<g id="a_Node000013"><a xlink:href="class_new_task_dialog.html" target="_top" xlink:title="Modal dialog that lets the user pick a save path (.vtask file) and name for a new task; the values ar...">
<polygon fill="white" stroke="#666666" points="196.25,-108 111.25,-108 111.25,-88 196.25,-88 196.25,-108"/>
<text xml:space="preserve" text-anchor="middle" x="153.75" y="-94.5" font-family="Helvetica,sans-Serif" font-size="10.00">NewTaskDialog</text>
</a>
</g>
</g>
<!-- Node0&#45;&gt;Node13 -->
<g id="edge18_Node000000_Node000013" class="edge">
<title>Node0&#45;&gt;Node13</title>
<g id="a_edge18_Node000000_Node000013"><a xlink:title=" ">
<path fill="none" stroke="#63b8ff" d="M28.08,-266.73C31.69,-230.69 44.21,-157.6 87.25,-117 93.8,-110.83 102.23,-106.64 110.85,-103.81"/>
<polygon fill="#63b8ff" stroke="#63b8ff" points="24.62,-266.05 27.26,-276.31 31.6,-266.64 24.62,-266.05"/>
</a>
</g>
</g>
<!-- Node14 -->
<g id="Node000014" class="node">
<title>Node14</title>
<g id="a_Node000014"><a xlink:href="class_workspace_setting_dialog.html" target="_top" xlink:title="Dialog for defining up to two axis&#45;aligned ROIs on one reference image: the working ROI (crop region,...">
<polygon fill="white" stroke="#666666" points="215.38,-70 92.12,-70 92.12,-50 215.38,-50 215.38,-70"/>
<text xml:space="preserve" text-anchor="middle" x="153.75" y="-56.5" font-family="Helvetica,sans-Serif" font-size="10.00">WorkspaceSettingDialog</text>
</a>
</g>
</g>
<!-- Node0&#45;&gt;Node14 -->
<g id="edge19_Node000000_Node000014" class="edge">
<title>Node0&#45;&gt;Node14</title>
<g id="a_edge19_Node000000_Node000014"><a xlink:title=" ">
<path fill="none" stroke="#63b8ff" d="M26.45,-266.24C27.34,-224.07 35.44,-130.81 87.25,-79 90.68,-75.57 94.7,-72.75 99.02,-70.43"/>
<polygon fill="#63b8ff" stroke="#63b8ff" points="22.95,-266.05 26.38,-276.07 29.95,-266.1 22.95,-266.05"/>
</a>
</g>
</g>
<!-- Node15 -->
<g id="Node000015" class="node">
<title>Node15</title>
<g id="a_Node000015"><a xlink:href="classvc_1_1widgets_1_1sm__internal_1_1_modify_value_dialog.html" target="_top" xlink:title=" ">
<polygon fill="white" stroke="#666666" points="215,-32 92.5,-32 92.5,0 215,0 215,-32"/>
<text xml:space="preserve" text-anchor="start" x="100.5" y="-18.5" font-family="Helvetica,sans-Serif" font-size="10.00">vc::widgets::sm_internal</text>
<text xml:space="preserve" text-anchor="middle" x="153.75" y="-6.5" font-family="Helvetica,sans-Serif" font-size="10.00">::ModifyValueDialog</text>
</a>
</g>
</g>
<!-- Node0&#45;&gt;Node15 -->
<g id="edge20_Node000000_Node000015" class="edge">
<title>Node0&#45;&gt;Node15</title>
<g id="a_edge20_Node000000_Node000015"><a xlink:title=" ">
<path fill="none" stroke="#63b8ff" d="M29.31,-266.58C36.42,-212.99 57.28,-74.93 87.25,-41 90.15,-37.72 93.53,-34.86 97.2,-32.38"/>
<polygon fill="#63b8ff" stroke="#63b8ff" points="25.87,-265.88 28.06,-276.25 32.82,-266.78 25.87,-265.88"/>
</a>
</g>
</g>
</g>
</svg>
