<?xml version="1.0" encoding="UTF-8" standalone="no"?>
<!DOCTYPE svg PUBLIC "-//W3C//DTD SVG 1.1//EN"
 "http://www.w3.org/Graphics/SVG/1.1/DTD/svg11.dtd">
<!-- Generated by graphviz version 15.1.0 (20260618.0150)
 -->
<!-- Title: C:/DGB/Project/computer&#45;vision&#45;app/src/ui/widgets/image_widget/item_picking_pos.h Pages: 1 -->
<svg width="396pt" height="108pt"
 viewBox="0.00 0.00 396.00 108.00" xmlns="http://www.w3.org/2000/svg" xmlns:xlink="http://www.w3.org/1999/xlink">

<svg id="main" version="1.1" xmlns="http://www.w3.org/2000/svg" xmlns:xlink="http://www.w3.org/1999/xlink" xml:space="preserve">

<style type="text/css"><![CDATA[
.node, .edge {opacity: 0.7;}
.node.selected, .edge.selected {opacity: 1;}
.edge:hover path { stroke: red; }
.edge:hover polygon { stroke: red; fill: red; }
]]></style>
<script type="application/ecmascript" xlink:href="svg.min.js"/>
<svg id="graph" class="graph">
<g id="graph0" class="graph" transform="scale(1 1) rotate(0) translate(4 104)">
<title>C:/DGB/Project/computer&#45;vision&#45;app/src/ui/widgets/image_widget/item_picking_pos.h</title>
<!-- Node1 -->
<g id="Node000001" class="node">
<title>Node1</title>
<g id="a_Node000001"><a xlink:title=" ">
<polygon fill="#999999" stroke="#666666" points="269,-100 103,-100 103,-56 269,-56 269,-100"/>
<text xml:space="preserve" text-anchor="start" x="111" y="-86.5" font-family="Helvetica,sans-Serif" font-size="10.00">C:/DGB/Project/computer</text>
<text xml:space="preserve" text-anchor="start" x="111" y="-74.5" font-family="Helvetica,sans-Serif" font-size="10.00">&#45;vision&#45;app/src/ui/widgets</text>
<text xml:space="preserve" text-anchor="middle" x="186" y="-62.5" font-family="Helvetica,sans-Serif" font-size="10.00">/image_widget/item_picking_pos.h</text>
</a>
</g>
</g>
<!-- Node2 -->
<g id="Node000002" class="node">
<title>Node2</title>
<g id="a_Node000002"><a xlink:title=" ">
<polygon fill="#e0e0e0" stroke="#999999" points="82,-20 0,-20 0,0 82,0 82,-20"/>
<text xml:space="preserve" text-anchor="middle" x="41" y="-6.5" font-family="Helvetica,sans-Serif" font-size="10.00">QGraphicsItem</text>
</a>
</g>
</g>
<!-- Node1&#45;&gt;Node2 -->
<g id="edge1_Node000001_Node000002" class="edge">
<title>Node1&#45;&gt;Node2</title>
<g id="a_edge1_Node000001_Node000002"><a xlink:title=" ">
<path fill="none" stroke="#63b8ff" d="M138.92,-55.57C116.98,-45.58 91.47,-33.97 71.99,-25.11"/>
<polygon fill="#63b8ff" stroke="#63b8ff" points="73.5,-21.95 62.95,-20.99 70.6,-28.32 73.5,-21.95"/>
</a>
</g>
</g>
<!-- Node3 -->
<g id="Node000003" class="node">
<title>Node3</title>
<g id="a_Node000003"><a xlink:title=" ">
<polygon fill="#e0e0e0" stroke="#999999" points="154.12,-20 99.88,-20 99.88,0 154.12,0 154.12,-20"/>
<text xml:space="preserve" text-anchor="middle" x="127" y="-6.5" font-family="Helvetica,sans-Serif" font-size="10.00">QPainter</text>
</a>
</g>
</g>
<!-- Node1&#45;&gt;Node3 -->
<g id="edge2_Node000001_Node000003" class="edge">
<title>Node1&#45;&gt;Node3</title>
<g id="a_edge2_Node000001_Node000003"><a xlink:title=" ">
<path fill="none" stroke="#63b8ff" d="M167.01,-55.75C159.27,-47.1 150.43,-37.21 143.03,-28.93"/>
<polygon fill="#63b8ff" stroke="#63b8ff" points="145.7,-26.67 136.43,-21.55 140.48,-31.34 145.7,-26.67"/>
</a>
</g>
</g>
<!-- Node4 -->
<g id="Node000004" class="node">
<title>Node4</title>
<g id="a_Node000004"><a xlink:title=" ">
<polygon fill="#e0e0e0" stroke="#999999" points="317.5,-20 172.5,-20 172.5,0 317.5,0 317.5,-20"/>
<text xml:space="preserve" text-anchor="middle" x="245" y="-6.5" font-family="Helvetica,sans-Serif" font-size="10.00">QGraphicsSceneMouseEvent</text>
</a>
</g>
</g>
<!-- Node1&#45;&gt;Node4 -->
<g id="edge3_Node000001_Node000004" class="edge">
<title>Node1&#45;&gt;Node4</title>
<g id="a_edge3_Node000001_Node000004"><a xlink:title=" ">
<path fill="none" stroke="#63b8ff" d="M204.99,-55.75C212.73,-47.1 221.57,-37.21 228.97,-28.93"/>
<polygon fill="#63b8ff" stroke="#63b8ff" points="231.52,-31.34 235.57,-21.55 226.3,-26.67 231.52,-31.34"/>
</a>
</g>
</g>
<!-- Node5 -->
<g id="Node000005" class="node">
<title>Node5</title>
<g id="a_Node000005"><a xlink:title=" ">
<polygon fill="#e0e0e0" stroke="#999999" points="388.38,-20 335.62,-20 335.62,0 388.38,0 388.38,-20"/>
<text xml:space="preserve" text-anchor="middle" x="362" y="-6.5" font-family="Helvetica,sans-Serif" font-size="10.00">QCursor</text>
</a>
</g>
</g>
<!-- Node1&#45;&gt;Node5 -->
<g id="edge4_Node000001_Node000005" class="edge">
<title>Node1&#45;&gt;Node5</title>
<g id="a_edge4_Node000001_Node000005"><a xlink:title=" ">
<path fill="none" stroke="#63b8ff" d="M243.14,-55.57C270.52,-45.3 302.47,-33.32 326.34,-24.37"/>
<polygon fill="#63b8ff" stroke="#63b8ff" points="327.47,-27.69 335.61,-20.9 325.02,-21.13 327.47,-27.69"/>
</a>
</g>
</g>
</g>
</svg>
</svg>

<style type='text/css'>
<![CDATA[
[data-mouse-over-selected='false'] { opacity: 0.7; }
[data-mouse-over-selected='true']  { opacity: 1.0; }
]]>
</style>
<script type="application/ecmascript"><![CDATA[
document.addEventListener('DOMContentLoaded', (event) => {
  highlightEdges();
  highlightAdjacentNodes();
});
]]></script>
</svg>
