<?xml version="1.0" encoding="UTF-8" standalone="no"?>
<!DOCTYPE svg PUBLIC "-//W3C//DTD SVG 1.1//EN"
 "http://www.w3.org/Graphics/SVG/1.1/DTD/svg11.dtd">
<!-- Generated by graphviz version 15.1.0 (20260618.0150)
 -->
<!-- Title: C:/DGB/Project/computer&#45;vision&#45;app/src/model/localization_signal_mapper.h Pages: 1 -->
<svg width="2139pt" height="300pt"
 viewBox="0.00 0.00 2139.00 300.00" xmlns="http://www.w3.org/2000/svg" xmlns:xlink="http://www.w3.org/1999/xlink">
<g id="graph0" class="graph" transform="scale(1 1) rotate(0) translate(4 296)">
<title>C:/DGB/Project/computer&#45;vision&#45;app/src/model/localization_signal_mapper.h</title>
<!-- Node1 -->
<g id="Node000001" class="node">
<title>Node1</title>
<g id="a_Node000001"><a xlink:title=" ">
<polygon fill="#999999" stroke="#666666" points="1471.88,-292 1327.62,-292 1327.62,-248 1471.88,-248 1471.88,-292"/>
<text xml:space="preserve" text-anchor="start" x="1335.62" y="-278.5" font-family="Helvetica,sans-Serif" font-size="10.00">C:/DGB/Project/computer</text>
<text xml:space="preserve" text-anchor="start" x="1335.62" y="-266.5" font-family="Helvetica,sans-Serif" font-size="10.00">&#45;vision&#45;app/src/model</text>
<text xml:space="preserve" text-anchor="middle" x="1399.75" y="-254.5" font-family="Helvetica,sans-Serif" font-size="10.00">/localization_signal_mapper.h</text>
</a>
</g>
</g>
<!-- Node2 -->
<g id="Node000002" class="node">
<title>Node2</title>
<g id="a_Node000002"><a xlink:title=" ">
<polygon fill="#e0e0e0" stroke="#999999" points="1875.38,-76 1836.12,-76 1836.12,-56 1875.38,-56 1875.38,-76"/>
<text xml:space="preserve" text-anchor="middle" x="1855.75" y="-62.5" font-family="Helvetica,sans-Serif" font-size="10.00">QList</text>
</a>
</g>
</g>
<!-- Node1&#45;&gt;Node2 -->
<g id="edge1_Node000001_Node000002" class="edge">
<title>Node1&#45;&gt;Node2</title>
<g id="a_edge1_Node000001_Node000002"><a xlink:title=" ">
<path fill="none" stroke="#63b8ff" d="M1472.31,-260.55C1592.4,-244.92 1824.1,-207.17 1872.75,-144 1885.56,-127.36 1876.92,-103.02 1867.93,-86.17"/>
<polygon fill="#63b8ff" stroke="#63b8ff" points="1871.02,-84.53 1862.96,-77.65 1864.97,-88.05 1871.02,-84.53"/>
</a>
</g>
</g>
<!-- Node3 -->
<g id="Node000003" class="node">
<title>Node3</title>
<g id="a_Node000003"><a xlink:title=" ">
<polygon fill="#e0e0e0" stroke="#999999" points="1935.88,-76 1893.62,-76 1893.62,-56 1935.88,-56 1935.88,-76"/>
<text xml:space="preserve" text-anchor="middle" x="1914.75" y="-62.5" font-family="Helvetica,sans-Serif" font-size="10.00">QMap</text>
</a>
</g>
</g>
<!-- Node1&#45;&gt;Node3 -->
<g id="edge2_Node000001_Node000003" class="edge">
<title>Node1&#45;&gt;Node3</title>
<g id="a_edge2_Node000001_Node000003"><a xlink:title=" ">
<path fill="none" stroke="#63b8ff" d="M1472.3,-268.05C1552.53,-264.83 1684.37,-253.01 1789.75,-212 1839.84,-192.51 1857.49,-186.99 1889.75,-144 1902.25,-127.34 1908.66,-104.16 1911.84,-87.59"/>
<polygon fill="#63b8ff" stroke="#63b8ff" points="1915.26,-88.36 1913.44,-77.93 1908.35,-87.22 1915.26,-88.36"/>
</a>
</g>
</g>
<!-- Node4 -->
<g id="Node000004" class="node">
<title>Node4</title>
<g id="a_Node000004"><a xlink:title=" ">
<polygon fill="#e0e0e0" stroke="#999999" points="962.25,-76 913.25,-76 913.25,-56 962.25,-56 962.25,-76"/>
<text xml:space="preserve" text-anchor="middle" x="937.75" y="-62.5" font-family="Helvetica,sans-Serif" font-size="10.00">QString</text>
</a>
</g>
</g>
<!-- Node1&#45;&gt;Node4 -->
<g id="edge3_Node000001_Node000004" class="edge">
<title>Node1&#45;&gt;Node4</title>
<g id="a_edge3_Node000001_Node000004"><a xlink:title=" ">
<path fill="none" stroke="#63b8ff" d="M1350.75,-247.57C1255.82,-206.07 1049.22,-115.74 969.77,-81"/>
<polygon fill="#63b8ff" stroke="#63b8ff" points="971.38,-77.88 960.81,-77.08 968.57,-84.3 971.38,-77.88"/>
</a>
</g>
</g>
<!-- Node5 -->
<g id="Node000005" class="node">
<title>Node5</title>
<g id="a_Node000005"><a xlink:title=" ">
<polygon fill="#e0e0e0" stroke="#999999" points="53.5,-76 0,-76 0,-56 53.5,-56 53.5,-76"/>
<text xml:space="preserve" text-anchor="middle" x="26.75" y="-62.5" font-family="Helvetica,sans-Serif" font-size="10.00">QVariant</text>
</a>
</g>
</g>
<!-- Node1&#45;&gt;Node5 -->
<g id="edge4_Node000001_Node000005" class="edge">
<title>Node1&#45;&gt;Node5</title>
<g id="a_edge4_Node000001_Node000005"><a xlink:title=" ">
<path fill="none" stroke="#63b8ff" d="M1327.24,-263.87C1153.8,-250.86 701.73,-212.68 329.75,-144 233.13,-126.16 121.64,-95.05 64.63,-78.35"/>
<polygon fill="#63b8ff" stroke="#63b8ff" points="65.68,-75.01 55.1,-75.55 63.7,-81.73 65.68,-75.01"/>
</a>
</g>
</g>
<!-- Node6 -->
<g id="Node000006" class="node">
<title>Node6</title>
<g id="a_Node000006"><a xlink:href="task__localization__config_8h.html" target="_top" xlink:title=" ">
<polygon fill="white" stroke="#666666" points="1458.75,-212 1340.75,-212 1340.75,-180 1458.75,-180 1458.75,-212"/>
<text xml:space="preserve" text-anchor="start" x="1348.75" y="-198.5" font-family="Helvetica,sans-Serif" font-size="10.00">model/task_localization</text>
<text xml:space="preserve" text-anchor="middle" x="1399.75" y="-186.5" font-family="Helvetica,sans-Serif" font-size="10.00">_config.h</text>
</a>
</g>
</g>
<!-- Node1&#45;&gt;Node6 -->
<g id="edge5_Node000001_Node000006" class="edge">
<title>Node1&#45;&gt;Node6</title>
<g id="a_edge5_Node000001_Node000006"><a xlink:title=" ">
<path fill="none" stroke="#63b8ff" d="M1399.75,-247.79C1399.75,-240.18 1399.75,-231.52 1399.75,-223.52"/>
<polygon fill="#63b8ff" stroke="#63b8ff" points="1403.25,-223.64 1399.75,-213.64 1396.25,-223.64 1403.25,-223.64"/>
</a>
</g>
</g>
<!-- Node7 -->
<g id="Node000007" class="node">
<title>Node7</title>
<g id="a_Node000007"><a xlink:title=" ">
<polygon fill="#e0e0e0" stroke="#999999" points="1707.38,-138 1632.12,-138 1632.12,-118 1707.38,-118 1707.38,-138"/>
<text xml:space="preserve" text-anchor="middle" x="1669.75" y="-124.5" font-family="Helvetica,sans-Serif" font-size="10.00">QSharedData</text>
</a>
</g>
</g>
<!-- Node6&#45;&gt;Node7 -->
<g id="edge6_Node000006_Node000007" class="edge">
<title>Node6&#45;&gt;Node7</title>
<g id="a_edge6_Node000006_Node000007"><a xlink:title=" ">
<path fill="none" stroke="#63b8ff" d="M1459.25,-182.82C1504.36,-173.23 1567.78,-159.03 1622.75,-144 1625.33,-143.29 1627.98,-142.54 1630.64,-141.75"/>
<polygon fill="#63b8ff" stroke="#63b8ff" points="1631.54,-145.14 1640.08,-138.87 1629.5,-138.44 1631.54,-145.14"/>
</a>
</g>
</g>
<!-- Node8 -->
<g id="Node000008" class="node">
<title>Node8</title>
<g id="a_Node000008"><a xlink:title=" ">
<polygon fill="#e0e0e0" stroke="#999999" points="1587.25,-76 1514.25,-76 1514.25,-56 1587.25,-56 1587.25,-76"/>
<text xml:space="preserve" text-anchor="middle" x="1550.75" y="-62.5" font-family="Helvetica,sans-Serif" font-size="10.00">QJsonObject</text>
</a>
</g>
</g>
<!-- Node6&#45;&gt;Node8 -->
<g id="edge7_Node000006_Node000008" class="edge">
<title>Node6&#45;&gt;Node8</title>
<g id="a_edge7_Node000006_Node000008"><a xlink:title=" ">
<path fill="none" stroke="#63b8ff" d="M1408.51,-179.56C1419.36,-161.51 1439.31,-131.63 1462.75,-112 1478.33,-98.95 1498.33,-88.35 1515.32,-80.72"/>
<polygon fill="#63b8ff" stroke="#63b8ff" points="1516.26,-84.12 1524.06,-76.95 1513.49,-77.7 1516.26,-84.12"/>
</a>
</g>
</g>
<!-- Node9 -->
<g id="Node000009" class="node">
<title>Node9</title>
<g id="a_Node000009"><a xlink:href="itask__config_8h.html" target="_top" xlink:title=" ">
<polygon fill="white" stroke="#666666" points="1236.75,-138 1130.75,-138 1130.75,-118 1236.75,-118 1236.75,-138"/>
<text xml:space="preserve" text-anchor="middle" x="1183.75" y="-124.5" font-family="Helvetica,sans-Serif" font-size="10.00">model/itask_config.h</text>
</a>
</g>
</g>
<!-- Node6&#45;&gt;Node9 -->
<g id="edge8_Node000006_Node000009" class="edge">
<title>Node6&#45;&gt;Node9</title>
<g id="a_edge8_Node000006_Node000009"><a xlink:title=" ">
<path fill="none" stroke="#63b8ff" d="M1349.11,-179.53C1311.53,-168.04 1260.89,-152.57 1225.6,-141.79"/>
<polygon fill="#63b8ff" stroke="#63b8ff" points="1226.74,-138.48 1216.16,-138.9 1224.7,-145.17 1226.74,-138.48"/>
</a>
</g>
</g>
<!-- Node16 -->
<g id="Node000016" class="node">
<title>Node16</title>
<g id="a_Node000016"><a xlink:href="task__device__binding_8h.html" target="_top" xlink:title=" ">
<polygon fill="white" stroke="#666666" points="1613.75,-138 1471.75,-138 1471.75,-118 1613.75,-118 1613.75,-138"/>
<text xml:space="preserve" text-anchor="middle" x="1542.75" y="-124.5" font-family="Helvetica,sans-Serif" font-size="10.00">model/task_device_binding.h</text>
</a>
</g>
</g>
<!-- Node6&#45;&gt;Node16 -->
<g id="edge12_Node000006_Node000016" class="edge">
<title>Node6&#45;&gt;Node16</title>
<g id="a_edge12_Node000006_Node000016"><a xlink:title=" ">
<path fill="none" stroke="#63b8ff" d="M1433.28,-179.53C1457.08,-168.54 1488.79,-153.9 1511.96,-143.21"/>
<polygon fill="#63b8ff" stroke="#63b8ff" points="1513.27,-146.46 1520.88,-139.09 1510.33,-140.11 1513.27,-146.46"/>
</a>
</g>
</g>
<!-- Node20 -->
<g id="Node000020" class="node">
<title>Node20</title>
<g id="a_Node000020"><a xlink:href="camera__workspace_8h.html" target="_top" xlink:title=" ">
<polygon fill="white" stroke="#666666" points="1863.88,-138 1725.62,-138 1725.62,-118 1863.88,-118 1863.88,-138"/>
<text xml:space="preserve" text-anchor="middle" x="1794.75" y="-124.5" font-family="Helvetica,sans-Serif" font-size="10.00">model/camera_workspace.h</text>
</a>
</g>
</g>
<!-- Node6&#45;&gt;Node20 -->
<g id="edge20_Node000006_Node000020" class="edge">
<title>Node6&#45;&gt;Node20</title>
<g id="a_edge20_Node000006_Node000020"><a xlink:title=" ">
<path fill="none" stroke="#63b8ff" d="M1459.14,-186C1522.91,-176.2 1627.14,-159.82 1716.75,-144 1723.01,-142.89 1729.55,-141.7 1736.06,-140.48"/>
<polygon fill="#63b8ff" stroke="#63b8ff" points="1736.28,-144.01 1745.45,-138.71 1734.98,-137.13 1736.28,-144.01"/>
</a>
</g>
</g>
<!-- Node23 -->
<g id="Node000023" class="node">
<title>Node23</title>
<g id="a_Node000023"><a xlink:href="pattern__group__manager_8h.html" target="_top" xlink:title=" ">
<polygon fill="white" stroke="#666666" points="1415.75,-144 1297.75,-144 1297.75,-112 1415.75,-112 1415.75,-144"/>
<text xml:space="preserve" text-anchor="start" x="1305.75" y="-130.5" font-family="Helvetica,sans-Serif" font-size="10.00">matching/pattern_group</text>
<text xml:space="preserve" text-anchor="middle" x="1356.75" y="-118.5" font-family="Helvetica,sans-Serif" font-size="10.00">_manager.h</text>
</a>
</g>
</g>
<!-- Node6&#45;&gt;Node23 -->
<g id="edge29_Node000006_Node000023" class="edge">
<title>Node6&#45;&gt;Node23</title>
<g id="a_edge29_Node000006_Node000023"><a xlink:title=" ">
<path fill="none" stroke="#63b8ff" d="M1389.78,-179.69C1384.73,-171.95 1378.48,-162.35 1372.78,-153.6"/>
<polygon fill="#63b8ff" stroke="#63b8ff" points="1375.89,-151.96 1367.5,-145.49 1370.02,-155.78 1375.89,-151.96"/>
</a>
</g>
</g>
<!-- Node38 -->
<g id="Node000038" class="node">
<title>Node38</title>
<g id="a_Node000038"><a xlink:href="qgadget__macro_8h.html" target="_top" xlink:title=" ">
<polygon fill="white" stroke="#666666" points="451.12,-138 338.38,-138 338.38,-118 451.12,-118 451.12,-138"/>
<text xml:space="preserve" text-anchor="middle" x="394.75" y="-124.5" font-family="Helvetica,sans-Serif" font-size="10.00">core/qgadget_macro.h</text>
</a>
</g>
</g>
<!-- Node6&#45;&gt;Node38 -->
<g id="edge40_Node000006_Node000038" class="edge">
<title>Node6&#45;&gt;Node38</title>
<g id="a_edge40_Node000006_Node000038"><a xlink:title=" ">
<path fill="none" stroke="#63b8ff" d="M1340.26,-191.09C1164.63,-179.56 648.99,-145.7 462.8,-133.47"/>
<polygon fill="#63b8ff" stroke="#63b8ff" points="463.26,-129.99 453.05,-132.83 462.8,-136.98 463.26,-129.99"/>
</a>
</g>
</g>
<!-- Node42 -->
<g id="Node000042" class="node">
<title>Node42</title>
<g id="a_Node000042"><a xlink:href="app__logger_8h.html" target="_top" xlink:title=" ">
<polygon fill="white" stroke="#666666" points="937,-138 814.5,-138 814.5,-118 937,-118 937,-138"/>
<text xml:space="preserve" text-anchor="middle" x="875.75" y="-124.5" font-family="Helvetica,sans-Serif" font-size="10.00">core/logger/app_logger.h</text>
</a>
</g>
</g>
<!-- Node6&#45;&gt;Node42 -->
<g id="edge49_Node000006_Node000042" class="edge">
<title>Node6&#45;&gt;Node42</title>
<g id="a_edge49_Node000006_Node000042"><a xlink:title=" ">
<path fill="none" stroke="#63b8ff" d="M1340.41,-187.53C1243.94,-175.38 1053.41,-151.38 948.78,-138.2"/>
<polygon fill="#63b8ff" stroke="#63b8ff" points="949.25,-134.73 938.89,-136.95 948.37,-141.68 949.25,-134.73"/>
</a>
</g>
</g>
<!-- Node9&#45;&gt;Node8 -->
<g id="edge10_Node000009_Node000008" class="edge">
<title>Node9&#45;&gt;Node8</title>
<g id="a_edge10_Node000009_Node000008"><a xlink:title=" ">
<path fill="none" stroke="#63b8ff" d="M1237.13,-119.22C1298.79,-110.08 1403.54,-94.1 1502.8,-76.48"/>
<polygon fill="#63b8ff" stroke="#63b8ff" points="1503.22,-79.96 1512.45,-74.75 1501.99,-73.07 1503.22,-79.96"/>
</a>
</g>
</g>
<!-- Node10 -->
<g id="Node000010" class="node">
<title>Node10</title>
<g id="a_Node000010"><a xlink:title=" ">
<polygon fill="#e0e0e0" stroke="#999999" points="1032.75,-76 980.75,-76 980.75,-56 1032.75,-56 1032.75,-76"/>
<text xml:space="preserve" text-anchor="middle" x="1006.75" y="-62.5" font-family="Helvetica,sans-Serif" font-size="10.00">QObject</text>
</a>
</g>
</g>
<!-- Node9&#45;&gt;Node10 -->
<g id="edge9_Node000009_Node000010" class="edge">
<title>Node9&#45;&gt;Node10</title>
<g id="a_edge9_Node000009_Node000010"><a xlink:title=" ">
<path fill="none" stroke="#63b8ff" d="M1156.09,-117.62C1125.87,-107.38 1077.29,-90.91 1043.79,-79.56"/>
<polygon fill="#63b8ff" stroke="#63b8ff" points="1045.09,-76.3 1034.49,-76.4 1042.84,-82.93 1045.09,-76.3"/>
</a>
</g>
</g>
<!-- Node11 -->
<g id="Node000011" class="node">
<title>Node11</title>
<g id="a_Node000011"><a xlink:href="task__define_8h.html" target="_top" xlink:title=" ">
<polygon fill="#fff0f0" stroke="red" points="1154.62,-76 1050.88,-76 1050.88,-56 1154.62,-56 1154.62,-76"/>
<text xml:space="preserve" text-anchor="middle" x="1102.75" y="-62.5" font-family="Helvetica,sans-Serif" font-size="10.00">model/task_define.h</text>
</a>
</g>
</g>
<!-- Node9&#45;&gt;Node11 -->
<g id="edge11_Node000009_Node000011" class="edge">
<title>Node9&#45;&gt;Node11</title>
<g id="a_edge11_Node000009_Node000011"><a xlink:title=" ">
<path fill="none" stroke="#63b8ff" d="M1171.09,-117.62C1158.61,-108.38 1139.29,-94.07 1124.37,-83.01"/>
<polygon fill="#63b8ff" stroke="#63b8ff" points="1126.65,-80.35 1116.53,-77.21 1122.49,-85.97 1126.65,-80.35"/>
</a>
</g>
</g>
<!-- Node16&#45;&gt;Node2 -->
<g id="edge16_Node000016_Node000002" class="edge">
<title>Node16&#45;&gt;Node2</title>
<g id="a_edge16_Node000016_Node000002"><a xlink:title=" ">
<path fill="none" stroke="#63b8ff" d="M1592.66,-117.56C1602.63,-115.69 1613.02,-113.77 1622.75,-112 1709.88,-96.14 1735.35,-97.55 1824.93,-76.18"/>
<polygon fill="#63b8ff" stroke="#63b8ff" points="1825.51,-79.64 1834.4,-73.89 1823.86,-72.84 1825.51,-79.64"/>
</a>
</g>
</g>
<!-- Node16&#45;&gt;Node3 -->
<g id="edge17_Node000016_Node000003" class="edge">
<title>Node16&#45;&gt;Node3</title>
<g id="a_edge17_Node000016_Node000003"><a xlink:title=" ">
<path fill="none" stroke="#63b8ff" d="M1590.91,-117.58C1601.39,-115.64 1612.43,-113.68 1622.75,-112 1735.26,-93.73 1767.93,-100.51 1882.27,-76.26"/>
<polygon fill="#63b8ff" stroke="#63b8ff" points="1882.71,-79.74 1891.74,-74.21 1881.23,-72.9 1882.71,-79.74"/>
</a>
</g>
</g>
<!-- Node16&#45;&gt;Node4 -->
<g id="edge18_Node000016_Node000004" class="edge">
<title>Node16&#45;&gt;Node4</title>
<g id="a_edge18_Node000016_Node000004"><a xlink:title=" ">
<path fill="none" stroke="#63b8ff" d="M1472.62,-117.53C1456.88,-115.56 1440.26,-113.6 1424.75,-112 1227.48,-91.63 1172.8,-109.31 973.66,-76"/>
<polygon fill="#63b8ff" stroke="#63b8ff" points="974.46,-72.58 964.01,-74.36 973.28,-79.48 974.46,-72.58"/>
</a>
</g>
</g>
<!-- Node16&#45;&gt;Node8 -->
<g id="edge14_Node000016_Node000008" class="edge">
<title>Node16&#45;&gt;Node8</title>
<g id="a_edge14_Node000016_Node000008"><a xlink:title=" ">
<path fill="none" stroke="#63b8ff" d="M1544,-117.62C1545.07,-109.56 1546.66,-97.65 1548.03,-87.41"/>
<polygon fill="#63b8ff" stroke="#63b8ff" points="1551.48,-87.99 1549.33,-77.61 1544.54,-87.06 1551.48,-87.99"/>
</a>
</g>
</g>
<!-- Node17 -->
<g id="Node000017" class="node">
<title>Node17</title>
<g id="a_Node000017"><a xlink:title=" ">
<polygon fill="#e0e0e0" stroke="#999999" points="1817.62,-76 1749.88,-76 1749.88,-56 1817.62,-56 1817.62,-76"/>
<text xml:space="preserve" text-anchor="middle" x="1783.75" y="-62.5" font-family="Helvetica,sans-Serif" font-size="10.00">QJsonArray</text>
</a>
</g>
</g>
<!-- Node16&#45;&gt;Node17 -->
<g id="edge13_Node000016_Node000017" class="edge">
<title>Node16&#45;&gt;Node17</title>
<g id="a_edge13_Node000016_Node000017"><a xlink:title=" ">
<path fill="none" stroke="#63b8ff" d="M1580.67,-117.56C1623.44,-106.91 1692.96,-89.6 1738.52,-78.26"/>
<polygon fill="#63b8ff" stroke="#63b8ff" points="1739.23,-81.69 1748.09,-75.88 1737.54,-74.9 1739.23,-81.69"/>
</a>
</g>
</g>
<!-- Node18 -->
<g id="Node000018" class="node">
<title>Node18</title>
<g id="a_Node000018"><a xlink:title=" ">
<polygon fill="#e0e0e0" stroke="#999999" points="1674,-76 1605.5,-76 1605.5,-56 1674,-56 1674,-76"/>
<text xml:space="preserve" text-anchor="middle" x="1639.75" y="-62.5" font-family="Helvetica,sans-Serif" font-size="10.00">QJsonValue</text>
</a>
</g>
</g>
<!-- Node16&#45;&gt;Node18 -->
<g id="edge15_Node000016_Node000018" class="edge">
<title>Node16&#45;&gt;Node18</title>
<g id="a_edge15_Node000016_Node000018"><a xlink:title=" ">
<path fill="none" stroke="#63b8ff" d="M1557.91,-117.62C1573.21,-108.16 1597.1,-93.38 1615.13,-82.23"/>
<polygon fill="#63b8ff" stroke="#63b8ff" points="1616.75,-85.34 1623.41,-77.11 1613.07,-79.39 1616.75,-85.34"/>
</a>
</g>
</g>
<!-- Node19 -->
<g id="Node000019" class="node">
<title>Node19</title>
<g id="a_Node000019"><a xlink:title=" ">
<polygon fill="#e0e0e0" stroke="#999999" points="1731.38,-76 1692.12,-76 1692.12,-56 1731.38,-56 1731.38,-76"/>
<text xml:space="preserve" text-anchor="middle" x="1711.75" y="-62.5" font-family="Helvetica,sans-Serif" font-size="10.00">utility</text>
</a>
</g>
</g>
<!-- Node16&#45;&gt;Node19 -->
<g id="edge19_Node000016_Node000019" class="edge">
<title>Node16&#45;&gt;Node19</title>
<g id="a_edge19_Node000016_Node000019"><a xlink:title=" ">
<path fill="none" stroke="#63b8ff" d="M1569.16,-117.62C1599.55,-106.83 1649.38,-89.14 1681.36,-77.79"/>
<polygon fill="#63b8ff" stroke="#63b8ff" points="1682.19,-81.21 1690.44,-74.57 1679.85,-74.61 1682.19,-81.21"/>
</a>
</g>
</g>
<!-- Node20&#45;&gt;Node2 -->
<g id="edge24_Node000020_Node000002" class="edge">
<title>Node20&#45;&gt;Node2</title>
<g id="a_edge24_Node000020_Node000002"><a xlink:title=" ">
<path fill="none" stroke="#63b8ff" d="M1804.28,-117.62C1813.38,-108.68 1827.29,-94.99 1838.36,-84.1"/>
<polygon fill="#63b8ff" stroke="#63b8ff" points="1840.73,-86.68 1845.41,-77.17 1835.82,-81.69 1840.73,-86.68"/>
</a>
</g>
</g>
<!-- Node20&#45;&gt;Node3 -->
<g id="edge25_Node000020_Node000003" class="edge">
<title>Node20&#45;&gt;Node3</title>
<g id="a_edge25_Node000020_Node000003"><a xlink:title=" ">
<path fill="none" stroke="#63b8ff" d="M1813.5,-117.62C1832.96,-107.89 1863.65,-92.55 1886.14,-81.31"/>
<polygon fill="#63b8ff" stroke="#63b8ff" points="1887.4,-84.59 1894.78,-76.99 1884.27,-78.33 1887.4,-84.59"/>
</a>
</g>
</g>
<!-- Node20&#45;&gt;Node4 -->
<g id="edge27_Node000020_Node000004" class="edge">
<title>Node20&#45;&gt;Node4</title>
<g id="a_edge27_Node000020_Node000004"><a xlink:title=" ">
<path fill="none" stroke="#63b8ff" d="M1751.6,-117.57C1740.31,-115.42 1728.11,-113.36 1716.75,-112 1391.3,-73.04 1301.36,-125.49 973.76,-75.93"/>
<polygon fill="#63b8ff" stroke="#63b8ff" points="974.42,-72.49 964,-74.43 973.35,-79.4 974.42,-72.49"/>
</a>
</g>
</g>
<!-- Node20&#45;&gt;Node8 -->
<g id="edge22_Node000020_Node000008" class="edge">
<title>Node20&#45;&gt;Node8</title>
<g id="a_edge22_Node000020_Node000008"><a xlink:title=" ">
<path fill="none" stroke="#63b8ff" d="M1756.36,-117.56C1713.71,-107.07 1644.79,-90.12 1598.64,-78.78"/>
<polygon fill="#63b8ff" stroke="#63b8ff" points="1599.74,-75.44 1589.19,-76.45 1598.07,-82.24 1599.74,-75.44"/>
</a>
</g>
</g>
<!-- Node20&#45;&gt;Node17 -->
<g id="edge21_Node000020_Node000017" class="edge">
<title>Node20&#45;&gt;Node17</title>
<g id="a_edge21_Node000020_Node000017"><a xlink:title=" ">
<path fill="none" stroke="#63b8ff" d="M1793.03,-117.62C1791.55,-109.56 1789.37,-97.65 1787.49,-87.41"/>
<polygon fill="#63b8ff" stroke="#63b8ff" points="1790.94,-86.81 1785.69,-77.6 1784.05,-88.07 1790.94,-86.81"/>
</a>
</g>
</g>
<!-- Node20&#45;&gt;Node18 -->
<g id="edge23_Node000020_Node000018" class="edge">
<title>Node20&#45;&gt;Node18</title>
<g id="a_edge23_Node000020_Node000018"><a xlink:title=" ">
<path fill="none" stroke="#63b8ff" d="M1770.53,-117.62C1744.79,-107.66 1703.84,-91.81 1674.62,-80.5"/>
<polygon fill="#63b8ff" stroke="#63b8ff" points="1676.05,-77.3 1665.47,-76.95 1673.53,-83.83 1676.05,-77.3"/>
</a>
</g>
</g>
<!-- Node21 -->
<g id="Node000021" class="node">
<title>Node21</title>
<g id="a_Node000021"><a xlink:title=" ">
<polygon fill="#e0e0e0" stroke="#999999" points="2019.88,-76 1953.62,-76 1953.62,-56 2019.88,-56 2019.88,-76"/>
<text xml:space="preserve" text-anchor="middle" x="1986.75" y="-62.5" font-family="Helvetica,sans-Serif" font-size="10.00">QMetaType</text>
</a>
</g>
</g>
<!-- Node20&#45;&gt;Node21 -->
<g id="edge26_Node000020_Node000021" class="edge">
<title>Node20&#45;&gt;Node21</title>
<g id="a_edge26_Node000020_Node000021"><a xlink:title=" ">
<path fill="none" stroke="#63b8ff" d="M1824.75,-117.62C1857.34,-107.44 1909.61,-91.11 1945.93,-79.76"/>
<polygon fill="#63b8ff" stroke="#63b8ff" points="1946.7,-83.18 1955.2,-76.86 1944.61,-76.5 1946.7,-83.18"/>
</a>
</g>
</g>
<!-- Node22 -->
<g id="Node000022" class="node">
<title>Node22</title>
<g id="a_Node000022"><a xlink:title=" ">
<polygon fill="#e0e0e0" stroke="#999999" points="2131.38,-76 2038.12,-76 2038.12,-56 2131.38,-56 2131.38,-76"/>
<text xml:space="preserve" text-anchor="middle" x="2084.75" y="-62.5" font-family="Helvetica,sans-Serif" font-size="10.00">opencv2/core.hpp</text>
</a>
</g>
</g>
<!-- Node20&#45;&gt;Node22 -->
<g id="edge28_Node000020_Node000022" class="edge">
<title>Node20&#45;&gt;Node22</title>
<g id="a_edge28_Node000020_Node000022"><a xlink:title=" ">
<path fill="none" stroke="#63b8ff" d="M1840.38,-117.56C1891.01,-107.08 1972.79,-90.16 2027.63,-78.82"/>
<polygon fill="#63b8ff" stroke="#63b8ff" points="2028.34,-82.25 2037.42,-76.79 2026.92,-75.39 2028.34,-82.25"/>
</a>
</g>
</g>
<!-- Node23&#45;&gt;Node2 -->
<g id="edge31_Node000023_Node000002" class="edge">
<title>Node23&#45;&gt;Node2</title>
<g id="a_edge31_Node000023_Node000002"><a xlink:title=" ">
<path fill="none" stroke="#63b8ff" d="M1416.12,-118.15C1431.3,-116.01 1447.62,-113.82 1462.75,-112 1620.53,-93.04 1665.41,-107.57 1824.75,-75.99"/>
<polygon fill="#63b8ff" stroke="#63b8ff" points="1825.32,-79.44 1834.44,-74.03 1823.94,-72.58 1825.32,-79.44"/>
</a>
</g>
</g>
<!-- Node23&#45;&gt;Node8 -->
<g id="edge35_Node000023_Node000008" class="edge">
<title>Node23&#45;&gt;Node8</title>
<g id="a_edge35_Node000023_Node000008"><a xlink:title=" ">
<path fill="none" stroke="#63b8ff" d="M1406.71,-111.55C1438.47,-101.73 1479.1,-89.16 1509.11,-79.88"/>
<polygon fill="#63b8ff" stroke="#63b8ff" points="1510.08,-83.24 1518.6,-76.94 1508.01,-76.55 1510.08,-83.24"/>
</a>
</g>
</g>
<!-- Node23&#45;&gt;Node10 -->
<g id="edge30_Node000023_Node000010" class="edge">
<title>Node23&#45;&gt;Node10</title>
<g id="a_edge30_Node000023_Node000010"><a xlink:title=" ">
<path fill="none" stroke="#63b8ff" d="M1297.53,-119.06C1236.41,-110.49 1138.12,-95.69 1044.2,-76.36"/>
<polygon fill="#63b8ff" stroke="#63b8ff" points="1045.05,-72.96 1034.54,-74.35 1043.62,-79.81 1045.05,-72.96"/>
</a>
</g>
</g>
<!-- Node23&#45;&gt;Node17 -->
<g id="edge34_Node000023_Node000017" class="edge">
<title>Node23&#45;&gt;Node17</title>
<g id="a_edge34_Node000023_Node000017"><a xlink:title=" ">
<path fill="none" stroke="#63b8ff" d="M1416.16,-118.47C1431.34,-116.32 1447.65,-114.05 1462.75,-112 1582.59,-95.76 1615.97,-96.7 1738.21,-76.32"/>
<polygon fill="#63b8ff" stroke="#63b8ff" points="1738.76,-79.78 1748.04,-74.66 1737.59,-72.87 1738.76,-79.78"/>
</a>
</g>
</g>
<!-- Node23&#45;&gt;Node18 -->
<g id="edge36_Node000023_Node000018" class="edge">
<title>Node23&#45;&gt;Node18</title>
<g id="a_edge36_Node000023_Node000018"><a xlink:title=" ">
<path fill="none" stroke="#63b8ff" d="M1416.08,-114.42C1469.19,-103.16 1545.95,-86.89 1594.33,-76.63"/>
<polygon fill="#63b8ff" stroke="#63b8ff" points="1594.85,-80.1 1603.91,-74.6 1593.4,-73.25 1594.85,-80.1"/>
</a>
</g>
</g>
<!-- Node24 -->
<g id="Node000024" class="node">
<title>Node24</title>
<g id="a_Node000024"><a xlink:title=" ">
<polygon fill="#e0e0e0" stroke="#999999" points="1389,-76 1308.5,-76 1308.5,-56 1389,-56 1389,-76"/>
<text xml:space="preserve" text-anchor="middle" x="1348.75" y="-62.5" font-family="Helvetica,sans-Serif" font-size="10.00">QMessageBox</text>
</a>
</g>
</g>
<!-- Node23&#45;&gt;Node24 -->
<g id="edge32_Node000023_Node000024" class="edge">
<title>Node23&#45;&gt;Node24</title>
<g id="a_edge32_Node000023_Node000024"><a xlink:title=" ">
<path fill="none" stroke="#63b8ff" d="M1354.69,-111.55C1353.72,-104.26 1352.54,-95.45 1351.5,-87.6"/>
<polygon fill="#63b8ff" stroke="#63b8ff" points="1355,-87.36 1350.2,-77.91 1348.06,-88.28 1355,-87.36"/>
</a>
</g>
</g>
<!-- Node25 -->
<g id="Node000025" class="node">
<title>Node25</title>
<g id="a_Node000025"><a xlink:title=" ">
<polygon fill="#e0e0e0" stroke="#999999" points="1496.5,-76 1407,-76 1407,-56 1496.5,-56 1496.5,-76"/>
<text xml:space="preserve" text-anchor="middle" x="1451.75" y="-62.5" font-family="Helvetica,sans-Serif" font-size="10.00">QJsonDocument</text>
</a>
</g>
</g>
<!-- Node23&#45;&gt;Node25 -->
<g id="edge33_Node000023_Node000025" class="edge">
<title>Node23&#45;&gt;Node25</title>
<g id="a_edge33_Node000023_Node000025"><a xlink:title=" ">
<path fill="none" stroke="#63b8ff" d="M1381.21,-111.55C1395.37,-102.61 1413.13,-91.39 1427.29,-82.45"/>
<polygon fill="#63b8ff" stroke="#63b8ff" points="1428.99,-85.52 1435.57,-77.22 1425.25,-79.6 1428.99,-85.52"/>
</a>
</g>
</g>
<!-- Node26 -->
<g id="Node000026" class="node">
<title>Node26</title>
<g id="a_Node000026"><a xlink:href="match__group_8h.html" target="_top" xlink:title=" ">
<polygon fill="#fff0f0" stroke="red" points="1253,-76 1172.5,-76 1172.5,-56 1253,-56 1253,-76"/>
<text xml:space="preserve" text-anchor="middle" x="1212.75" y="-62.5" font-family="Helvetica,sans-Serif" font-size="10.00">match_group.h</text>
</a>
</g>
</g>
<!-- Node23&#45;&gt;Node26 -->
<g id="edge37_Node000023_Node000026" class="edge">
<title>Node23&#45;&gt;Node26</title>
<g id="a_edge37_Node000023_Node000026"><a xlink:title=" ">
<path fill="none" stroke="#63b8ff" d="M1319.67,-111.55C1296.85,-102.04 1267.87,-89.97 1245.84,-80.79"/>
<polygon fill="#63b8ff" stroke="#63b8ff" points="1247.3,-77.61 1236.73,-76.99 1244.61,-84.07 1247.3,-77.61"/>
</a>
</g>
</g>
<!-- Node32 -->
<g id="Node000032" class="node">
<title>Node32</title>
<g id="a_Node000032"><a xlink:href="manager__result_8h.html" target="_top" xlink:title=" ">
<polygon fill="#fff0f0" stroke="red" points="1292.25,-20 1201.25,-20 1201.25,0 1292.25,0 1292.25,-20"/>
<text xml:space="preserve" text-anchor="middle" x="1246.75" y="-6.5" font-family="Helvetica,sans-Serif" font-size="10.00">manager_result.h</text>
</a>
</g>
</g>
<!-- Node23&#45;&gt;Node32 -->
<g id="edge39_Node000023_Node000032" class="edge">
<title>Node23&#45;&gt;Node32</title>
<g id="a_edge39_Node000023_Node000032"><a xlink:title=" ">
<path fill="none" stroke="#63b8ff" d="M1338.11,-111.62C1326.63,-101.84 1311.86,-88.67 1299.75,-76 1285.48,-61.07 1270.76,-42.73 1260.46,-29.34"/>
<polygon fill="#63b8ff" stroke="#63b8ff" points="1263.28,-27.26 1254.44,-21.41 1257.7,-31.49 1263.28,-27.26"/>
</a>
</g>
</g>
<!-- Node26&#45;&gt;Node32 -->
<g id="edge38_Node000026_Node000032" class="edge">
<title>Node26&#45;&gt;Node32</title>
<g id="a_edge38_Node000026_Node000032"><a xlink:title=" ">
<path fill="none" stroke="#63b8ff" d="M1218.67,-55.59C1223.11,-48.55 1229.33,-38.67 1234.79,-30"/>
<polygon fill="#63b8ff" stroke="#63b8ff" points="1237.72,-31.91 1240.09,-21.58 1231.8,-28.18 1237.72,-31.91"/>
</a>
</g>
</g>
<!-- Node38&#45;&gt;Node4 -->
<g id="edge43_Node000038_Node000004" class="edge">
<title>Node38&#45;&gt;Node4</title>
<g id="a_edge43_Node000038_Node000004"><a xlink:title=" ">
<path fill="none" stroke="#63b8ff" d="M451.41,-124.42C543.92,-119.54 733.23,-106.73 901.67,-76.31"/>
<polygon fill="#63b8ff" stroke="#63b8ff" points="902.29,-79.75 911.5,-74.5 901.03,-72.87 902.29,-79.75"/>
</a>
</g>
</g>
<!-- Node38&#45;&gt;Node5 -->
<g id="edge45_Node000038_Node000005" class="edge">
<title>Node38&#45;&gt;Node5</title>
<g id="a_edge45_Node000038_Node000005"><a xlink:title=" ">
<path fill="none" stroke="#63b8ff" d="M338.08,-119.92C274.09,-111.56 166.68,-96.45 64.91,-76.28"/>
<polygon fill="#63b8ff" stroke="#63b8ff" points="65.79,-72.88 55.3,-74.35 64.42,-79.75 65.79,-72.88"/>
</a>
</g>
</g>
<!-- Node13 -->
<g id="Node000013" class="node">
<title>Node13</title>
<g id="a_Node000013"><a xlink:title=" ">
<polygon fill="#e0e0e0" stroke="#999999" points="438,-76 351.5,-76 351.5,-56 438,-56 438,-76"/>
<text xml:space="preserve" text-anchor="middle" x="394.75" y="-62.5" font-family="Helvetica,sans-Serif" font-size="10.00">qtmetamacros.h</text>
</a>
</g>
</g>
<!-- Node38&#45;&gt;Node13 -->
<g id="edge41_Node000038_Node000013" class="edge">
<title>Node38&#45;&gt;Node13</title>
<g id="a_edge41_Node000038_Node000013"><a xlink:title=" ">
<path fill="none" stroke="#63b8ff" d="M394.75,-117.62C394.75,-109.56 394.75,-97.65 394.75,-87.41"/>
<polygon fill="#63b8ff" stroke="#63b8ff" points="398.25,-87.63 394.75,-77.63 391.25,-87.63 398.25,-87.63"/>
</a>
</g>
</g>
<!-- Node14 -->
<g id="Node000014" class="node">
<title>Node14</title>
<g id="a_Node000014"><a xlink:title=" ">
<polygon fill="#e0e0e0" stroke="#999999" points="509.12,-76 456.38,-76 456.38,-56 509.12,-56 509.12,-76"/>
<text xml:space="preserve" text-anchor="middle" x="482.75" y="-62.5" font-family="Helvetica,sans-Serif" font-size="10.00">QtTypes</text>
</a>
</g>
</g>
<!-- Node38&#45;&gt;Node14 -->
<g id="edge42_Node000038_Node000014" class="edge">
<title>Node38&#45;&gt;Node14</title>
<g id="a_edge42_Node000038_Node000014"><a xlink:title=" ">
<path fill="none" stroke="#63b8ff" d="M408.5,-117.62C422.19,-108.29 443.45,-93.79 459.72,-82.7"/>
<polygon fill="#63b8ff" stroke="#63b8ff" points="461.56,-85.69 467.85,-77.16 457.61,-79.9 461.56,-85.69"/>
</a>
</g>
</g>
<!-- Node39 -->
<g id="Node000039" class="node">
<title>Node39</title>
<g id="a_Node000039"><a xlink:title=" ">
<polygon fill="#e0e0e0" stroke="#999999" points="594.25,-76 527.25,-76 527.25,-56 594.25,-56 594.25,-76"/>
<text xml:space="preserve" text-anchor="middle" x="560.75" y="-62.5" font-family="Helvetica,sans-Serif" font-size="10.00">QByteArray</text>
</a>
</g>
</g>
<!-- Node38&#45;&gt;Node39 -->
<g id="edge44_Node000038_Node000039" class="edge">
<title>Node38&#45;&gt;Node39</title>
<g id="a_edge44_Node000038_Node000039"><a xlink:title=" ">
<path fill="none" stroke="#63b8ff" d="M420.69,-117.62C448.5,-107.57 492.89,-91.53 524.23,-80.2"/>
<polygon fill="#63b8ff" stroke="#63b8ff" points="525.08,-83.61 533.3,-76.92 522.7,-77.03 525.08,-83.61"/>
</a>
</g>
</g>
<!-- Node15 -->
<g id="Node000015" class="node">
<title>Node15</title>
<g id="a_Node000015"><a xlink:title=" ">
<polygon fill="#e0e0e0" stroke="#999999" points="142.12,-76 71.38,-76 71.38,-56 142.12,-56 142.12,-76"/>
<text xml:space="preserve" text-anchor="middle" x="106.75" y="-62.5" font-family="Helvetica,sans-Serif" font-size="10.00">QMetaEnum</text>
</a>
</g>
</g>
<!-- Node38&#45;&gt;Node15 -->
<g id="edge46_Node000038_Node000015" class="edge">
<title>Node38&#45;&gt;Node15</title>
<g id="a_edge46_Node000038_Node000015"><a xlink:title=" ">
<path fill="none" stroke="#63b8ff" d="M349.43,-117.56C295.9,-106.41 207.3,-87.95 153.25,-76.69"/>
<polygon fill="#63b8ff" stroke="#63b8ff" points="154.25,-73.32 143.75,-74.71 152.83,-80.17 154.25,-73.32"/>
</a>
</g>
</g>
<!-- Node40 -->
<g id="Node000040" class="node">
<title>Node40</title>
<g id="a_Node000040"><a xlink:title=" ">
<polygon fill="#e0e0e0" stroke="#999999" points="233.62,-76 159.88,-76 159.88,-56 233.62,-56 233.62,-76"/>
<text xml:space="preserve" text-anchor="middle" x="196.75" y="-62.5" font-family="Helvetica,sans-Serif" font-size="10.00">QMetaObject</text>
</a>
</g>
</g>
<!-- Node38&#45;&gt;Node40 -->
<g id="edge47_Node000038_Node000040" class="edge">
<title>Node38&#45;&gt;Node40</title>
<g id="a_edge47_Node000038_Node000040"><a xlink:title=" ">
<path fill="none" stroke="#63b8ff" d="M363.81,-117.62C330.06,-107.4 275.84,-90.97 238.37,-79.61"/>
<polygon fill="#63b8ff" stroke="#63b8ff" points="239.83,-76.4 229.24,-76.85 237.8,-83.1 239.83,-76.4"/>
</a>
</g>
</g>
<!-- Node41 -->
<g id="Node000041" class="node">
<title>Node41</title>
<g id="a_Node000041"><a xlink:title=" ">
<polygon fill="#e0e0e0" stroke="#999999" points="333.75,-76 251.75,-76 251.75,-56 333.75,-56 333.75,-76"/>
<text xml:space="preserve" text-anchor="middle" x="292.75" y="-62.5" font-family="Helvetica,sans-Serif" font-size="10.00">QMetaProperty</text>
</a>
</g>
</g>
<!-- Node38&#45;&gt;Node41 -->
<g id="edge48_Node000038_Node000041" class="edge">
<title>Node38&#45;&gt;Node41</title>
<g id="a_edge48_Node000038_Node000041"><a xlink:title=" ">
<path fill="none" stroke="#63b8ff" d="M378.81,-117.62C362.64,-108.11 337.36,-93.24 318.38,-82.08"/>
<polygon fill="#63b8ff" stroke="#63b8ff" points="320.27,-79.13 309.88,-77.08 316.72,-85.16 320.27,-79.13"/>
</a>
</g>
</g>
<!-- Node42&#45;&gt;Node4 -->
<g id="edge51_Node000042_Node000004" class="edge">
<title>Node42&#45;&gt;Node4</title>
<g id="a_edge51_Node000042_Node000004"><a xlink:title=" ">
<path fill="none" stroke="#63b8ff" d="M885.44,-117.62C894.68,-108.68 908.83,-94.99 920.08,-84.1"/>
<polygon fill="#63b8ff" stroke="#63b8ff" points="922.49,-86.63 927.25,-77.17 917.63,-81.6 922.49,-86.63"/>
</a>
</g>
</g>
<!-- Node42&#45;&gt;Node10 -->
<g id="edge50_Node000042_Node000010" class="edge">
<title>Node42&#45;&gt;Node10</title>
<g id="a_edge50_Node000042_Node000010"><a xlink:title=" ">
<path fill="none" stroke="#63b8ff" d="M896.22,-117.62C917.66,-107.81 951.57,-92.27 976.18,-81"/>
<polygon fill="#63b8ff" stroke="#63b8ff" points="977.41,-84.29 985.05,-76.94 974.5,-77.92 977.41,-84.29"/>
</a>
</g>
</g>
<!-- Node43 -->
<g id="Node000043" class="node">
<title>Node43</title>
<g id="a_Node000043"><a xlink:title=" ">
<polygon fill="#e0e0e0" stroke="#999999" points="769.88,-76 703.62,-76 703.62,-56 769.88,-56 769.88,-76"/>
<text xml:space="preserve" text-anchor="middle" x="736.75" y="-62.5" font-family="Helvetica,sans-Serif" font-size="10.00">QDateTime</text>
</a>
</g>
</g>
<!-- Node42&#45;&gt;Node43 -->
<g id="edge52_Node000042_Node000043" class="edge">
<title>Node42&#45;&gt;Node43</title>
<g id="a_edge52_Node000042_Node000043"><a xlink:title=" ">
<path fill="none" stroke="#63b8ff" d="M854.03,-117.62C831.18,-107.76 794.98,-92.13 768.84,-80.85"/>
<polygon fill="#63b8ff" stroke="#63b8ff" points="770.27,-77.66 759.71,-76.91 767.5,-84.09 770.27,-77.66"/>
</a>
</g>
</g>
<!-- Node44 -->
<g id="Node000044" class="node">
<title>Node44</title>
<g id="a_Node000044"><a xlink:title=" ">
<polygon fill="#e0e0e0" stroke="#999999" points="838,-76 787.5,-76 787.5,-56 838,-56 838,-76"/>
<text xml:space="preserve" text-anchor="middle" x="812.75" y="-62.5" font-family="Helvetica,sans-Serif" font-size="10.00">QMutex</text>
</a>
</g>
</g>
<!-- Node42&#45;&gt;Node44 -->
<g id="edge53_Node000042_Node000044" class="edge">
<title>Node42&#45;&gt;Node44</title>
<g id="a_edge53_Node000042_Node000044"><a xlink:title=" ">
<path fill="none" stroke="#63b8ff" d="M865.91,-117.62C856.42,-108.59 841.85,-94.72 830.37,-83.78"/>
<polygon fill="#63b8ff" stroke="#63b8ff" points="833.07,-81.52 823.41,-77.16 828.24,-86.59 833.07,-81.52"/>
</a>
</g>
</g>
<!-- Node45 -->
<g id="Node000045" class="node">
<title>Node45</title>
<g id="a_Node000045"><a xlink:title=" ">
<polygon fill="#e0e0e0" stroke="#999999" points="895.38,-76 856.12,-76 856.12,-56 895.38,-56 895.38,-76"/>
<text xml:space="preserve" text-anchor="middle" x="875.75" y="-62.5" font-family="Helvetica,sans-Serif" font-size="10.00">QFile</text>
</a>
</g>
</g>
<!-- Node42&#45;&gt;Node45 -->
<g id="edge54_Node000042_Node000045" class="edge">
<title>Node42&#45;&gt;Node45</title>
<g id="a_edge54_Node000042_Node000045"><a xlink:title=" ">
<path fill="none" stroke="#63b8ff" d="M875.75,-117.62C875.75,-109.56 875.75,-97.65 875.75,-87.41"/>
<polygon fill="#63b8ff" stroke="#63b8ff" points="879.25,-87.63 875.75,-77.63 872.25,-87.63 879.25,-87.63"/>
</a>
</g>
</g>
<!-- Node46 -->
<g id="Node000046" class="node">
<title>Node46</title>
<g id="a_Node000046"><a xlink:title=" ">
<polygon fill="#e0e0e0" stroke="#999999" points="685.62,-76 611.88,-76 611.88,-56 685.62,-56 685.62,-76"/>
<text xml:space="preserve" text-anchor="middle" x="648.75" y="-62.5" font-family="Helvetica,sans-Serif" font-size="10.00">QTextStream</text>
</a>
</g>
</g>
<!-- Node42&#45;&gt;Node46 -->
<g id="edge55_Node000042_Node000046" class="edge">
<title>Node42&#45;&gt;Node46</title>
<g id="a_edge55_Node000042_Node000046"><a xlink:title=" ">
<path fill="none" stroke="#63b8ff" d="M840.03,-117.56C801.06,-107.26 738.52,-90.73 695.63,-79.39"/>
<polygon fill="#63b8ff" stroke="#63b8ff" points="696.66,-76.04 686.1,-76.87 694.87,-82.81 696.66,-76.04"/>
</a>
</g>
</g>
</g>
</svg>
