<?xml version="1.0" encoding="UTF-8" standalone="no"?>
<!DOCTYPE svg PUBLIC "-//W3C//DTD SVG 1.1//EN"
 "http://www.w3.org/Graphics/SVG/1.1/DTD/svg11.dtd">
<!-- Generated by graphviz version 15.1.0 (20260618.0150)
 -->
<!-- Title: C:/DGB/Project/computer&#45;vision&#45;app/src/matching/match_group.cpp Pages: 1 -->
<!--zoomable 276 -->

<svg id="main" version="1.1" xmlns="http://www.w3.org/2000/svg" xmlns:xlink="http://www.w3.org/1999/xlink" xml:space="preserve" onload="init(evt)">

<style type="text/css"><![CDATA[
.node, .edge {opacity: 0.7;}
.node.selected, .edge.selected {opacity: 1;}
.edge:hover path { stroke: red; }
.edge:hover polygon { stroke: red; fill: red; }
]]></style>

<defs>
  <circle id="rim" cx="0" cy="0" r="7"/>
  <circle id="rim2" cx="0" cy="0" r="3.5"/>
  <g id="zoomPlus">
    <use xlink:href="#rim" fill="#404040"><set attributeName="fill" to="#808080" begin="zoomplus.mouseover" end="zoomplus.mouseout"/></use>
    <path d="M-4,0h8M0,-4v8" fill="none" stroke="white" stroke-width="1.5" pointer-events="none"/>
  </g>
  <g id="zoomMin">
    <use xlink:href="#rim" fill="#404040"><set attributeName="fill" to="#808080" begin="zoomminus.mouseover" end="zoomminus.mouseout"/></use>
    <path d="M-4,0h8" fill="none" stroke="white" stroke-width="1.5" pointer-events="none"/>
  </g>
  <g id="arrowUp" transform="translate(30 24)">
    <use xlink:href="#rim"/>
    <path pointer-events="none" fill="none" stroke="white" stroke-width="1.5" d="M0,-3.0v7 M-2.5,-0.5L0,-3.0L2.5,-0.5"/>
  </g>
  <g id="arrowRight" transform="rotate(90) translate(36 -43)">
    <use xlink:href="#rim"/>
    <path pointer-events="none" fill="none" stroke="white" stroke-width="1.5" d="M0,-3.0v7 M-2.5,-0.5L0,-3.0L2.5,-0.5"/>
  </g>
  <g id="arrowDown" transform="rotate(180) translate(-30 -48)">
    <use xlink:href="#rim"/>
    <path pointer-events="none" fill="none" stroke="white" stroke-width="1.5" d="M0,-3.0v7 M-2.5,-0.5L0,-3.0L2.5,-0.5"/>
  </g>
  <g id="arrowLeft" transform="rotate(270) translate(-36 17)">
    <use xlink:href="#rim"/>
    <path pointer-events="none" fill="none" stroke="white" stroke-width="1.5" d="M0,-3.0v7 M-2.5,-0.5L0,-3.0L2.5,-0.5"/>
  </g>
  <g id="resetDef">
    <use xlink:href="#rim2" fill="#404040"><set attributeName="fill" to="#808080" begin="reset.mouseover" end="reset.mouseout"/></use>
  </g>
</defs>
<script type="application/ecmascript">
var viewWidth = 715;
var viewHeight = 276;
var sectionId = 'dynsection-0';
</script>
<script type="application/ecmascript" xlink:href="svg.min.js"/>
<svg id="graph" class="graph">
<g id="viewport">
<title>C:/DGB/Project/computer&#45;vision&#45;app/src/matching/match_group.cpp</title>
<!-- Node1 -->
<g id="Node000001" class="node">
<title>Node1</title>
<g id="a_Node000001"><a xlink:title=" ">
<polygon fill="#999999" stroke="#666666" points="691.75,-268 563.25,-268 563.25,-224 691.75,-224 691.75,-268"/>
<text xml:space="preserve" text-anchor="start" x="571.25" y="-254.5" font-family="Helvetica,sans-Serif" font-size="10.00">C:/DGB/Project/computer</text>
<text xml:space="preserve" text-anchor="start" x="571.25" y="-242.5" font-family="Helvetica,sans-Serif" font-size="10.00">&#45;vision&#45;app/src/matching</text>
<text xml:space="preserve" text-anchor="middle" x="627.5" y="-230.5" font-family="Helvetica,sans-Serif" font-size="10.00">/match_group.cpp</text>
</a>
</g>
</g>
<!-- Node2 -->
<g id="Node000002" class="node">
<title>Node2</title>
<g id="a_Node000002"><a xlink:href="match__group_8h.html" target="_top" xlink:title=" ">
<polygon fill="white" stroke="#666666" points="383.75,-188 303.25,-188 303.25,-168 383.75,-168 383.75,-188"/>
<text xml:space="preserve" text-anchor="middle" x="343.5" y="-174.5" font-family="Helvetica,sans-Serif" font-size="10.00">match_group.h</text>
</a>
</g>
</g>
<!-- Node1&#45;&gt;Node2 -->
<g id="edge1_Node000001_Node000002" class="edge">
<title>Node1&#45;&gt;Node2</title>
<g id="a_edge1_Node000001_Node000002"><a xlink:title=" ">
<path fill="none" stroke="#63b8ff" d="M563.06,-230.02C512.26,-218.22 442.35,-201.97 395.18,-191.01"/>
<polygon fill="#63b8ff" stroke="#63b8ff" points="396.01,-187.61 385.48,-188.75 394.42,-194.43 396.01,-187.61"/>
</a>
</g>
</g>
<!-- Node7 -->
<g id="Node000007" class="node">
<title>Node7</title>
<g id="a_Node000007"><a xlink:title=" ">
<polygon fill="#e0e0e0" stroke="#999999" points="573.5,-20 533.5,-20 533.5,0 573.5,0 573.5,-20"/>
<text xml:space="preserve" text-anchor="middle" x="553.5" y="-6.5" font-family="Helvetica,sans-Serif" font-size="10.00">string</text>
</a>
</g>
</g>
<!-- Node1&#45;&gt;Node7 -->
<g id="edge19_Node000001_Node000007" class="edge">
<title>Node1&#45;&gt;Node7</title>
<g id="a_edge19_Node000001_Node000007"><a xlink:title=" ">
<path fill="none" stroke="#63b8ff" d="M630.4,-223.64C634.32,-186.95 637.82,-110.63 608.5,-56 602.11,-44.1 591.13,-34.15 580.65,-26.65"/>
<polygon fill="#63b8ff" stroke="#63b8ff" points="582.84,-23.91 572.57,-21.31 578.98,-29.75 582.84,-23.91"/>
</a>
</g>
</g>
<!-- Node15 -->
<g id="Node000015" class="node">
<title>Node15</title>
<g id="a_Node000015"><a xlink:title=" ">
<polygon fill="#e0e0e0" stroke="#999999" points="707.12,-188 655.88,-188 655.88,-168 707.12,-168 707.12,-188"/>
<text xml:space="preserve" text-anchor="middle" x="681.5" y="-174.5" font-family="Helvetica,sans-Serif" font-size="10.00">sstream</text>
</a>
</g>
</g>
<!-- Node1&#45;&gt;Node15 -->
<g id="edge18_Node000001_Node000015" class="edge">
<title>Node1&#45;&gt;Node15</title>
<g id="a_edge18_Node000001_Node000015"><a xlink:title=" ">
<path fill="none" stroke="#63b8ff" d="M644.88,-223.75C651.89,-215.2 659.88,-205.42 666.61,-197.2"/>
<polygon fill="#63b8ff" stroke="#63b8ff" points="669.21,-199.55 672.84,-189.59 663.79,-195.11 669.21,-199.55"/>
</a>
</g>
</g>
<!-- Node3 -->
<g id="Node000003" class="node">
<title>Node3</title>
<g id="a_Node000003"><a xlink:href="match__pattern_8h.html" target="_top" xlink:title=" ">
<polygon fill="white" stroke="#666666" points="386.75,-132 300.25,-132 300.25,-112 386.75,-112 386.75,-132"/>
<text xml:space="preserve" text-anchor="middle" x="343.5" y="-118.5" font-family="Helvetica,sans-Serif" font-size="10.00">match_pattern.h</text>
</a>
</g>
</g>
<!-- Node2&#45;&gt;Node3 -->
<g id="edge2_Node000002_Node000003" class="edge">
<title>Node2&#45;&gt;Node3</title>
<g id="a_edge2_Node000002_Node000003"><a xlink:title=" ">
<path fill="none" stroke="#63b8ff" d="M343.5,-167.59C343.5,-161.01 343.5,-151.96 343.5,-143.73"/>
<polygon fill="#63b8ff" stroke="#63b8ff" points="347,-143.81 343.5,-133.81 340,-143.81 347,-143.81"/>
</a>
</g>
</g>
<!-- Node9 -->
<g id="Node000009" class="node">
<title>Node9</title>
<g id="a_Node000009"><a xlink:href="manager__result_8h.html" target="_top" xlink:title=" ">
<polygon fill="white" stroke="#666666" points="599,-76 508,-76 508,-56 599,-56 599,-76"/>
<text xml:space="preserve" text-anchor="middle" x="553.5" y="-62.5" font-family="Helvetica,sans-Serif" font-size="10.00">manager_result.h</text>
</a>
</g>
</g>
<!-- Node2&#45;&gt;Node9 -->
<g id="edge13_Node000002_Node000009" class="edge">
<title>Node2&#45;&gt;Node9</title>
<g id="a_edge13_Node000002_Node000009"><a xlink:title=" ">
<path fill="none" stroke="#63b8ff" d="M361.4,-167.62C398.06,-148.42 481.87,-104.52 525.67,-81.58"/>
<polygon fill="#63b8ff" stroke="#63b8ff" points="527.07,-84.8 534.3,-77.06 523.82,-78.6 527.07,-84.8"/>
</a>
</g>
</g>
<!-- Node10 -->
<g id="Node000010" class="node">
<title>Node10</title>
<g id="a_Node000010"><a xlink:href="edge__match__config_8h.html" target="_top" xlink:title=" ">
<polygon fill="white" stroke="#666666" points="109,-132 0,-132 0,-112 109,-112 109,-132"/>
<text xml:space="preserve" text-anchor="middle" x="54.5" y="-118.5" font-family="Helvetica,sans-Serif" font-size="10.00">edge_match_config.h</text>
</a>
</g>
</g>
<!-- Node2&#45;&gt;Node10 -->
<g id="edge14_Node000002_Node000010" class="edge">
<title>Node2&#45;&gt;Node10</title>
<g id="a_edge14_Node000002_Node000010"><a xlink:title=" ">
<path fill="none" stroke="#63b8ff" d="M303.01,-169.43C254.54,-160.38 172.86,-145.12 116.45,-134.57"/>
<polygon fill="#63b8ff" stroke="#63b8ff" points="117.12,-131.14 106.65,-132.74 115.84,-138.02 117.12,-131.14"/>
</a>
</g>
</g>
<!-- Node14 -->
<g id="Node000014" class="node">
<title>Node14</title>
<g id="a_Node000014"><a xlink:title=" ">
<polygon fill="#e0e0e0" stroke="#999999" points="135.12,-20 83.88,-20 83.88,0 135.12,0 135.12,-20"/>
<text xml:space="preserve" text-anchor="middle" x="109.5" y="-6.5" font-family="Helvetica,sans-Serif" font-size="10.00">memory</text>
</a>
</g>
</g>
<!-- Node2&#45;&gt;Node14 -->
<g id="edge17_Node000002_Node000014" class="edge">
<title>Node2&#45;&gt;Node14</title>
<g id="a_edge17_Node000002_Node000014"><a xlink:title=" ">
<path fill="none" stroke="#63b8ff" d="M327.18,-167.72C297.78,-150.77 234.34,-113.11 184.5,-76 164.13,-60.83 142.35,-41.58 127.54,-27.98"/>
<polygon fill="#63b8ff" stroke="#63b8ff" points="130.11,-25.59 120.4,-21.35 125.35,-30.72 130.11,-25.59"/>
</a>
</g>
</g>
<!-- Node4 -->
<g id="Node000004" class="node">
<title>Node4</title>
<g id="a_Node000004"><a xlink:title=" ">
<polygon fill="#e0e0e0" stroke="#999999" points="224,-20 181,-20 181,0 224,0 224,-20"/>
<text xml:space="preserve" text-anchor="middle" x="202.5" y="-6.5" font-family="Helvetica,sans-Serif" font-size="10.00">vector</text>
</a>
</g>
</g>
<!-- Node3&#45;&gt;Node4 -->
<g id="edge3_Node000003_Node000004" class="edge">
<title>Node3&#45;&gt;Node4</title>
<g id="a_edge3_Node000003_Node000004"><a xlink:title=" ">
<path fill="none" stroke="#63b8ff" d="M300.1,-120.96C265.35,-118.33 218.58,-108.43 194.5,-76 184.97,-63.16 188.32,-44.82 193.28,-30.89"/>
<polygon fill="#63b8ff" stroke="#63b8ff" points="196.43,-32.42 197,-21.84 189.96,-29.76 196.43,-32.42"/>
</a>
</g>
</g>
<!-- Node5 -->
<g id="Node000005" class="node">
<title>Node5</title>
<g id="a_Node000005"><a xlink:title=" ">
<polygon fill="#e0e0e0" stroke="#999999" points="390.12,-20 296.88,-20 296.88,0 390.12,0 390.12,-20"/>
<text xml:space="preserve" text-anchor="middle" x="343.5" y="-6.5" font-family="Helvetica,sans-Serif" font-size="10.00">opencv2/core.hpp</text>
</a>
</g>
</g>
<!-- Node3&#45;&gt;Node5 -->
<g id="edge4_Node000003_Node000005" class="edge">
<title>Node3&#45;&gt;Node5</title>
<g id="a_edge4_Node000003_Node000005"><a xlink:title=" ">
<path fill="none" stroke="#63b8ff" d="M343.5,-111.62C343.5,-94.01 343.5,-55.59 343.5,-31.65"/>
<polygon fill="#63b8ff" stroke="#63b8ff" points="347,-31.87 343.5,-21.87 340,-31.87 347,-31.87"/>
</a>
</g>
</g>
<!-- Node6 -->
<g id="Node000006" class="node">
<title>Node6</title>
<g id="a_Node000006"><a xlink:href="match__pattern__config_8h.html" target="_top" xlink:title=" ">
<polygon fill="white" stroke="#666666" points="489.5,-76 371.5,-76 371.5,-56 489.5,-56 489.5,-76"/>
<text xml:space="preserve" text-anchor="middle" x="430.5" y="-62.5" font-family="Helvetica,sans-Serif" font-size="10.00">match_pattern_config.h</text>
</a>
</g>
</g>
<!-- Node3&#45;&gt;Node6 -->
<g id="edge5_Node000003_Node000006" class="edge">
<title>Node3&#45;&gt;Node6</title>
<g id="a_edge5_Node000003_Node000006"><a xlink:title=" ">
<path fill="none" stroke="#63b8ff" d="M358.65,-111.59C371.55,-103.59 390.33,-91.93 405.46,-82.54"/>
<polygon fill="#63b8ff" stroke="#63b8ff" points="407.29,-85.53 413.94,-77.28 403.6,-79.58 407.29,-85.53"/>
</a>
</g>
</g>
<!-- Node8 -->
<g id="Node000008" class="node">
<title>Node8</title>
<g id="a_Node000008"><a xlink:href="match__pattern__layer_8h.html" target="_top" xlink:title=" ">
<polygon fill="white" stroke="#666666" points="315.88,-76 203.12,-76 203.12,-56 315.88,-56 315.88,-76"/>
<text xml:space="preserve" text-anchor="middle" x="259.5" y="-62.5" font-family="Helvetica,sans-Serif" font-size="10.00">match_pattern_layer.h</text>
</a>
</g>
</g>
<!-- Node3&#45;&gt;Node8 -->
<g id="edge8_Node000003_Node000008" class="edge">
<title>Node3&#45;&gt;Node8</title>
<g id="a_edge8_Node000003_Node000008"><a xlink:title=" ">
<path fill="none" stroke="#63b8ff" d="M328.87,-111.59C316.42,-103.59 298.28,-91.93 283.68,-82.54"/>
<polygon fill="#63b8ff" stroke="#63b8ff" points="285.82,-79.76 275.52,-77.3 282.04,-85.65 285.82,-79.76"/>
</a>
</g>
</g>
<!-- Node3&#45;&gt;Node9 -->
<g id="edge11_Node000003_Node000009" class="edge">
<title>Node3&#45;&gt;Node9</title>
<g id="a_edge11_Node000003_Node000009"><a xlink:title=" ">
<path fill="none" stroke="#63b8ff" d="M380.08,-111.59C414.95,-102.63 467.64,-89.08 505.79,-79.27"/>
<polygon fill="#63b8ff" stroke="#63b8ff" points="506.36,-82.74 515.17,-76.86 504.61,-75.96 506.36,-82.74"/>
</a>
</g>
</g>
<!-- Node6&#45;&gt;Node5 -->
<g id="edge7_Node000006_Node000005" class="edge">
<title>Node6&#45;&gt;Node5</title>
<g id="a_edge7_Node000006_Node000005"><a xlink:title=" ">
<path fill="none" stroke="#63b8ff" d="M415.35,-55.59C402.45,-47.59 383.67,-35.93 368.54,-26.54"/>
<polygon fill="#63b8ff" stroke="#63b8ff" points="370.4,-23.58 360.06,-21.28 366.71,-29.53 370.4,-23.58"/>
</a>
</g>
</g>
<!-- Node6&#45;&gt;Node7 -->
<g id="edge6_Node000006_Node000007" class="edge">
<title>Node6&#45;&gt;Node7</title>
<g id="a_edge6_Node000006_Node000007"><a xlink:title=" ">
<path fill="none" stroke="#63b8ff" d="M451.92,-55.59C471.47,-47.01 500.59,-34.23 522.64,-24.55"/>
<polygon fill="#63b8ff" stroke="#63b8ff" points="524,-27.77 531.75,-20.55 521.19,-21.36 524,-27.77"/>
</a>
</g>
</g>
<!-- Node8&#45;&gt;Node4 -->
<g id="edge9_Node000008_Node000004" class="edge">
<title>Node8&#45;&gt;Node4</title>
<g id="a_edge9_Node000008_Node000004"><a xlink:title=" ">
<path fill="none" stroke="#63b8ff" d="M249.57,-55.59C241.56,-48.01 230.08,-37.13 220.47,-28.02"/>
<polygon fill="#63b8ff" stroke="#63b8ff" points="223.08,-25.68 213.41,-21.34 218.27,-30.76 223.08,-25.68"/>
</a>
</g>
</g>
<!-- Node8&#45;&gt;Node5 -->
<g id="edge10_Node000008_Node000005" class="edge">
<title>Node8&#45;&gt;Node5</title>
<g id="a_edge10_Node000008_Node000005"><a xlink:title=" ">
<path fill="none" stroke="#63b8ff" d="M274.13,-55.59C286.58,-47.59 304.72,-35.93 319.32,-26.54"/>
<polygon fill="#63b8ff" stroke="#63b8ff" points="320.96,-29.65 327.48,-21.3 317.18,-23.76 320.96,-29.65"/>
</a>
</g>
</g>
<!-- Node9&#45;&gt;Node7 -->
<g id="edge12_Node000009_Node000007" class="edge">
<title>Node9&#45;&gt;Node7</title>
<g id="a_edge12_Node000009_Node000007"><a xlink:title=" ">
<path fill="none" stroke="#63b8ff" d="M553.5,-55.59C553.5,-49.01 553.5,-39.96 553.5,-31.73"/>
<polygon fill="#63b8ff" stroke="#63b8ff" points="557,-31.81 553.5,-21.81 550,-31.81 557,-31.81"/>
</a>
</g>
</g>
<!-- Node11 -->
<g id="Node000011" class="node">
<title>Node11</title>
<g id="a_Node000011"><a xlink:href="imatch__type__config_8h.html" target="_top" xlink:title=" ">
<polygon fill="#fff0f0" stroke="red" points="109,-76 0,-76 0,-56 109,-56 109,-76"/>
<text xml:space="preserve" text-anchor="middle" x="54.5" y="-62.5" font-family="Helvetica,sans-Serif" font-size="10.00">imatch_type_config.h</text>
</a>
</g>
</g>
<!-- Node10&#45;&gt;Node11 -->
<g id="edge15_Node000010_Node000011" class="edge">
<title>Node10&#45;&gt;Node11</title>
<g id="a_edge15_Node000010_Node000011"><a xlink:title=" ">
<path fill="none" stroke="#63b8ff" d="M54.5,-111.59C54.5,-105.01 54.5,-95.96 54.5,-87.73"/>
<polygon fill="#63b8ff" stroke="#63b8ff" points="58,-87.81 54.5,-77.81 51,-87.81 58,-87.81"/>
</a>
</g>
</g>
<!-- Node11&#45;&gt;Node14 -->
<g id="edge16_Node000011_Node000014" class="edge">
<title>Node11&#45;&gt;Node14</title>
<g id="a_edge16_Node000011_Node000014"><a xlink:title=" ">
<path fill="none" stroke="#63b8ff" d="M64.08,-55.59C71.73,-48.08 82.66,-37.35 91.88,-28.3"/>
<polygon fill="#63b8ff" stroke="#63b8ff" points="94.27,-30.86 98.95,-21.36 89.36,-25.87 94.27,-30.86"/>
</a>
</g>
</g>
</g>
</svg>

<g id="navigator" transform="translate(0 0)" fill="#404254">
  <rect fill="#f2f5e9" fill-opacity="0.5" stroke="#606060" stroke-width=".5" x="0" y="0" width="60" height="60"/>
  <use id="zoomplus" xlink:href="#zoomPlus" x="17" y="9" onmousedown="handleZoom(evt,'in')"/>
  <use id="zoomminus" xlink:href="#zoomMin" x="42" y="9" onmousedown="handleZoom(evt,'out')"/>
  <use id="reset" xlink:href="#resetDef" x="30" y="36" onmousedown="handleReset()"/>
   <use id="arrowup" xlink:href="#arrowUp" x="0" y="0" onmousedown="handlePan(0,-1)"/>
  <use id="arrowright" xlink:href="#arrowRight" x="0" y="0" onmousedown="handlePan(1,0)"/>
  <use id="arrowdown" xlink:href="#arrowDown" x="0" y="0" onmousedown="handlePan(0,1)"/>
  <use id="arrowleft" xlink:href="#arrowLeft" x="0" y="0" onmousedown="handlePan(-1,0)"/>
</g>
<svg viewBox="0 0 15 15" width="100%" height="30px" preserveAspectRatio="xMaxYMin meet">
 <g id="arrow_out" transform="scale(0.3 0.3)">
  <a xlink:href="match__group_8cpp__incl_org.svg" target="_base">
   <rect id="button" ry="5" rx="5" y="6" x="6" height="38" width="38"
        fill="#f2f5e9" fill-opacity="0.5" stroke="#606060" stroke-width="1.0"/>
   <path id="arrow"
     d="M 11.500037,31.436501 C 11.940474,20.09759 22.043105,11.32322 32.158766,21.979434 L 37.068811,17.246167 C 37.068811,17.246167 37.088388,32 37.088388,32 L 22.160133,31.978069 C 22.160133,31.978069 26.997745,27.140456 26.997745,27.140456 C 18.528582,18.264221 13.291696,25.230495 11.500037,31.436501 z"
     style="fill:#404040;"/>
  </a>
 </g>
</svg>

<style type='text/css'>
<![CDATA[
[data-mouse-over-selected='false'] { opacity: 0.7; }
[data-mouse-over-selected='true']  { opacity: 1.0; }
]]>
</style>
<script type="application/ecmascript"><![CDATA[
document.addEventListener('DOMContentLoaded', (event) => {
  highlightEdges();
  highlightAdjacentNodes();
});
]]></script>
</svg>
