<?xml version="1.0" encoding="UTF-8" standalone="no"?>
<!DOCTYPE svg PUBLIC "-//W3C//DTD SVG 1.1//EN"
 "http://www.w3.org/Graphics/SVG/1.1/DTD/svg11.dtd">
<!-- Generated by graphviz version 15.1.0 (20260618.0150)
 -->
<!-- Title: RobotKinematics::FkChain Pages: 1 -->
<!--zoomable 578 -->

<svg id="main" version="1.1" xmlns="http://www.w3.org/2000/svg" xmlns:xlink="http://www.w3.org/1999/xlink" xml:space="preserve" onload="init(evt)">

<style type="text/css"><![CDATA[
.node, .edge {opacity: 0.7;}
.node.selected, .edge.selected {opacity: 1;}
.edge:hover path { stroke: red; }
.edge:hover polygon { stroke: red; fill: red; }
]]></style>

<defs>
  <circle id="rim" cx="0" cy="0" r="7"/>
  <circle id="rim2" cx="0" cy="0" r="3.5"/>
  <g id="zoomPlus">
    <use xlink:href="#rim" fill="#404040"><set attributeName="fill" to="#808080" begin="zoomplus.mouseover" end="zoomplus.mouseout"/></use>
    <path d="M-4,0h8M0,-4v8" fill="none" stroke="white" stroke-width="1.5" pointer-events="none"/>
  </g>
  <g id="zoomMin">
    <use xlink:href="#rim" fill="#404040"><set attributeName="fill" to="#808080" begin="zoomminus.mouseover" end="zoomminus.mouseout"/></use>
    <path d="M-4,0h8" fill="none" stroke="white" stroke-width="1.5" pointer-events="none"/>
  </g>
  <g id="arrowUp" transform="translate(30 24)">
    <use xlink:href="#rim"/>
    <path pointer-events="none" fill="none" stroke="white" stroke-width="1.5" d="M0,-3.0v7 M-2.5,-0.5L0,-3.0L2.5,-0.5"/>
  </g>
  <g id="arrowRight" transform="rotate(90) translate(36 -43)">
    <use xlink:href="#rim"/>
    <path pointer-events="none" fill="none" stroke="white" stroke-width="1.5" d="M0,-3.0v7 M-2.5,-0.5L0,-3.0L2.5,-0.5"/>
  </g>
  <g id="arrowDown" transform="rotate(180) translate(-30 -48)">
    <use xlink:href="#rim"/>
    <path pointer-events="none" fill="none" stroke="white" stroke-width="1.5" d="M0,-3.0v7 M-2.5,-0.5L0,-3.0L2.5,-0.5"/>
  </g>
  <g id="arrowLeft" transform="rotate(270) translate(-36 17)">
    <use xlink:href="#rim"/>
    <path pointer-events="none" fill="none" stroke="white" stroke-width="1.5" d="M0,-3.0v7 M-2.5,-0.5L0,-3.0L2.5,-0.5"/>
  </g>
  <g id="resetDef">
    <use xlink:href="#rim2" fill="#404040"><set attributeName="fill" to="#808080" begin="reset.mouseover" end="reset.mouseout"/></use>
  </g>
</defs>
<script type="application/ecmascript">
var viewWidth = 672;
var viewHeight = 578;
var sectionId = 'dynsection-0';
</script>
<script type="application/ecmascript" xlink:href="svg.min.js"/>
<svg id="graph" class="graph">
<g id="viewport">
<title>RobotKinematics::FkChain</title>
<!-- Node1 -->
<g id="Node000001" class="node">
<title>Node1</title>
<g id="a_Node000001"><a xlink:title="Result of solving the full kinematic chain for a joint vector.">
<polygon fill="#999999" stroke="none" points="380.25,-52 254.5,-52 254.5,0 380.25,0 380.25,-52"/>
<text xml:space="preserve" text-anchor="start" x="258.5" y="-38.25" font-family="Helvetica,sans-Serif" font-size="10.00">RobotKinematics::FkChain</text>
<text xml:space="preserve" text-anchor="start" x="315.88" y="-22.25" font-family="Helvetica,sans-Serif" font-size="10.00"> </text>
<text xml:space="preserve" text-anchor="start" x="315.88" y="-6.25" font-family="Helvetica,sans-Serif" font-size="10.00"> </text>
<polygon fill="#666666" stroke="#666666" points="254.5,-34 254.5,-34 380.25,-34 380.25,-34 254.5,-34"/>
<polygon fill="#666666" stroke="#666666" points="254.5,-18 254.5,-18 380.25,-18 380.25,-18 254.5,-18"/>
<polygon fill="none" stroke="#666666" points="254.5,0 254.5,-52 380.25,-52 380.25,0 254.5,0"/>
</a>
</g>
</g>
<!-- Node2 -->
<g id="Node000002" class="node">
<title>Node2</title>
<g id="a_Node000002"><a xlink:title=" ">
<polygon fill="white" stroke="none" points="275.62,-170 137.12,-170 137.12,-106 275.62,-106 275.62,-170"/>
<text xml:space="preserve" text-anchor="start" x="141.12" y="-156.25" font-family="Helvetica,sans-Serif" font-size="10.00">std::vector&lt; RobotKinematics</text>
<text xml:space="preserve" text-anchor="start" x="164" y="-144.25" font-family="Helvetica,sans-Serif" font-size="10.00">::JointFrameData &gt;</text>
<text xml:space="preserve" text-anchor="start" x="204.88" y="-128.25" font-family="Helvetica,sans-Serif" font-size="10.00"> </text>
<text xml:space="preserve" text-anchor="start" x="204.88" y="-112.25" font-family="Helvetica,sans-Serif" font-size="10.00"> </text>
<polygon fill="#666666" stroke="#666666" points="137.12,-140 137.12,-140 275.62,-140 275.62,-140 137.12,-140"/>
<polygon fill="#666666" stroke="#666666" points="137.12,-124 137.12,-124 275.62,-124 275.62,-124 137.12,-124"/>
<polygon fill="none" stroke="#666666" points="137.12,-106 137.12,-170 275.62,-170 275.62,-106 137.12,-106"/>
</a>
</g>
</g>
<!-- Node2&#45;&gt;Node1 -->
<g id="edge1_Node000001_Node000002" class="edge">
<title>Node2&#45;&gt;Node1</title>
<g id="a_edge1_Node000001_Node000002"><a xlink:title=" ">
<path fill="none" stroke="#63b8ff" d="M233.36,-106.33C243.94,-94.68 256.34,-81.48 268.12,-70 271.31,-66.9 274.68,-63.74 278.09,-60.61"/>
<polygon fill="none" stroke="#63b8ff" points="278.13,-60.57 279.93,-53.59 287.07,-52.56 285.27,-59.54 278.13,-60.57"/>
</a>
</g>
<text xml:space="preserve" text-anchor="start" x="271.12" y="-75.25" font-family="Helvetica,sans-Serif" font-size="10.00" fill="grey">+joints</text>
</g>
<!-- Node3 -->
<g id="Node000003" class="node">
<title>Node3</title>
<g id="a_Node000003"><a xlink:href="struct_robot_kinematics_1_1_joint_frame_data.html" target="_top" xlink:title=" ">
<polygon fill="white" stroke="none" points="158.75,-388 0,-388 0,-304 158.75,-304 158.75,-388"/>
<text xml:space="preserve" text-anchor="start" x="4" y="-374.25" font-family="Helvetica,sans-Serif" font-size="10.00">RobotKinematics::JointFrameData</text>
<text xml:space="preserve" text-anchor="start" x="25.69" y="-358.25" font-family="Helvetica,sans-Serif" font-size="10.00">+</text>
<text xml:space="preserve" text-anchor="start" x="57.38" y="-358.25" font-family="Helvetica,sans-Serif" font-size="10.00">axisInBase</text>
<text xml:space="preserve" text-anchor="start" x="25.69" y="-342.25" font-family="Helvetica,sans-Serif" font-size="10.00">+</text>
<text xml:space="preserve" text-anchor="start" x="57.38" y="-342.25" font-family="Helvetica,sans-Serif" font-size="10.00">originInBase</text>
<text xml:space="preserve" text-anchor="start" x="25.69" y="-326.25" font-family="Helvetica,sans-Serif" font-size="10.00">+</text>
<text xml:space="preserve" text-anchor="start" x="57.38" y="-326.25" font-family="Helvetica,sans-Serif" font-size="10.00">type</text>
<text xml:space="preserve" text-anchor="start" x="77.88" y="-310.25" font-family="Helvetica,sans-Serif" font-size="10.00"> </text>
<polygon fill="#666666" stroke="#666666" points="0,-370 0,-370 158.75,-370 158.75,-370 0,-370"/>
<polygon fill="#666666" stroke="#666666" points="0,-322 0,-322 55.38,-322 55.38,-322 0,-322"/>
<polygon fill="#666666" stroke="#666666" points="55.38,-322 55.38,-322 158.75,-322 158.75,-322 55.38,-322"/>
<polygon fill="none" stroke="#666666" points="0,-304 0,-388 158.75,-388 158.75,-304 0,-304"/>
</a>
</g>
</g>
<!-- Node3&#45;&gt;Node2 -->
<g id="edge2_Node000002_Node000003" class="edge">
<title>Node3&#45;&gt;Node2</title>
<g id="a_edge2_Node000002_Node000003"><a xlink:title=" ">
<path fill="none" stroke="#63b8ff" d="M92.51,-304.09C104.42,-270.82 124.16,-223.71 150.62,-188 152.82,-185.04 155.22,-182.13 157.75,-179.3"/>
<polygon fill="none" stroke="#63b8ff" points="157.79,-179.26 159.09,-172.16 166.13,-170.64 164.83,-177.73 157.79,-179.26"/>
</a>
</g>
<text xml:space="preserve" text-anchor="start" x="153.62" y="-201.25" font-family="Helvetica,sans-Serif" font-size="10.00" fill="grey">+elements</text>
</g>
<!-- Node4 -->
<g id="Node000004" class="node">
<title>Node4</title>
<g id="a_Node000004"><a xlink:title=" ">
<polygon fill="white" stroke="none" points="254.25,-372 176.5,-372 176.5,-320 254.25,-320 254.25,-372"/>
<text xml:space="preserve" text-anchor="start" x="180.5" y="-358.25" font-family="Helvetica,sans-Serif" font-size="10.00">std::vector&lt; T &gt;</text>
<text xml:space="preserve" text-anchor="start" x="213.88" y="-342.25" font-family="Helvetica,sans-Serif" font-size="10.00"> </text>
<text xml:space="preserve" text-anchor="start" x="213.88" y="-326.25" font-family="Helvetica,sans-Serif" font-size="10.00"> </text>
<polygon fill="#666666" stroke="#666666" points="176.5,-354 176.5,-354 254.25,-354 254.25,-354 176.5,-354"/>
<polygon fill="#666666" stroke="#666666" points="176.5,-338 176.5,-338 254.25,-338 254.25,-338 176.5,-338"/>
<polygon fill="none" stroke="#666666" points="176.5,-320 176.5,-372 254.25,-372 254.25,-320 176.5,-320"/>
</a>
</g>
</g>
<!-- Node4&#45;&gt;Node2 -->
<g id="edge3_Node000002_Node000004" class="edge">
<title>Node4&#45;&gt;Node2</title>
<g id="a_edge3_Node000002_Node000004"><a xlink:title=" ">
<path fill="none" stroke="orange" d="M212.51,-308.77C210.7,-284.29 208.5,-251.22 207.38,-222 206.71,-204.72 206.45,-185.4 206.36,-169.75"/>
<polygon fill="orange" stroke="orange" points="209.01,-308.83 213.25,-318.54 215.99,-308.3 209.01,-308.83"/>
</a>
</g>
<text xml:space="preserve" text-anchor="start" x="210.38" y="-209.25" font-family="Helvetica,sans-Serif" font-size="10.00" fill="grey">&lt; RobotKinematics::</text>
<text xml:space="preserve" text-anchor="start" x="210.38" y="-193.25" font-family="Helvetica,sans-Serif" font-size="10.00" fill="grey">  JointFrameData &gt;</text>
</g>
<!-- Node5 -->
<g id="Node000005" class="node">
<title>Node5</title>
<g id="a_Node000005"><a xlink:title=" ">
<polygon fill="white" stroke="none" points="330.38,-564 316.38,-564 316.38,-512 330.38,-512 330.38,-564"/>
<text xml:space="preserve" text-anchor="start" x="320.38" y="-550.25" font-family="Helvetica,sans-Serif" font-size="10.00">T</text>
<text xml:space="preserve" text-anchor="start" x="321.88" y="-534.25" font-family="Helvetica,sans-Serif" font-size="10.00"> </text>
<text xml:space="preserve" text-anchor="start" x="321.88" y="-518.25" font-family="Helvetica,sans-Serif" font-size="10.00"> </text>
<polygon fill="#666666" stroke="#666666" points="316.38,-546 316.38,-546 330.38,-546 330.38,-546 316.38,-546"/>
<polygon fill="#666666" stroke="#666666" points="316.38,-530 316.38,-530 330.38,-530 330.38,-530 316.38,-530"/>
<polygon fill="none" stroke="#666666" points="316.38,-512 316.38,-564 330.38,-564 330.38,-512 316.38,-512"/>
</a>
</g>
</g>
<!-- Node5&#45;&gt;Node4 -->
<g id="edge4_Node000004_Node000005" class="edge">
<title>Node5&#45;&gt;Node4</title>
<g id="a_edge4_Node000004_Node000005"><a xlink:title=" ">
<path fill="none" stroke="#63b8ff" d="M316.41,-528.11C308.87,-518.39 296.59,-502.31 286.62,-488 275.74,-472.37 272.53,-468.7 263.38,-452 251.25,-429.87 239.45,-404.12 230.58,-383.66"/>
<polygon fill="none" stroke="#63b8ff" points="230.53,-383.54 224.49,-379.6 225.81,-372.51 231.85,-376.45 230.53,-383.54"/>
</a>
</g>
<text xml:space="preserve" text-anchor="start" x="289.62" y="-475.25" font-family="Helvetica,sans-Serif" font-size="10.00" fill="grey">+elements</text>
</g>
<!-- Node10 -->
<g id="Node000010" class="node">
<title>Node10</title>
<g id="a_Node000010"><a xlink:title=" ">
<polygon fill="white" stroke="none" points="499.5,-372 417.25,-372 417.25,-320 499.5,-320 499.5,-372"/>
<text xml:space="preserve" text-anchor="start" x="421.25" y="-358.25" font-family="Helvetica,sans-Serif" font-size="10.00">std::map&lt; K, T &gt;</text>
<text xml:space="preserve" text-anchor="start" x="456.88" y="-342.25" font-family="Helvetica,sans-Serif" font-size="10.00"> </text>
<text xml:space="preserve" text-anchor="start" x="456.88" y="-326.25" font-family="Helvetica,sans-Serif" font-size="10.00"> </text>
<polygon fill="#666666" stroke="#666666" points="417.25,-354 417.25,-354 499.5,-354 499.5,-354 417.25,-354"/>
<polygon fill="#666666" stroke="#666666" points="417.25,-338 417.25,-338 499.5,-338 499.5,-338 417.25,-338"/>
<polygon fill="none" stroke="#666666" points="417.25,-320 417.25,-372 499.5,-372 499.5,-320 417.25,-320"/>
</a>
</g>
</g>
<!-- Node5&#45;&gt;Node10 -->
<g id="edge11_Node000010_Node000005" class="edge">
<title>Node5&#45;&gt;Node10</title>
<g id="a_edge11_Node000010_Node000005"><a xlink:title=" ">
<path fill="none" stroke="#63b8ff" d="M330.23,-531.44C345.62,-518.7 383.41,-485.87 407.38,-452 422.37,-430.8 435.14,-404.52 444.14,-383.55"/>
<polygon fill="none" stroke="#63b8ff" points="444.16,-383.5 442.78,-376.42 448.78,-372.42 450.16,-379.5 444.16,-383.5"/>
</a>
</g>
<text xml:space="preserve" text-anchor="start" x="394.22" y="-475.25" font-family="Helvetica,sans-Serif" font-size="10.00" fill="grey">+elements</text>
</g>
<!-- Node6 -->
<g id="Node000006" class="node">
<title>Node6</title>
<g id="a_Node000006"><a xlink:title=" ">
<polygon fill="white" stroke="none" points="528.12,-170 404.62,-170 404.62,-106 528.12,-106 528.12,-170"/>
<text xml:space="preserve" text-anchor="start" x="408.62" y="-156.25" font-family="Helvetica,sans-Serif" font-size="10.00">std::map&lt; std::string,</text>
<text xml:space="preserve" text-anchor="start" x="408.62" y="-144.25" font-family="Helvetica,sans-Serif" font-size="10.00"> RobotKinematics::Pose &gt;</text>
<text xml:space="preserve" text-anchor="start" x="464.88" y="-128.25" font-family="Helvetica,sans-Serif" font-size="10.00"> </text>
<text xml:space="preserve" text-anchor="start" x="464.88" y="-112.25" font-family="Helvetica,sans-Serif" font-size="10.00"> </text>
<polygon fill="#666666" stroke="#666666" points="404.62,-140 404.62,-140 528.12,-140 528.12,-140 404.62,-140"/>
<polygon fill="#666666" stroke="#666666" points="404.62,-124 404.62,-124 528.12,-124 528.12,-124 404.62,-124"/>
<polygon fill="none" stroke="#666666" points="404.62,-106 404.62,-170 528.12,-170 528.12,-106 404.62,-106"/>
</a>
</g>
</g>
<!-- Node6&#45;&gt;Node1 -->
<g id="edge5_Node000001_Node000006" class="edge">
<title>Node6&#45;&gt;Node1</title>
<g id="a_edge5_Node000001_Node000006"><a xlink:title=" ">
<path fill="none" stroke="#63b8ff" d="M424.47,-106.07C404.77,-91.52 381.29,-74.18 361.33,-59.45"/>
<polygon fill="none" stroke="#63b8ff" points="361.34,-59.46 354.14,-59.11 351.69,-52.33 358.89,-52.68 361.34,-59.46"/>
</a>
</g>
<text xml:space="preserve" text-anchor="start" x="399.34" y="-75.25" font-family="Helvetica,sans-Serif" font-size="10.00" fill="grey">+linkPosesInBase</text>
</g>
<!-- Node7 -->
<g id="Node000007" class="node">
<title>Node7</title>
<g id="a_Node000007"><a xlink:title=" ">
<polygon fill="white" stroke="none" points="647.12,-372 595.62,-372 595.62,-320 647.12,-320 647.12,-372"/>
<text xml:space="preserve" text-anchor="start" x="599.62" y="-358.25" font-family="Helvetica,sans-Serif" font-size="10.00">std::string</text>
<text xml:space="preserve" text-anchor="start" x="619.88" y="-342.25" font-family="Helvetica,sans-Serif" font-size="10.00"> </text>
<text xml:space="preserve" text-anchor="start" x="619.88" y="-326.25" font-family="Helvetica,sans-Serif" font-size="10.00"> </text>
<polygon fill="#666666" stroke="#666666" points="595.62,-354 595.62,-354 647.12,-354 647.12,-354 595.62,-354"/>
<polygon fill="#666666" stroke="#666666" points="595.62,-338 595.62,-338 647.12,-338 647.12,-338 595.62,-338"/>
<polygon fill="none" stroke="#666666" points="595.62,-320 595.62,-372 647.12,-372 647.12,-320 595.62,-320"/>
</a>
</g>
</g>
<!-- Node7&#45;&gt;Node6 -->
<g id="edge6_Node000006_Node000007" class="edge">
<title>Node7&#45;&gt;Node6</title>
<g id="a_edge6_Node000006_Node000007"><a xlink:title=" ">
<path fill="none" stroke="#63b8ff" d="M625.12,-320.21C628.76,-286.46 629.95,-225.93 599.38,-188 584.58,-169.65 562.25,-158.18 540.08,-151"/>
<polygon fill="none" stroke="#63b8ff" points="540.22,-151.04 533.34,-153.2 528.7,-147.69 535.58,-145.52 540.22,-151.04"/>
</a>
</g>
<text xml:space="preserve" text-anchor="start" x="620.31" y="-201.25" font-family="Helvetica,sans-Serif" font-size="10.00" fill="grey">+keys</text>
</g>
<!-- Node8 -->
<g id="Node000008" class="node">
<title>Node8</title>
<g id="a_Node000008"><a xlink:title=" ">
<polygon fill="white" stroke="none" points="664.38,-570 578.38,-570 578.38,-506 664.38,-506 664.38,-570"/>
<text xml:space="preserve" text-anchor="start" x="582.38" y="-556.25" font-family="Helvetica,sans-Serif" font-size="10.00">std::basic_string&lt;</text>
<text xml:space="preserve" text-anchor="start" x="604.88" y="-544.25" font-family="Helvetica,sans-Serif" font-size="10.00"> Char &gt;</text>
<text xml:space="preserve" text-anchor="start" x="619.88" y="-528.25" font-family="Helvetica,sans-Serif" font-size="10.00"> </text>
<text xml:space="preserve" text-anchor="start" x="619.88" y="-512.25" font-family="Helvetica,sans-Serif" font-size="10.00"> </text>
<polygon fill="#666666" stroke="#666666" points="578.38,-540 578.38,-540 664.38,-540 664.38,-540 578.38,-540"/>
<polygon fill="#666666" stroke="#666666" points="578.38,-524 578.38,-524 664.38,-524 664.38,-524 578.38,-524"/>
<polygon fill="none" stroke="#666666" points="578.38,-506 578.38,-570 664.38,-570 664.38,-506 578.38,-506"/>
</a>
</g>
</g>
<!-- Node8&#45;&gt;Node7 -->
<g id="edge7_Node000007_Node000008" class="edge">
<title>Node8&#45;&gt;Node7</title>
<g id="a_edge7_Node000007_Node000008"><a xlink:title=" ">
<path fill="none" stroke="#63b8ff" d="M621.38,-494.91C621.38,-457.18 621.38,-403.11 621.38,-371.87"/>
<polygon fill="none" stroke="#63b8ff" points="617.88,-494.54 621.38,-504.54 624.88,-494.54 617.88,-494.54"/>
</a>
</g>
</g>
<!-- Node9 -->
<g id="Node000009" class="node">
<title>Node9</title>
<g id="a_Node000009"><a xlink:href="class_robot_kinematics_1_1_pose.html" target="_top" xlink:title=" ">
<polygon fill="white" stroke="none" points="398.75,-452 272,-452 272,-240 398.75,-240 398.75,-452"/>
<text xml:space="preserve" text-anchor="start" x="283.62" y="-438.25" font-family="Helvetica,sans-Serif" font-size="10.00">RobotKinematics::Pose</text>
<text xml:space="preserve" text-anchor="start" x="277.5" y="-422.25" font-family="Helvetica,sans-Serif" font-size="10.00">&#45;</text>
<text xml:space="preserve" text-anchor="start" x="286" y="-422.25" font-family="Helvetica,sans-Serif" font-size="10.00">transform_</text>
<text xml:space="preserve" text-anchor="start" x="276" y="-406.25" font-family="Helvetica,sans-Serif" font-size="10.00">+</text>
<text xml:space="preserve" text-anchor="start" x="286" y="-406.25" font-family="Helvetica,sans-Serif" font-size="10.00">inverse()</text>
<text xml:space="preserve" text-anchor="start" x="276" y="-390.25" font-family="Helvetica,sans-Serif" font-size="10.00">+</text>
<text xml:space="preserve" text-anchor="start" x="286" y="-390.25" font-family="Helvetica,sans-Serif" font-size="10.00">isometry()</text>
<text xml:space="preserve" text-anchor="start" x="276" y="-374.25" font-family="Helvetica,sans-Serif" font-size="10.00">+</text>
<text xml:space="preserve" text-anchor="start" x="286" y="-374.25" font-family="Helvetica,sans-Serif" font-size="10.00">operator*()</text>
<text xml:space="preserve" text-anchor="start" x="276" y="-358.25" font-family="Helvetica,sans-Serif" font-size="10.00">+</text>
<text xml:space="preserve" text-anchor="start" x="286" y="-358.25" font-family="Helvetica,sans-Serif" font-size="10.00">Pose()</text>
<text xml:space="preserve" text-anchor="start" x="276" y="-342.25" font-family="Helvetica,sans-Serif" font-size="10.00">+</text>
<text xml:space="preserve" text-anchor="start" x="286" y="-342.25" font-family="Helvetica,sans-Serif" font-size="10.00">rotationQuaternion()</text>
<text xml:space="preserve" text-anchor="start" x="276" y="-326.25" font-family="Helvetica,sans-Serif" font-size="10.00">+</text>
<text xml:space="preserve" text-anchor="start" x="286" y="-326.25" font-family="Helvetica,sans-Serif" font-size="10.00">translation_m()</text>
<text xml:space="preserve" text-anchor="start" x="276" y="-310.25" font-family="Helvetica,sans-Serif" font-size="10.00">+</text>
<text xml:space="preserve" text-anchor="start" x="286" y="-310.25" font-family="Helvetica,sans-Serif" font-size="10.00">fromIsometry()</text>
<text xml:space="preserve" text-anchor="start" x="276" y="-294.25" font-family="Helvetica,sans-Serif" font-size="10.00">+</text>
<text xml:space="preserve" text-anchor="start" x="286" y="-294.25" font-family="Helvetica,sans-Serif" font-size="10.00">fromXYZRPY_m_rad()</text>
<text xml:space="preserve" text-anchor="start" x="276" y="-278.25" font-family="Helvetica,sans-Serif" font-size="10.00">+</text>
<text xml:space="preserve" text-anchor="start" x="286" y="-278.25" font-family="Helvetica,sans-Serif" font-size="10.00">fromXYZRPY_mm_deg()</text>
<text xml:space="preserve" text-anchor="start" x="276" y="-262.25" font-family="Helvetica,sans-Serif" font-size="10.00">+</text>
<text xml:space="preserve" text-anchor="start" x="286" y="-262.25" font-family="Helvetica,sans-Serif" font-size="10.00">identity()</text>
<text xml:space="preserve" text-anchor="start" x="277.5" y="-246.25" font-family="Helvetica,sans-Serif" font-size="10.00">&#45;</text>
<text xml:space="preserve" text-anchor="start" x="286" y="-246.25" font-family="Helvetica,sans-Serif" font-size="10.00">Pose()</text>
<polygon fill="#666666" stroke="#666666" points="272,-434 272,-434 398.75,-434 398.75,-434 272,-434"/>
<polygon fill="#666666" stroke="#666666" points="272,-418 272,-418 284,-418 284,-418 272,-418"/>
<polygon fill="#666666" stroke="#666666" points="284,-418 284,-418 398.75,-418 398.75,-418 284,-418"/>
<polygon fill="none" stroke="#666666" points="272,-240 272,-452 398.75,-452 398.75,-240 272,-240"/>
</a>
</g>
</g>
<!-- Node9&#45;&gt;Node1 -->
<g id="edge12_Node000001_Node000009" class="edge">
<title>Node9&#45;&gt;Node1</title>
<g id="a_edge12_Node000001_Node000009"><a xlink:title=" ">
<path fill="none" stroke="#63b8ff" d="M329.46,-240.43C326.04,-180 321.94,-107.62 319.5,-64.58"/>
<polygon fill="none" stroke="#63b8ff" points="319.5,-64.57 315.17,-58.81 318.82,-52.59 323.16,-58.35 319.5,-64.57"/>
</a>
</g>
<text xml:space="preserve" text-anchor="start" x="328.18" y="-134.25" font-family="Helvetica,sans-Serif" font-size="10.00" fill="grey">+flangeInBase</text>
</g>
<!-- Node9&#45;&gt;Node6 -->
<g id="edge8_Node000006_Node000009" class="edge">
<title>Node9&#45;&gt;Node6</title>
<g id="a_edge8_Node000006_Node000009"><a xlink:title=" ">
<path fill="none" stroke="#63b8ff" d="M371.3,-240.29C380.03,-221.93 390.44,-203.69 402.62,-188 405.15,-184.75 407.94,-181.59 410.9,-178.56"/>
<polygon fill="none" stroke="#63b8ff" points="410.79,-178.66 412.43,-171.64 419.54,-170.45 417.9,-177.47 410.79,-178.66"/>
</a>
</g>
<text xml:space="preserve" text-anchor="start" x="405.62" y="-201.25" font-family="Helvetica,sans-Serif" font-size="10.00" fill="grey">+elements</text>
</g>
<!-- Node10&#45;&gt;Node6 -->
<g id="edge9_Node000006_Node000010" class="edge">
<title>Node10&#45;&gt;Node6</title>
<g id="a_edge9_Node000006_Node000010"><a xlink:title=" ">
<path fill="none" stroke="orange" d="M457.47,-308.83C456.97,-276.97 456.95,-229.35 459.88,-188 460.29,-182.09 460.96,-175.81 461.71,-169.79"/>
<polygon fill="orange" stroke="orange" points="453.97,-308.77 457.65,-318.7 460.96,-308.64 453.97,-308.77"/>
</a>
</g>
<text xml:space="preserve" text-anchor="start" x="462.88" y="-209.25" font-family="Helvetica,sans-Serif" font-size="10.00" fill="grey">&lt; std::string, RobotKinematics</text>
<text xml:space="preserve" text-anchor="start" x="462.88" y="-193.25" font-family="Helvetica,sans-Serif" font-size="10.00" fill="grey">  ::Pose &gt;</text>
</g>
<!-- Node11 -->
<g id="Node000011" class="node">
<title>Node11</title>
<g id="a_Node000011"><a xlink:title=" ">
<polygon fill="white" stroke="none" points="465.75,-564 451,-564 451,-512 465.75,-512 465.75,-564"/>
<text xml:space="preserve" text-anchor="start" x="455" y="-550.25" font-family="Helvetica,sans-Serif" font-size="10.00">K</text>
<text xml:space="preserve" text-anchor="start" x="456.88" y="-534.25" font-family="Helvetica,sans-Serif" font-size="10.00"> </text>
<text xml:space="preserve" text-anchor="start" x="456.88" y="-518.25" font-family="Helvetica,sans-Serif" font-size="10.00"> </text>
<polygon fill="#666666" stroke="#666666" points="451,-546 451,-546 465.75,-546 465.75,-546 451,-546"/>
<polygon fill="#666666" stroke="#666666" points="451,-530 451,-530 465.75,-530 465.75,-530 451,-530"/>
<polygon fill="none" stroke="#666666" points="451,-512 451,-564 465.75,-564 465.75,-512 451,-512"/>
</a>
</g>
</g>
<!-- Node11&#45;&gt;Node10 -->
<g id="edge10_Node000010_Node000011" class="edge">
<title>Node11&#45;&gt;Node10</title>
<g id="a_edge10_Node000010_Node000011"><a xlink:title=" ">
<path fill="none" stroke="#63b8ff" d="M458.38,-512.16C458.38,-479.73 458.38,-422.65 458.38,-384.83"/>
<polygon fill="none" stroke="#63b8ff" points="458.38,-384.75 454.38,-378.75 458.38,-372.75 462.38,-378.75 458.38,-384.75"/>
</a>
</g>
<text xml:space="preserve" text-anchor="start" x="461.38" y="-475.25" font-family="Helvetica,sans-Serif" font-size="10.00" fill="grey">+keys</text>
</g>
</g>
</svg>

<g id="navigator" transform="translate(0 0)" fill="#404254">
  <rect fill="#f2f5e9" fill-opacity="0.5" stroke="#606060" stroke-width=".5" x="0" y="0" width="60" height="60"/>
  <use id="zoomplus" xlink:href="#zoomPlus" x="17" y="9" onmousedown="handleZoom(evt,'in')"/>
  <use id="zoomminus" xlink:href="#zoomMin" x="42" y="9" onmousedown="handleZoom(evt,'out')"/>
  <use id="reset" xlink:href="#resetDef" x="30" y="36" onmousedown="handleReset()"/>
   <use id="arrowup" xlink:href="#arrowUp" x="0" y="0" onmousedown="handlePan(0,-1)"/>
  <use id="arrowright" xlink:href="#arrowRight" x="0" y="0" onmousedown="handlePan(1,0)"/>
  <use id="arrowdown" xlink:href="#arrowDown" x="0" y="0" onmousedown="handlePan(0,1)"/>
  <use id="arrowleft" xlink:href="#arrowLeft" x="0" y="0" onmousedown="handlePan(-1,0)"/>
</g>
<svg viewBox="0 0 15 15" width="100%" height="30px" preserveAspectRatio="xMaxYMin meet">
 <g id="arrow_out" transform="scale(0.3 0.3)">
  <a xlink:href="struct_robot_kinematics_1_1_fk_chain__coll__graph_org.svg" target="_base">
   <rect id="button" ry="5" rx="5" y="6" x="6" height="38" width="38"
        fill="#f2f5e9" fill-opacity="0.5" stroke="#606060" stroke-width="1.0"/>
   <path id="arrow"
     d="M 11.500037,31.436501 C 11.940474,20.09759 22.043105,11.32322 32.158766,21.979434 L 37.068811,17.246167 C 37.068811,17.246167 37.088388,32 37.088388,32 L 22.160133,31.978069 C 22.160133,31.978069 26.997745,27.140456 26.997745,27.140456 C 18.528582,18.264221 13.291696,25.230495 11.500037,31.436501 z"
     style="fill:#404040;"/>
  </a>
 </g>
</svg>

<style type='text/css'>
<![CDATA[
[data-mouse-over-selected='false'] { opacity: 0.7; }
[data-mouse-over-selected='true']  { opacity: 1.0; }
]]>
</style>
<script type="application/ecmascript"><![CDATA[
document.addEventListener('DOMContentLoaded', (event) => {
  highlightEdges();
  highlightAdjacentNodes();
});
]]></script>
</svg>
