<?xml version="1.0" encoding="UTF-8" standalone="no"?>
<!DOCTYPE svg PUBLIC "-//W3C//DTD SVG 1.1//EN"
 "http://www.w3.org/Graphics/SVG/1.1/DTD/svg11.dtd">
<!-- Generated by graphviz version 15.1.0 (20260618.0150)
 -->
<!-- Title: C:/DGB/Project/ncr_picking/src/device/output_device/vision_output_device.h Pages: 1 -->
<!--zoomable 420 -->

<svg id="main" version="1.1" xmlns="http://www.w3.org/2000/svg" xmlns:xlink="http://www.w3.org/1999/xlink" xml:space="preserve" onload="init(evt)">

<style type="text/css"><![CDATA[
.node, .edge {opacity: 0.7;}
.node.selected, .edge.selected {opacity: 1;}
.edge:hover path { stroke: red; }
.edge:hover polygon { stroke: red; fill: red; }
]]></style>

<defs>
  <circle id="rim" cx="0" cy="0" r="7"/>
  <circle id="rim2" cx="0" cy="0" r="3.5"/>
  <g id="zoomPlus">
    <use xlink:href="#rim" fill="#404040"><set attributeName="fill" to="#808080" begin="zoomplus.mouseover" end="zoomplus.mouseout"/></use>
    <path d="M-4,0h8M0,-4v8" fill="none" stroke="white" stroke-width="1.5" pointer-events="none"/>
  </g>
  <g id="zoomMin">
    <use xlink:href="#rim" fill="#404040"><set attributeName="fill" to="#808080" begin="zoomminus.mouseover" end="zoomminus.mouseout"/></use>
    <path d="M-4,0h8" fill="none" stroke="white" stroke-width="1.5" pointer-events="none"/>
  </g>
  <g id="arrowUp" transform="translate(30 24)">
    <use xlink:href="#rim"/>
    <path pointer-events="none" fill="none" stroke="white" stroke-width="1.5" d="M0,-3.0v7 M-2.5,-0.5L0,-3.0L2.5,-0.5"/>
  </g>
  <g id="arrowRight" transform="rotate(90) translate(36 -43)">
    <use xlink:href="#rim"/>
    <path pointer-events="none" fill="none" stroke="white" stroke-width="1.5" d="M0,-3.0v7 M-2.5,-0.5L0,-3.0L2.5,-0.5"/>
  </g>
  <g id="arrowDown" transform="rotate(180) translate(-30 -48)">
    <use xlink:href="#rim"/>
    <path pointer-events="none" fill="none" stroke="white" stroke-width="1.5" d="M0,-3.0v7 M-2.5,-0.5L0,-3.0L2.5,-0.5"/>
  </g>
  <g id="arrowLeft" transform="rotate(270) translate(-36 17)">
    <use xlink:href="#rim"/>
    <path pointer-events="none" fill="none" stroke="white" stroke-width="1.5" d="M0,-3.0v7 M-2.5,-0.5L0,-3.0L2.5,-0.5"/>
  </g>
  <g id="resetDef">
    <use xlink:href="#rim2" fill="#404040"><set attributeName="fill" to="#808080" begin="reset.mouseover" end="reset.mouseout"/></use>
  </g>
</defs>
<script type="application/ecmascript">
var viewWidth = 1313;
var viewHeight = 420;
var sectionId = 'dynsection-1';
</script>
<script type="application/ecmascript" xlink:href="svg.min.js"/>
<svg id="graph" class="graph">
<g id="viewport">
<title>C:/DGB/Project/ncr_picking/src/device/output_device/vision_output_device.h</title>
<!-- Node1 -->
<g id="Node000001" class="node">
<title>Node1</title>
<g id="a_Node000001"><a xlink:title="Abstract device classes for the vision&#45;output device family (the software side that streams matching ...">
<polygon fill="#999999" stroke="#666666" points="678.62,-412 570.38,-412 570.38,-356 678.62,-356 678.62,-412"/>
<text xml:space="preserve" text-anchor="start" x="578.38" y="-398.5" font-family="Helvetica,sans-Serif" font-size="10.00">C:/DGB/Project/ncr</text>
<text xml:space="preserve" text-anchor="start" x="578.38" y="-386.5" font-family="Helvetica,sans-Serif" font-size="10.00">_picking/src/device</text>
<text xml:space="preserve" text-anchor="start" x="578.38" y="-374.5" font-family="Helvetica,sans-Serif" font-size="10.00">/output_device/vision</text>
<text xml:space="preserve" text-anchor="middle" x="624.5" y="-362.5" font-family="Helvetica,sans-Serif" font-size="10.00">_output_device.h</text>
</a>
</g>
</g>
<!-- Node2 -->
<g id="Node000002" class="node">
<title>Node2</title>
<g id="a_Node000002"><a xlink:href="device__manager_8cpp.html" target="_top" xlink:title=" ">
<polygon fill="white" stroke="#666666" points="109,-314 0,-314 0,-270 109,-270 109,-314"/>
<text xml:space="preserve" text-anchor="start" x="8" y="-300.5" font-family="Helvetica,sans-Serif" font-size="10.00">C:/DGB/Project/ncr</text>
<text xml:space="preserve" text-anchor="start" x="8" y="-288.5" font-family="Helvetica,sans-Serif" font-size="10.00">_picking/src/device</text>
<text xml:space="preserve" text-anchor="middle" x="54.5" y="-276.5" font-family="Helvetica,sans-Serif" font-size="10.00">/device_manager.cpp</text>
</a>
</g>
</g>
<!-- Node1&#45;&gt;Node2 -->
<g id="edge1_Node000001_Node000002" class="edge">
<title>Node1&#45;&gt;Node2</title>
<g id="a_edge1_Node000001_Node000002"><a xlink:title=" ">
<path fill="none" stroke="#63b8ff" d="M558.58,-379.92C461.85,-374.23 276.37,-358.88 123.5,-320 117.52,-318.48 111.35,-316.58 105.28,-314.49"/>
<polygon fill="#63b8ff" stroke="#63b8ff" points="558.24,-383.4 568.42,-380.48 558.63,-376.41 558.24,-383.4"/>
</a>
</g>
</g>
<!-- Node3 -->
<g id="Node000003" class="node">
<title>Node3</title>
<g id="a_Node000003"><a xlink:href="vision__tcpip__client__config_8h.html" target="_top" xlink:title="Concrete config for the TCP/IP client transport of VisionOutput (VisionTcpipClientDeviceCfg).">
<polygon fill="white" stroke="#666666" points="596.75,-320 486.25,-320 486.25,-264 596.75,-264 596.75,-320"/>
<text xml:space="preserve" text-anchor="start" x="494.25" y="-306.5" font-family="Helvetica,sans-Serif" font-size="10.00">C:/DGB/Project/ncr</text>
<text xml:space="preserve" text-anchor="start" x="494.25" y="-294.5" font-family="Helvetica,sans-Serif" font-size="10.00">_picking/src/device</text>
<text xml:space="preserve" text-anchor="start" x="494.25" y="-282.5" font-family="Helvetica,sans-Serif" font-size="10.00">/output_device/vision</text>
<text xml:space="preserve" text-anchor="middle" x="541.5" y="-270.5" font-family="Helvetica,sans-Serif" font-size="10.00">_tcpip_client_config.h</text>
</a>
</g>
</g>
<!-- Node1&#45;&gt;Node3 -->
<g id="edge2_Node000001_Node000003" class="edge">
<title>Node1&#45;&gt;Node3</title>
<g id="a_edge2_Node000001_Node000003"><a xlink:title=" ">
<path fill="none" stroke="#63b8ff" d="M591.43,-347.14C583.19,-338.21 574.49,-328.77 566.7,-320.32"/>
<polygon fill="#63b8ff" stroke="#63b8ff" points="588.77,-349.42 598.12,-354.4 593.91,-344.67 588.77,-349.42"/>
</a>
</g>
</g>
<!-- Node7 -->
<g id="Node000007" class="node">
<title>Node7</title>
<g id="a_Node000007"><a xlink:href="vision__tcpip__client__device__widget_8h.html" target="_top" xlink:title="VisionTcpipClientDeviceWidget — device configuration/monitoring widget for the TCP&#45;transport Vision O...">
<polygon fill="#fff0f0" stroke="red" points="703.75,-136 557.25,-136 557.25,-80 703.75,-80 703.75,-136"/>
<text xml:space="preserve" text-anchor="start" x="565.25" y="-122.5" font-family="Helvetica,sans-Serif" font-size="10.00">C:/DGB/Project/ncr</text>
<text xml:space="preserve" text-anchor="start" x="565.25" y="-110.5" font-family="Helvetica,sans-Serif" font-size="10.00">_picking/src/ui/forms</text>
<text xml:space="preserve" text-anchor="start" x="565.25" y="-98.5" font-family="Helvetica,sans-Serif" font-size="10.00">/vision_output/vision</text>
<text xml:space="preserve" text-anchor="middle" x="630.5" y="-86.5" font-family="Helvetica,sans-Serif" font-size="10.00">_tcpip_client_device_widget.h</text>
</a>
</g>
</g>
<!-- Node1&#45;&gt;Node7 -->
<g id="edge31_Node000001_Node000007" class="edge">
<title>Node1&#45;&gt;Node7</title>
<g id="a_edge31_Node000001_Node000007"><a xlink:title=" ">
<path fill="none" stroke="#63b8ff" d="M689.65,-371.53C719.3,-362.7 751.67,-347.19 769.5,-320 806.74,-263.21 775.37,-223.84 731.5,-172 719.55,-157.88 703.61,-145.94 687.93,-136.37"/>
<polygon fill="#63b8ff" stroke="#63b8ff" points="689.06,-368.06 680.35,-374.08 690.92,-374.81 689.06,-368.06"/>
</a>
</g>
</g>
<!-- Node8 -->
<g id="Node000008" class="node">
<title>Node8</title>
<g id="a_Node000008"><a xlink:href="device__widget__factory_8cpp.html" target="_top" xlink:title=" ">
<polygon fill="white" stroke="#666666" points="772.75,-44 638.25,-44 638.25,0 772.75,0 772.75,-44"/>
<text xml:space="preserve" text-anchor="start" x="646.25" y="-30.5" font-family="Helvetica,sans-Serif" font-size="10.00">C:/DGB/Project/ncr</text>
<text xml:space="preserve" text-anchor="start" x="646.25" y="-18.5" font-family="Helvetica,sans-Serif" font-size="10.00">_picking/src/ui/forms</text>
<text xml:space="preserve" text-anchor="middle" x="705.5" y="-6.5" font-family="Helvetica,sans-Serif" font-size="10.00">/device_widget_factory.cpp</text>
</a>
</g>
</g>
<!-- Node1&#45;&gt;Node8 -->
<g id="edge30_Node000001_Node000008" class="edge">
<title>Node1&#45;&gt;Node8</title>
<g id="a_edge30_Node000001_Node000008"><a xlink:title=" ">
<path fill="none" stroke="#63b8ff" d="M558.93,-375.05C496.87,-366.2 401.81,-349.14 323.5,-320 244.44,-290.59 200.31,-300.68 157.5,-228 147.48,-210.99 146.24,-94.4 159.5,-80 191.38,-45.38 499.04,-30.25 637.99,-25.15"/>
<polygon fill="#63b8ff" stroke="#63b8ff" points="558.24,-378.49 568.63,-376.4 559.21,-371.56 558.24,-378.49"/>
</a>
</g>
</g>
<!-- Node10 -->
<g id="Node000010" class="node">
<title>Node10</title>
<g id="a_Node000010"><a xlink:href="add__device__wizard_8cpp.html" target="_top" xlink:title=" ">
<polygon fill="white" stroke="#666666" points="722,-222 601,-222 601,-178 722,-178 722,-222"/>
<text xml:space="preserve" text-anchor="start" x="609" y="-208.5" font-family="Helvetica,sans-Serif" font-size="10.00">C:/DGB/Project/ncr</text>
<text xml:space="preserve" text-anchor="start" x="609" y="-196.5" font-family="Helvetica,sans-Serif" font-size="10.00">_picking/src/ui/forms</text>
<text xml:space="preserve" text-anchor="middle" x="661.5" y="-184.5" font-family="Helvetica,sans-Serif" font-size="10.00">/add_device_wizard.cpp</text>
</a>
</g>
</g>
<!-- Node1&#45;&gt;Node10 -->
<g id="edge29_Node000001_Node000010" class="edge">
<title>Node1&#45;&gt;Node10</title>
<g id="a_edge29_Node000001_Node000010"><a xlink:title=" ">
<path fill="none" stroke="#63b8ff" d="M629.43,-344.67C632.74,-321.24 637.57,-290.73 643.5,-264 646.6,-250.01 651.01,-234.53 654.69,-222.41"/>
<polygon fill="#63b8ff" stroke="#63b8ff" points="625.99,-344 628.09,-354.39 632.92,-344.96 625.99,-344"/>
</a>
</g>
</g>
<!-- Node11 -->
<g id="Node000011" class="node">
<title>Node11</title>
<g id="a_Node000011"><a xlink:href="vision__tcpip__config_8h.html" target="_top" xlink:title="Concrete config for the TCP/IP server transport of VisionOutput (VisionTcpipDeviceCfg)....">
<polygon fill="white" stroke="#666666" points="760.62,-320 652.38,-320 652.38,-264 760.62,-264 760.62,-320"/>
<text xml:space="preserve" text-anchor="start" x="660.38" y="-306.5" font-family="Helvetica,sans-Serif" font-size="10.00">C:/DGB/Project/ncr</text>
<text xml:space="preserve" text-anchor="start" x="660.38" y="-294.5" font-family="Helvetica,sans-Serif" font-size="10.00">_picking/src/device</text>
<text xml:space="preserve" text-anchor="start" x="660.38" y="-282.5" font-family="Helvetica,sans-Serif" font-size="10.00">/output_device/vision</text>
<text xml:space="preserve" text-anchor="middle" x="706.5" y="-270.5" font-family="Helvetica,sans-Serif" font-size="10.00">_tcpip_config.h</text>
</a>
</g>
</g>
<!-- Node1&#45;&gt;Node11 -->
<g id="edge10_Node000001_Node000011" class="edge">
<title>Node1&#45;&gt;Node11</title>
<g id="a_edge10_Node000001_Node000011"><a xlink:title=" ">
<path fill="none" stroke="#63b8ff" d="M657.17,-347.14C665.31,-338.21 673.91,-328.77 681.61,-320.32"/>
<polygon fill="#63b8ff" stroke="#63b8ff" points="654.72,-344.64 650.57,-354.39 659.89,-349.35 654.72,-344.64"/>
</a>
</g>
</g>
<!-- Node14 -->
<g id="Node000014" class="node">
<title>Node14</title>
<g id="a_Node000014"><a xlink:href="vision__tcpip__device__widget_8h.html" target="_top" xlink:title="VisionTcpipDeviceWidget — device configuration/monitoring widget for the TCP&#45;transport Vision Output ...">
<polygon fill="#fff0f0" stroke="red" points="839.5,-136 721.5,-136 721.5,-80 839.5,-80 839.5,-136"/>
<text xml:space="preserve" text-anchor="start" x="729.5" y="-122.5" font-family="Helvetica,sans-Serif" font-size="10.00">C:/DGB/Project/ncr</text>
<text xml:space="preserve" text-anchor="start" x="729.5" y="-110.5" font-family="Helvetica,sans-Serif" font-size="10.00">_picking/src/ui/forms</text>
<text xml:space="preserve" text-anchor="start" x="729.5" y="-98.5" font-family="Helvetica,sans-Serif" font-size="10.00">/vision_output/vision</text>
<text xml:space="preserve" text-anchor="middle" x="780.5" y="-86.5" font-family="Helvetica,sans-Serif" font-size="10.00">_tcpip_device_widget.h</text>
</a>
</g>
</g>
<!-- Node1&#45;&gt;Node14 -->
<g id="edge32_Node000001_Node000014" class="edge">
<title>Node1&#45;&gt;Node14</title>
<g id="a_edge32_Node000001_Node000014"><a xlink:title=" ">
<path fill="none" stroke="#63b8ff" d="M690.12,-376.17C726.44,-368.65 768.74,-352.91 791.5,-320 829.99,-264.34 807.29,-179.31 791.6,-136.16"/>
<polygon fill="#63b8ff" stroke="#63b8ff" points="689.73,-372.68 680.55,-377.97 691.02,-379.56 689.73,-372.68"/>
</a>
</g>
</g>
<!-- Node16 -->
<g id="Node000016" class="node">
<title>Node16</title>
<g id="a_Node000016"><a xlink:href="vision__tcpip__device__base_8h.html" target="_top" xlink:title="Shared protocol core for the vision&#45;output TCP/IP transports (server + client).">
<polygon fill="white" stroke="#666666" points="442.75,-320 332.25,-320 332.25,-264 442.75,-264 442.75,-320"/>
<text xml:space="preserve" text-anchor="start" x="340.25" y="-306.5" font-family="Helvetica,sans-Serif" font-size="10.00">C:/DGB/Project/ncr</text>
<text xml:space="preserve" text-anchor="start" x="340.25" y="-294.5" font-family="Helvetica,sans-Serif" font-size="10.00">_picking/src/device</text>
<text xml:space="preserve" text-anchor="start" x="340.25" y="-282.5" font-family="Helvetica,sans-Serif" font-size="10.00">/output_device/vision</text>
<text xml:space="preserve" text-anchor="middle" x="387.5" y="-270.5" font-family="Helvetica,sans-Serif" font-size="10.00">_tcpip_device_base.h</text>
</a>
</g>
</g>
<!-- Node1&#45;&gt;Node16 -->
<g id="edge18_Node000001_Node000016" class="edge">
<title>Node1&#45;&gt;Node16</title>
<g id="a_edge18_Node000001_Node000016"><a xlink:title=" ">
<path fill="none" stroke="#63b8ff" d="M559.56,-358.34C522.97,-344.44 477.75,-327.27 442.85,-314.02"/>
<polygon fill="#63b8ff" stroke="#63b8ff" points="558.12,-361.54 568.71,-361.81 560.61,-354.99 558.12,-361.54"/>
</a>
</g>
</g>
<!-- Node18 -->
<g id="Node000018" class="node">
<title>Node18</title>
<g id="a_Node000018"><a xlink:href="vision__output__runner_8h.html" target="_top" xlink:title="VisionOutputRunner — per&#45;device thread runner for the VisionOutput device family: thread lifecycle,...">
<polygon fill="white" stroke="#666666" points="972.12,-222 854.88,-222 854.88,-178 972.12,-178 972.12,-222"/>
<text xml:space="preserve" text-anchor="start" x="862.88" y="-208.5" font-family="Helvetica,sans-Serif" font-size="10.00">C:/DGB/Project/ncr</text>
<text xml:space="preserve" text-anchor="start" x="862.88" y="-196.5" font-family="Helvetica,sans-Serif" font-size="10.00">_picking/src/runtime</text>
<text xml:space="preserve" text-anchor="middle" x="913.5" y="-184.5" font-family="Helvetica,sans-Serif" font-size="10.00">/vision_output_runner.h</text>
</a>
</g>
</g>
<!-- Node1&#45;&gt;Node18 -->
<g id="edge22_Node000001_Node000018" class="edge">
<title>Node1&#45;&gt;Node18</title>
<g id="a_edge22_Node000001_Node000018"><a xlink:title=" ">
<path fill="none" stroke="#63b8ff" d="M690.46,-376.38C736.4,-368.95 797,-353.22 840.5,-320 873.82,-294.55 895.45,-249.15 905.96,-222.39"/>
<polygon fill="#63b8ff" stroke="#63b8ff" points="689.98,-372.91 680.61,-377.87 691.02,-379.84 689.98,-372.91"/>
</a>
</g>
</g>
<!-- Node4 -->
<g id="Node000004" class="node">
<title>Node4</title>
<g id="a_Node000004"><a xlink:href="vision__tcpip__client__device_8h.html" target="_top" xlink:title="TCP/IP client transport of the vision&#45;output family (VisionTcpipClientDevice).">
<polygon fill="white" stroke="#666666" points="417.88,-228 305.12,-228 305.12,-172 417.88,-172 417.88,-228"/>
<text xml:space="preserve" text-anchor="start" x="313.12" y="-214.5" font-family="Helvetica,sans-Serif" font-size="10.00">C:/DGB/Project/ncr</text>
<text xml:space="preserve" text-anchor="start" x="313.12" y="-202.5" font-family="Helvetica,sans-Serif" font-size="10.00">_picking/src/device</text>
<text xml:space="preserve" text-anchor="start" x="313.12" y="-190.5" font-family="Helvetica,sans-Serif" font-size="10.00">/output_device/vision</text>
<text xml:space="preserve" text-anchor="middle" x="361.5" y="-178.5" font-family="Helvetica,sans-Serif" font-size="10.00">_tcpip_client_device.h</text>
</a>
</g>
</g>
<!-- Node3&#45;&gt;Node4 -->
<g id="edge3_Node000003_Node000004" class="edge">
<title>Node3&#45;&gt;Node4</title>
<g id="a_edge3_Node000003_Node000004"><a xlink:title=" ">
<path fill="none" stroke="#63b8ff" d="M476.42,-258.46C456.76,-248.63 435.38,-237.94 416.46,-228.48"/>
<polygon fill="#63b8ff" stroke="#63b8ff" points="474.65,-261.49 485.16,-262.83 477.78,-255.23 474.65,-261.49"/>
</a>
</g>
</g>
<!-- Node3&#45;&gt;Node7 -->
<g id="edge9_Node000003_Node000007" class="edge">
<title>Node3&#45;&gt;Node7</title>
<g id="a_edge9_Node000003_Node000007"><a xlink:title=" ">
<path fill="none" stroke="#63b8ff" d="M556.26,-252.91C565.81,-229.25 578.95,-198.42 592.5,-172 598.62,-160.07 606.11,-147.32 612.82,-136.44"/>
<polygon fill="#63b8ff" stroke="#63b8ff" points="553.02,-251.58 552.56,-262.17 559.52,-254.18 553.02,-251.58"/>
</a>
</g>
</g>
<!-- Node3&#45;&gt;Node10 -->
<g id="edge8_Node000003_Node000010" class="edge">
<title>Node3&#45;&gt;Node10</title>
<g id="a_edge8_Node000003_Node000010"><a xlink:title=" ">
<path fill="none" stroke="#63b8ff" d="M587.06,-256.83C602.52,-245.24 619.33,-232.63 633.06,-222.33"/>
<polygon fill="#63b8ff" stroke="#63b8ff" points="585.27,-253.8 579.37,-262.6 589.47,-259.4 585.27,-253.8"/>
</a>
</g>
</g>
<!-- Node5 -->
<g id="Node000005" class="node">
<title>Node5</title>
<g id="a_Node000005"><a xlink:href="device__registry_8cpp.html" target="_top" xlink:title=" ">
<polygon fill="white" stroke="#666666" points="413,-130 310,-130 310,-86 413,-86 413,-130"/>
<text xml:space="preserve" text-anchor="start" x="318" y="-116.5" font-family="Helvetica,sans-Serif" font-size="10.00">C:/DGB/Project/ncr</text>
<text xml:space="preserve" text-anchor="start" x="318" y="-104.5" font-family="Helvetica,sans-Serif" font-size="10.00">_picking/src/device</text>
<text xml:space="preserve" text-anchor="middle" x="361.5" y="-92.5" font-family="Helvetica,sans-Serif" font-size="10.00">/device_registry.cpp</text>
</a>
</g>
</g>
<!-- Node4&#45;&gt;Node5 -->
<g id="edge4_Node000004_Node000005" class="edge">
<title>Node4&#45;&gt;Node5</title>
<g id="a_edge4_Node000004_Node000005"><a xlink:title=" ">
<path fill="none" stroke="#63b8ff" d="M361.5,-160.23C361.5,-149.98 361.5,-139.28 361.5,-130.33"/>
<polygon fill="#63b8ff" stroke="#63b8ff" points="358,-159.99 361.5,-169.99 365,-159.99 358,-159.99"/>
</a>
</g>
</g>
<!-- Node6 -->
<g id="Node000006" class="node">
<title>Node6</title>
<g id="a_Node000006"><a xlink:href="vision__tcpip__client__device_8cpp.html" target="_top" xlink:title=" ">
<polygon fill="white" stroke="#666666" points="292.12,-136 168.88,-136 168.88,-80 292.12,-80 292.12,-136"/>
<text xml:space="preserve" text-anchor="start" x="176.88" y="-122.5" font-family="Helvetica,sans-Serif" font-size="10.00">C:/DGB/Project/ncr</text>
<text xml:space="preserve" text-anchor="start" x="176.88" y="-110.5" font-family="Helvetica,sans-Serif" font-size="10.00">_picking/src/device</text>
<text xml:space="preserve" text-anchor="start" x="176.88" y="-98.5" font-family="Helvetica,sans-Serif" font-size="10.00">/output_device/vision</text>
<text xml:space="preserve" text-anchor="middle" x="230.5" y="-86.5" font-family="Helvetica,sans-Serif" font-size="10.00">_tcpip_client_device.cpp</text>
</a>
</g>
</g>
<!-- Node4&#45;&gt;Node6 -->
<g id="edge5_Node000004_Node000006" class="edge">
<title>Node4&#45;&gt;Node6</title>
<g id="a_edge5_Node000004_Node000006"><a xlink:title=" ">
<path fill="none" stroke="#63b8ff" d="M312.11,-165.07C298.29,-155.58 283.46,-145.38 270.27,-136.32"/>
<polygon fill="#63b8ff" stroke="#63b8ff" points="310.01,-167.87 320.24,-170.65 313.98,-162.1 310.01,-167.87"/>
</a>
</g>
</g>
<!-- Node4&#45;&gt;Node7 -->
<g id="edge6_Node000004_Node000007" class="edge">
<title>Node4&#45;&gt;Node7</title>
<g id="a_edge6_Node000004_Node000007"><a xlink:title=" ">
<path fill="none" stroke="#63b8ff" d="M429.03,-171.6C482.32,-153.23 498.2,-151.76 548.5,-136 551.22,-135.15 553.98,-134.27 556.78,-133.39"/>
<polygon fill="#63b8ff" stroke="#63b8ff" points="427.96,-168.27 419.67,-174.87 430.27,-174.87 427.96,-168.27"/>
</a>
</g>
</g>
<!-- Node7&#45;&gt;Node8 -->
<g id="edge7_Node000007_Node000008" class="edge">
<title>Node7&#45;&gt;Node8</title>
<g id="a_edge7_Node000007_Node000008"><a xlink:title=" ">
<path fill="none" stroke="#63b8ff" d="M662.08,-71.64C670.34,-62.38 679,-52.68 686.39,-44.4"/>
<polygon fill="#63b8ff" stroke="#63b8ff" points="659.7,-69.04 655.65,-78.83 664.92,-73.7 659.7,-69.04"/>
</a>
</g>
</g>
<!-- Node11&#45;&gt;Node10 -->
<g id="edge16_Node000011_Node000010" class="edge">
<title>Node11&#45;&gt;Node10</title>
<g id="a_edge16_Node000011_Node000010"><a xlink:title=" ">
<path fill="none" stroke="#63b8ff" d="M687.61,-253.22C682.33,-242.67 676.78,-231.57 672.16,-222.33"/>
<polygon fill="#63b8ff" stroke="#63b8ff" points="684.47,-254.78 692.08,-262.15 690.74,-251.64 684.47,-254.78"/>
</a>
</g>
</g>
<!-- Node12 -->
<g id="Node000012" class="node">
<title>Node12</title>
<g id="a_Node000012"><a xlink:href="vision__tcpip__device_8h.html" target="_top" xlink:title="TCP/IP server transport of the vision&#45;output family (VisionTcpipDevice).">
<polygon fill="white" stroke="#666666" points="544.62,-228 436.38,-228 436.38,-172 544.62,-172 544.62,-228"/>
<text xml:space="preserve" text-anchor="start" x="444.38" y="-214.5" font-family="Helvetica,sans-Serif" font-size="10.00">C:/DGB/Project/ncr</text>
<text xml:space="preserve" text-anchor="start" x="444.38" y="-202.5" font-family="Helvetica,sans-Serif" font-size="10.00">_picking/src/device</text>
<text xml:space="preserve" text-anchor="start" x="444.38" y="-190.5" font-family="Helvetica,sans-Serif" font-size="10.00">/output_device/vision</text>
<text xml:space="preserve" text-anchor="middle" x="490.5" y="-178.5" font-family="Helvetica,sans-Serif" font-size="10.00">_tcpip_device.h</text>
</a>
</g>
</g>
<!-- Node11&#45;&gt;Node12 -->
<g id="edge11_Node000011_Node000012" class="edge">
<title>Node11&#45;&gt;Node12</title>
<g id="a_edge11_Node000011_Node000012"><a xlink:title=" ">
<path fill="none" stroke="#63b8ff" d="M641.76,-264.03C610.91,-251.17 574.4,-235.96 544.99,-223.7"/>
<polygon fill="#63b8ff" stroke="#63b8ff" points="640.02,-267.09 650.6,-267.71 642.71,-260.63 640.02,-267.09"/>
</a>
</g>
</g>
<!-- Node11&#45;&gt;Node14 -->
<g id="edge17_Node000011_Node000014" class="edge">
<title>Node11&#45;&gt;Node14</title>
<g id="a_edge17_Node000011_Node000014"><a xlink:title=" ">
<path fill="none" stroke="#63b8ff" d="M721.75,-253.5C735.91,-218.67 756.67,-167.61 769.35,-136.43"/>
<polygon fill="#63b8ff" stroke="#63b8ff" points="718.67,-251.77 718.15,-262.35 725.16,-254.41 718.67,-251.77"/>
</a>
</g>
</g>
<!-- Node12&#45;&gt;Node5 -->
<g id="edge12_Node000012_Node000005" class="edge">
<title>Node12&#45;&gt;Node5</title>
<g id="a_edge12_Node000012_Node000005"><a xlink:title=" ">
<path fill="none" stroke="#63b8ff" d="M441.98,-165.15C425.24,-153.47 406.97,-140.72 392.07,-130.33"/>
<polygon fill="#63b8ff" stroke="#63b8ff" points="439.65,-167.79 449.85,-170.64 443.65,-162.05 439.65,-167.79"/>
</a>
</g>
</g>
<!-- Node13 -->
<g id="Node000013" class="node">
<title>Node13</title>
<g id="a_Node000013"><a xlink:href="vision__tcpip__device_8cpp.html" target="_top" xlink:title=" ">
<polygon fill="white" stroke="#666666" points="539.62,-136 431.38,-136 431.38,-80 539.62,-80 539.62,-136"/>
<text xml:space="preserve" text-anchor="start" x="439.38" y="-122.5" font-family="Helvetica,sans-Serif" font-size="10.00">C:/DGB/Project/ncr</text>
<text xml:space="preserve" text-anchor="start" x="439.38" y="-110.5" font-family="Helvetica,sans-Serif" font-size="10.00">_picking/src/device</text>
<text xml:space="preserve" text-anchor="start" x="439.38" y="-98.5" font-family="Helvetica,sans-Serif" font-size="10.00">/output_device/vision</text>
<text xml:space="preserve" text-anchor="middle" x="485.5" y="-86.5" font-family="Helvetica,sans-Serif" font-size="10.00">_tcpip_device.cpp</text>
</a>
</g>
</g>
<!-- Node12&#45;&gt;Node13 -->
<g id="edge13_Node000012_Node000013" class="edge">
<title>Node12&#45;&gt;Node13</title>
<g id="a_edge13_Node000012_Node000013"><a xlink:title=" ">
<path fill="none" stroke="#63b8ff" d="M488.34,-160.09C487.89,-152.08 487.43,-143.81 487.02,-136.32"/>
<polygon fill="#63b8ff" stroke="#63b8ff" points="484.84,-160.21 488.89,-170 491.83,-159.82 484.84,-160.21"/>
</a>
</g>
</g>
<!-- Node12&#45;&gt;Node14 -->
<g id="edge14_Node000012_Node000014" class="edge">
<title>Node12&#45;&gt;Node14</title>
<g id="a_edge14_Node000012_Node000014"><a xlink:title=" ">
<path fill="none" stroke="#63b8ff" d="M556.09,-181.18C610.56,-166.23 683.62,-145.8 712.5,-136 715.39,-135.02 718.33,-133.99 721.29,-132.92"/>
<polygon fill="#63b8ff" stroke="#63b8ff" points="555.3,-177.77 546.58,-183.78 557.15,-184.52 555.3,-177.77"/>
</a>
</g>
</g>
<!-- Node14&#45;&gt;Node8 -->
<g id="edge15_Node000014_Node000008" class="edge">
<title>Node14&#45;&gt;Node8</title>
<g id="a_edge15_Node000014_Node000008"><a xlink:title=" ">
<path fill="none" stroke="#63b8ff" d="M748.92,-71.64C740.66,-62.38 732,-52.68 724.61,-44.4"/>
<polygon fill="#63b8ff" stroke="#63b8ff" points="746.08,-73.7 755.35,-78.83 751.3,-69.04 746.08,-73.7"/>
</a>
</g>
</g>
<!-- Node16&#45;&gt;Node4 -->
<g id="edge19_Node000016_Node000004" class="edge">
<title>Node16&#45;&gt;Node4</title>
<g id="a_edge19_Node000016_Node000004"><a xlink:title=" ">
<path fill="none" stroke="#63b8ff" d="M376.42,-252.65C374.06,-244.47 371.61,-235.99 369.39,-228.32"/>
<polygon fill="#63b8ff" stroke="#63b8ff" points="373,-253.42 379.14,-262.05 379.72,-251.48 373,-253.42"/>
</a>
</g>
</g>
<!-- Node16&#45;&gt;Node12 -->
<g id="edge20_Node000016_Node000012" class="edge">
<title>Node16&#45;&gt;Node12</title>
<g id="a_edge20_Node000016_Node000012"><a xlink:title=" ">
<path fill="none" stroke="#63b8ff" d="M427.59,-255.97C438.09,-246.79 449.26,-237.03 459.23,-228.32"/>
<polygon fill="#63b8ff" stroke="#63b8ff" points="425.33,-253.3 420.1,-262.51 429.94,-258.57 425.33,-253.3"/>
</a>
</g>
</g>
<!-- Node17 -->
<g id="Node000017" class="node">
<title>Node17</title>
<g id="a_Node000017"><a xlink:href="vision__tcpip__device__base_8cpp.html" target="_top" xlink:title=" ">
<polygon fill="white" stroke="#666666" points="287,-228 166,-228 166,-172 287,-172 287,-228"/>
<text xml:space="preserve" text-anchor="start" x="174" y="-214.5" font-family="Helvetica,sans-Serif" font-size="10.00">C:/DGB/Project/ncr</text>
<text xml:space="preserve" text-anchor="start" x="174" y="-202.5" font-family="Helvetica,sans-Serif" font-size="10.00">_picking/src/device</text>
<text xml:space="preserve" text-anchor="start" x="174" y="-190.5" font-family="Helvetica,sans-Serif" font-size="10.00">/output_device/vision</text>
<text xml:space="preserve" text-anchor="middle" x="226.5" y="-178.5" font-family="Helvetica,sans-Serif" font-size="10.00">_tcpip_device_base.cpp</text>
</a>
</g>
</g>
<!-- Node16&#45;&gt;Node17 -->
<g id="edge21_Node000016_Node000017" class="edge">
<title>Node16&#45;&gt;Node17</title>
<g id="a_edge21_Node000016_Node000017"><a xlink:title=" ">
<path fill="none" stroke="#63b8ff" d="M328.32,-257.92C311,-248.24 292.27,-237.77 275.66,-228.48"/>
<polygon fill="#63b8ff" stroke="#63b8ff" points="326.56,-260.95 337,-262.77 329.98,-254.83 326.56,-260.95"/>
</a>
</g>
</g>
<!-- Node18&#45;&gt;Node7 -->
<g id="edge27_Node000018_Node000007" class="edge">
<title>Node18&#45;&gt;Node7</title>
<g id="a_edge27_Node000018_Node000007"><a xlink:title=" ">
<path fill="none" stroke="#63b8ff" d="M843.87,-177.44C805.14,-165.39 756.1,-150.01 712.5,-136 709.79,-135.13 707.03,-134.24 704.24,-133.34"/>
<polygon fill="#63b8ff" stroke="#63b8ff" points="842.47,-180.67 853.06,-180.3 844.55,-173.99 842.47,-180.67"/>
</a>
</g>
</g>
<!-- Node18&#45;&gt;Node8 -->
<g id="edge26_Node000018_Node000008" class="edge">
<title>Node18&#45;&gt;Node8</title>
<g id="a_edge26_Node000018_Node000008"><a xlink:title=" ">
<path fill="none" stroke="#63b8ff" d="M899.39,-167.71C884.99,-136.89 862.76,-92.64 848.5,-80 827.2,-61.12 798.87,-48.09 773.05,-39.3"/>
<polygon fill="#63b8ff" stroke="#63b8ff" points="896.13,-169 903.5,-176.61 902.49,-166.06 896.13,-169"/>
</a>
</g>
</g>
<!-- Node18&#45;&gt;Node14 -->
<g id="edge28_Node000018_Node000014" class="edge">
<title>Node18&#45;&gt;Node14</title>
<g id="a_edge28_Node000018_Node000014"><a xlink:title=" ">
<path fill="none" stroke="#63b8ff" d="M872.62,-171.34C856.18,-160.21 837.27,-147.41 820.88,-136.32"/>
<polygon fill="#63b8ff" stroke="#63b8ff" points="870.48,-174.12 880.73,-176.82 874.41,-168.32 870.48,-174.12"/>
</a>
</g>
</g>
<!-- Node19 -->
<g id="Node000019" class="node">
<title>Node19</title>
<g id="a_Node000019"><a xlink:href="localization__runtime__controller_8cpp.html" target="_top" xlink:title=" ">
<polygon fill="white" stroke="#666666" points="1045.25,-130 895.75,-130 895.75,-86 1045.25,-86 1045.25,-130"/>
<text xml:space="preserve" text-anchor="start" x="903.75" y="-116.5" font-family="Helvetica,sans-Serif" font-size="10.00">C:/DGB/Project/ncr</text>
<text xml:space="preserve" text-anchor="start" x="903.75" y="-104.5" font-family="Helvetica,sans-Serif" font-size="10.00">_picking/src/model/localization</text>
<text xml:space="preserve" text-anchor="middle" x="970.5" y="-92.5" font-family="Helvetica,sans-Serif" font-size="10.00">_runtime_controller.cpp</text>
</a>
</g>
</g>
<!-- Node18&#45;&gt;Node19 -->
<g id="edge23_Node000018_Node000019" class="edge">
<title>Node18&#45;&gt;Node19</title>
<g id="a_edge23_Node000018_Node000019"><a xlink:title=" ">
<path fill="none" stroke="#63b8ff" d="M933.04,-168.15C940.89,-155.75 949.76,-141.75 956.89,-130.49"/>
<polygon fill="#63b8ff" stroke="#63b8ff" points="930.21,-166.07 927.82,-176.39 936.13,-169.82 930.21,-166.07"/>
</a>
</g>
</g>
<!-- Node20 -->
<g id="Node000020" class="node">
<title>Node20</title>
<g id="a_Node000020"><a xlink:href="task__localization_8cpp.html" target="_top" xlink:title=" ">
<polygon fill="white" stroke="#666666" points="1183.25,-130 1063.75,-130 1063.75,-86 1183.25,-86 1183.25,-130"/>
<text xml:space="preserve" text-anchor="start" x="1071.75" y="-116.5" font-family="Helvetica,sans-Serif" font-size="10.00">C:/DGB/Project/ncr</text>
<text xml:space="preserve" text-anchor="start" x="1071.75" y="-104.5" font-family="Helvetica,sans-Serif" font-size="10.00">_picking/src/model/task</text>
<text xml:space="preserve" text-anchor="middle" x="1123.5" y="-92.5" font-family="Helvetica,sans-Serif" font-size="10.00">_localization.cpp</text>
</a>
</g>
</g>
<!-- Node18&#45;&gt;Node20 -->
<g id="edge24_Node000018_Node000020" class="edge">
<title>Node18&#45;&gt;Node20</title>
<g id="a_edge24_Node000018_Node000020"><a xlink:title=" ">
<path fill="none" stroke="#63b8ff" d="M973.96,-173.09C1005.5,-159.57 1043.63,-143.23 1073.49,-130.43"/>
<polygon fill="#63b8ff" stroke="#63b8ff" points="972.74,-169.8 964.92,-176.96 975.49,-176.24 972.74,-169.8"/>
</a>
</g>
</g>
<!-- Node21 -->
<g id="Node000021" class="node">
<title>Node21</title>
<g id="a_Node000021"><a xlink:href="task__runner_8cpp.html" target="_top" xlink:title=" ">
<polygon fill="white" stroke="#666666" points="1305.38,-130 1201.62,-130 1201.62,-86 1305.38,-86 1305.38,-130"/>
<text xml:space="preserve" text-anchor="start" x="1209.62" y="-116.5" font-family="Helvetica,sans-Serif" font-size="10.00">C:/DGB/Project/ncr</text>
<text xml:space="preserve" text-anchor="start" x="1209.62" y="-104.5" font-family="Helvetica,sans-Serif" font-size="10.00">_picking/src/runtime</text>
<text xml:space="preserve" text-anchor="middle" x="1253.5" y="-92.5" font-family="Helvetica,sans-Serif" font-size="10.00">/task_runner.cpp</text>
</a>
</g>
</g>
<!-- Node18&#45;&gt;Node21 -->
<g id="edge25_Node000018_Node000021" class="edge">
<title>Node18&#45;&gt;Node21</title>
<g id="a_edge25_Node000018_Node000021"><a xlink:title=" ">
<path fill="none" stroke="#63b8ff" d="M983.44,-187.12C1040.5,-176.5 1122.78,-159.06 1192.5,-136 1197.45,-134.36 1202.54,-132.47 1207.58,-130.46"/>
<polygon fill="#63b8ff" stroke="#63b8ff" points="983.07,-183.63 973.87,-188.88 984.33,-190.51 983.07,-183.63"/>
</a>
</g>
</g>
</g>
</svg>

<g id="navigator" transform="translate(0 0)" fill="#404254">
  <rect fill="#f2f5e9" fill-opacity="0.5" stroke="#606060" stroke-width=".5" x="0" y="0" width="60" height="60"/>
  <use id="zoomplus" xlink:href="#zoomPlus" x="17" y="9" onmousedown="handleZoom(evt,'in')"/>
  <use id="zoomminus" xlink:href="#zoomMin" x="42" y="9" onmousedown="handleZoom(evt,'out')"/>
  <use id="reset" xlink:href="#resetDef" x="30" y="36" onmousedown="handleReset()"/>
   <use id="arrowup" xlink:href="#arrowUp" x="0" y="0" onmousedown="handlePan(0,-1)"/>
  <use id="arrowright" xlink:href="#arrowRight" x="0" y="0" onmousedown="handlePan(1,0)"/>
  <use id="arrowdown" xlink:href="#arrowDown" x="0" y="0" onmousedown="handlePan(0,1)"/>
  <use id="arrowleft" xlink:href="#arrowLeft" x="0" y="0" onmousedown="handlePan(-1,0)"/>
</g>
<svg viewBox="0 0 15 15" width="100%" height="30px" preserveAspectRatio="xMaxYMin meet">
 <g id="arrow_out" transform="scale(0.3 0.3)">
  <a xlink:href="vision__output__device_8h__dep__incl_org.svg" target="_base">
   <rect id="button" ry="5" rx="5" y="6" x="6" height="38" width="38"
        fill="#f2f5e9" fill-opacity="0.5" stroke="#606060" stroke-width="1.0"/>
   <path id="arrow"
     d="M 11.500037,31.436501 C 11.940474,20.09759 22.043105,11.32322 32.158766,21.979434 L 37.068811,17.246167 C 37.068811,17.246167 37.088388,32 37.088388,32 L 22.160133,31.978069 C 22.160133,31.978069 26.997745,27.140456 26.997745,27.140456 C 18.528582,18.264221 13.291696,25.230495 11.500037,31.436501 z"
     style="fill:#404040;"/>
  </a>
 </g>
</svg>

<style type='text/css'>
<![CDATA[
[data-mouse-over-selected='false'] { opacity: 0.7; }
[data-mouse-over-selected='true']  { opacity: 1.0; }
]]>
</style>
<script type="application/ecmascript"><![CDATA[
document.addEventListener('DOMContentLoaded', (event) => {
  highlightEdges();
  highlightAdjacentNodes();
});
]]></script>
</svg>
